WenQuanYiZenHeiSharp-03.ufo3
<glyph name="dollar" format="2">
  <advance width="614" height="614"/>
  <unicode hex="0024"/>
  <outline>
    <contour>
      <point x="555" y="210" type="qcurve" smooth="yes"/>
      <point x="555" y="134"/>
      <point x="499" y="80" type="qcurve" smooth="yes"/>
      <point x="490" y="73"/>
      <point x="482" y="67" type="qcurve" smooth="yes"/>
      <point x="435" y="32"/>
      <point x="343" y="22" type="qcurve"/>
      <point x="343" y="-77" type="line"/>
      <point x="281" y="-77" type="line"/>
      <point x="281" y="22" type="line"/>
      <point x="127" y="37"/>
      <point x="72" y="154" type="qcurve" smooth="yes"/>
      <point x="66" y="168"/>
      <point x="60" y="183" type="qcurve"/>
      <point x="130" y="210" type="line"/>
      <point x="159" y="129"/>
      <point x="233" y="102" type="qcurve" smooth="yes"/>
      <point x="256" y="94"/>
      <point x="281" y="93" type="qcurve"/>
      <point x="281" y="332" type="line"/>
      <point x="154" y="361"/>
      <point x="114" y="421" type="qcurve" smooth="yes"/>
      <point x="89" y="457"/>
      <point x="89" y="507" type="qcurve" smooth="yes"/>
      <point x="89" y="632"/>
      <point x="215" y="675" type="qcurve" smooth="yes"/>
      <point x="245" y="686"/>
      <point x="281" y="690" type="qcurve"/>
      <point x="281" y="775" type="line"/>
      <point x="343" y="775" type="line"/>
      <point x="343" y="690" type="line"/>
      <point x="496" y="678"/>
      <point x="542" y="555" type="qcurve"/>
      <point x="472" y="531" type="line"/>
      <point x="450" y="603"/>
      <point x="371" y="620" type="qcurve" smooth="yes"/>
      <point x="357" y="622"/>
      <point x="343" y="623" type="qcurve"/>
      <point x="343" y="402" type="line"/>
      <point x="483" y="373"/>
      <point x="528" y="307" type="qcurve" smooth="yes"/>
      <point x="555" y="267"/>
    </contour>
    <contour>
      <point x="281" y="412" type="qcurve"/>
      <point x="281" y="623" type="line"/>
      <point x="211" y="618"/>
      <point x="179" y="571" type="qcurve" smooth="yes"/>
      <point x="164" y="549"/>
      <point x="164" y="519" type="qcurve" smooth="yes"/>
      <point x="164" y="434"/>
    </contour>
    <contour>
      <point x="476" y="204" type="qcurve" smooth="yes"/>
      <point x="476" y="288"/>
      <point x="372" y="312" type="qcurve" smooth="yes"/>
      <point x="357" y="315"/>
      <point x="343" y="317" type="qcurve"/>
      <point x="343" y="93" type="line"/>
      <point x="413" y="93"/>
      <point x="452" y="138" type="qcurve" smooth="yes"/>
      <point x="476" y="166"/>
    </contour>
  </outline>
</glyph>
<glyph name="percent" format="2">
  <advance width="716" height="716"/>
  <unicode hex="0025"/>
  <outline>
    <contour>
      <point x="690" y="172" type="qcurve" smooth="yes"/>
      <point x="690" y="75"/>
      <point x="634" y="24" type="qcurve"/>
      <point x="611" y="6" type="line" smooth="yes"/>
      <point x="594" y="-3"/>
      <point x="575" y="-7" type="qcurve" smooth="yes"/>
      <point x="545" y="-10" type="line"/>
      <point x="456" y="-10"/>
      <point x="418" y="78" type="qcurve" smooth="yes"/>
      <point x="399" y="121"/>
      <point x="399" y="172" type="qcurve" smooth="yes"/>
      <point x="399" y="275"/>
      <point x="458" y="326" type="qcurve" smooth="yes"/>
      <point x="493" y="355"/>
      <point x="543" y="355" type="qcurve" smooth="yes"/>
      <point x="635" y="355"/>
      <point x="673" y="264" type="qcurve" smooth="yes"/>
      <point x="690" y="223"/>
    </contour>
    <contour>
      <point x="543" y="303" type="qcurve" smooth="yes"/>
      <point x="462" y="303"/>
      <point x="462" y="172" type="qcurve" smooth="yes"/>
      <point x="462" y="62"/>
      <point x="522" y="45" type="qcurve" smooth="yes"/>
      <point x="532" y="42"/>
      <point x="545" y="42" type="qcurve" smooth="yes"/>
      <point x="612" y="42"/>
      <point x="626" y="133" type="qcurve" smooth="yes"/>
      <point x="628" y="150"/>
      <point x="628" y="167" type="qcurve" smooth="yes"/>
      <point x="628" y="303"/>
    </contour>
    <contour>
      <point x="608" y="702" type="line"/>
      <point x="183" y="0" type="line"/>
      <point x="109" y="0" type="line"/>
      <point x="534" y="702" type="line"/>
    </contour>
    <contour>
      <point x="317" y="529" type="qcurve" smooth="yes"/>
      <point x="317" y="432"/>
      <point x="261" y="381" type="qcurve" smooth="yes"/>
      <point x="225" y="347"/>
      <point x="172" y="347" type="qcurve" smooth="yes"/>
      <point x="83" y="347"/>
      <point x="45" y="435" type="qcurve" smooth="yes"/>
      <point x="27" y="478"/>
      <point x="27" y="529" type="qcurve" smooth="yes"/>
      <point x="27" y="633"/>
      <point x="85" y="683" type="qcurve" smooth="yes"/>
      <point x="120" y="713"/>
      <point x="170" y="713" type="qcurve" smooth="yes"/>
      <point x="262" y="713"/>
      <point x="300" y="622" type="qcurve" smooth="yes"/>
      <point x="317" y="581"/>
    </contour>
    <contour>
      <point x="170" y="660" type="qcurve" smooth="yes"/>
      <point x="89" y="660"/>
      <point x="89" y="529" type="qcurve" smooth="yes"/>
      <point x="89" y="420"/>
      <point x="150" y="402" type="qcurve" smooth="yes"/>
      <point x="160" y="399"/>
      <point x="172" y="399" type="qcurve" smooth="yes"/>
      <point x="240" y="399"/>
      <point x="253" y="490" type="qcurve" smooth="yes"/>
      <point x="255" y="507"/>
      <point x="255" y="524" type="qcurve" smooth="yes"/>
      <point x="255" y="660"/>
    </contour>
  </outline>
</glyph>
<glyph name="ampersand" format="2">
  <advance width="696" height="696"/>
  <unicode hex="0026"/>
  <outline>
    <contour>
      <point x="660" y="4" type="line"/>
      <point x="583" y="-3" type="line"/>
      <point x="535" y="-3"/>
      <point x="496" y="33" type="qcurve"/>
      <point x="497" y="31"/>
      <point x="467" y="59" type="qcurve"/>
      <point x="387" y="-6"/>
      <point x="292" y="-10" type="qcurve" smooth="yes"/>
      <point x="286" y="-10"/>
      <point x="279" y="-10" type="qcurve" smooth="yes"/>
      <point x="171" y="-10"/>
      <point x="101" y="56" type="qcurve" smooth="yes"/>
      <point x="42" y="114"/>
      <point x="42" y="197" type="qcurve" smooth="yes"/>
      <point x="42" y="297"/>
      <point x="133" y="364" type="qcurve" smooth="yes"/>
      <point x="174" y="394"/>
      <point x="224" y="409" type="qcurve"/>
      <point x="157" y="504"/>
      <point x="157" y="564" type="qcurve" smooth="yes"/>
      <point x="157" y="650"/>
      <point x="227" y="691" type="qcurve" smooth="yes"/>
      <point x="265" y="713"/>
      <point x="313" y="713" type="qcurve" smooth="yes"/>
      <point x="407" y="713"/>
      <point x="452" y="649" type="qcurve" smooth="yes"/>
      <point x="477" y="613"/>
      <point x="477" y="564" type="qcurve" smooth="yes"/>
      <point x="477" y="466"/>
      <point x="365" y="402" type="qcurve"/>
      <point x="330" y="384" type="line"/>
      <point x="477" y="162" type="line"/>
      <point x="550" y="251"/>
      <point x="572" y="384" type="qcurve"/>
      <point x="648" y="369" type="line"/>
      <point x="615" y="216"/>
      <point x="518" y="109" type="qcurve"/>
      <point x="552" y="72"/>
      <point x="587" y="72" type="qcurve" smooth="yes"/>
      <point x="599" y="72"/>
      <point x="660" y="77" type="qcurve"/>
    </contour>
    <contour>
      <point x="411" y="560" type="qcurve" smooth="yes"/>
      <point x="411" y="614"/>
      <point x="361" y="638" type="qcurve" smooth="yes"/>
      <point x="340" y="648"/>
      <point x="315" y="648" type="qcurve" smooth="yes"/>
      <point x="265" y="648"/>
      <point x="242" y="607" type="qcurve"/>
      <point x="233" y="585" type="line" smooth="yes"/>
      <point x="231" y="577"/>
      <point x="231" y="567" type="qcurve" smooth="yes"/>
      <point x="231" y="524"/>
      <point x="294" y="434" type="qcurve"/>
      <point x="356" y="471"/>
      <point x="365" y="477" type="qcurve" smooth="yes"/>
      <point x="411" y="513"/>
    </contour>
    <contour>
      <point x="427" y="112" type="qcurve"/>
      <point x="258" y="356" type="line"/>
      <point x="169" y="318"/>
      <point x="144" y="268" type="qcurve" smooth="yes"/>
      <point x="130" y="240"/>
      <point x="130" y="203" type="qcurve" smooth="yes"/>
      <point x="130" y="102"/>
      <point x="216" y="69" type="qcurve" smooth="yes"/>
      <point x="249" y="56"/>
      <point x="290" y="56" type="qcurve" smooth="yes"/>
      <point x="371" y="56"/>
    </contour>
  </outline>
</glyph>
<glyph name="slash" format="2">
  <advance width="532" height="532"/>
  <unicode hex="002F"/>
  <outline>
    <contour>
      <point x="514" y="702" type="line"/>
      <point x="90" y="-175" type="line"/>
      <point x="22" y="-175" type="line"/>
      <point x="444" y="702" type="line"/>
    </contour>
  </outline>
</glyph>
<glyph name="zero" format="2">
  <advance width="614" height="614"/>
  <unicode hex="0030"/>
  <outline>
    <contour>
      <point x="573" y="348" type="qcurve" smooth="yes"/>
      <point x="573" y="206"/>
      <point x="507" y="102" type="qcurve" smooth="yes"/>
      <point x="434" y="-10"/>
      <point x="310" y="-10" type="qcurve" smooth="yes"/>
      <point x="164" y="-10"/>
      <point x="90" y="133" type="qcurve" smooth="yes"/>
      <point x="41" y="228"/>
      <point x="41" y="350" type="qcurve" smooth="yes"/>
      <point x="41" y="510"/>
      <point x="112" y="611" type="qcurve" smooth="yes"/>
      <point x="182" y="713"/>
      <point x="302" y="713" type="qcurve" smooth="yes"/>
      <point x="458" y="713"/>
      <point x="529" y="560" type="qcurve" smooth="yes"/>
      <point x="573" y="468"/>
    </contour>
    <contour>
      <point x="483" y="336" type="qcurve" smooth="yes"/>
      <point x="483" y="537"/>
      <point x="400" y="609" type="qcurve"/>
      <point x="376" y="627" type="line"/>
      <point x="343" y="645"/>
      <point x="302" y="645" type="qcurve" smooth="yes"/>
      <point x="176" y="645"/>
      <point x="142" y="473" type="qcurve" smooth="yes"/>
      <point x="131" y="420"/>
      <point x="131" y="356" type="qcurve" smooth="yes"/>
      <point x="131" y="162"/>
      <point x="214" y="91" type="qcurve" smooth="yes"/>
      <point x="254" y="57"/>
      <point x="310" y="57" type="qcurve" smooth="yes"/>
      <point x="428" y="57"/>
      <point x="468" y="207" type="qcurve" smooth="yes"/>
      <point x="483" y="266"/>
    </contour>
  </outline>
</glyph>
<glyph name="four" format="2">
  <advance width="614" height="614"/>
  <unicode hex="0034"/>
  <outline>
    <contour>
      <point x="581" y="164" type="line"/>
      <point x="466" y="164" type="line"/>
      <point x="466" y="0" type="line"/>
      <point x="381" y="0" type="line"/>
      <point x="381" y="164" type="line"/>
      <point x="35" y="164" type="line"/>
      <point x="35" y="222" type="line"/>
      <point x="356" y="702" type="line"/>
      <point x="466" y="702" type="line"/>
      <point x="466" y="231" type="line"/>
      <point x="581" y="231" type="line"/>
    </contour>
    <contour>
      <point x="381" y="231" type="line"/>
      <point x="381" y="634" type="line"/>
      <point x="126" y="231" type="line"/>
    </contour>
  </outline>
</glyph>
<glyph name="five" format="2">
  <advance width="614" height="614"/>
  <unicode hex="0035"/>
  <outline>
    <contour>
      <point x="565" y="238" type="qcurve" smooth="yes"/>
      <point x="565" y="110"/>
      <point x="466" y="40" type="qcurve" smooth="yes"/>
      <point x="393" y="-10"/>
      <point x="295" y="-10" type="qcurve" smooth="yes"/>
      <point x="188" y="-10"/>
      <point x="113" y="56" type="qcurve" smooth="yes"/>
      <point x="66" y="98"/>
      <point x="49" y="156" type="qcurve"/>
      <point x="125" y="181" type="line"/>
      <point x="160" y="86"/>
      <point x="251" y="65" type="qcurve" smooth="yes"/>
      <point x="273" y="59"/>
      <point x="297" y="59" type="qcurve" smooth="yes"/>
      <point x="408" y="59"/>
      <point x="456" y="139" type="qcurve" smooth="yes"/>
      <point x="480" y="181"/>
      <point x="480" y="239" type="qcurve" smooth="yes"/>
      <point x="480" y="329"/>
      <point x="413" y="377" type="qcurve" smooth="yes"/>
      <point x="371" y="406"/>
      <point x="315" y="406" type="qcurve" smooth="yes"/>
      <point x="224" y="406"/>
      <point x="165" y="332" type="qcurve" smooth="yes"/>
      <point x="157" y="322"/>
      <point x="150" y="310" type="qcurve"/>
      <point x="80" y="325" type="line"/>
      <point x="103" y="702" type="line"/>
      <point x="519" y="702" type="line"/>
      <point x="512" y="627" type="line"/>
      <point x="167" y="627" type="line"/>
      <point x="152" y="400" type="line"/>
      <point x="229" y="476"/>
      <point x="321" y="476" type="qcurve" smooth="yes"/>
      <point x="434" y="476"/>
      <point x="506" y="396" type="qcurve" smooth="yes"/>
      <point x="565" y="330"/>
    </contour>
  </outline>
</glyph>
<glyph name="seven" format="2">
  <advance width="614" height="614"/>
  <unicode hex="0037"/>
  <outline>
    <contour>
      <point x="544" y="649" type="line"/>
      <point x="294" y="348"/>
      <point x="294" y="0" type="qcurve"/>
      <point x="204" y="0" type="line"/>
      <point x="203" y="230"/>
      <point x="329" y="452" type="qcurve" smooth="yes"/>
      <point x="381" y="544"/>
      <point x="452" y="626" type="qcurve"/>
      <point x="71" y="626" type="line"/>
      <point x="80" y="702" type="line"/>
      <point x="544" y="702" type="line"/>
    </contour>
  </outline>
</glyph>
<glyph name="greater" format="2">
  <advance width="614" height="614"/>
  <unicode hex="003E"/>
  <outline>
    <contour>
      <point x="557" y="278" type="line"/>
      <point x="56" y="66" type="line"/>
      <point x="56" y="129" type="line"/>
      <point x="457" y="295" type="line"/>
      <point x="56" y="461" type="line"/>
      <point x="56" y="524" type="line"/>
      <point x="557" y="312" type="line"/>
    </contour>
  </outline>
</glyph>
<glyph name="at" format="2">
  <advance width="819" height="819"/>
  <unicode hex="0040"/>
  <outline>
    <contour>
      <point x="783" y="418" type="qcurve" smooth="yes"/>
      <point x="783" y="319"/>
      <point x="724" y="239" type="qcurve" smooth="yes"/>
      <point x="670" y="167"/>
      <point x="594" y="156" type="qcurve" smooth="yes"/>
      <point x="581" y="154"/>
      <point x="568" y="154" type="qcurve" smooth="yes"/>
      <point x="483" y="154"/>
      <point x="471" y="209" type="qcurve" smooth="yes"/>
      <point x="470" y="212"/>
      <point x="470" y="215" type="qcurve"/>
      <point x="424" y="172"/>
      <point x="396" y="162" type="qcurve" smooth="yes"/>
      <point x="377" y="156"/>
      <point x="354" y="156" type="qcurve" smooth="yes"/>
      <point x="283" y="156"/>
      <point x="244" y="221" type="qcurve" smooth="yes"/>
      <point x="221" y="260"/>
      <point x="221" y="305" type="qcurve" smooth="yes"/>
      <point x="221" y="394"/>
      <point x="285" y="466" type="qcurve" smooth="yes"/>
      <point x="348" y="538"/>
      <point x="431" y="538" type="qcurve" smooth="yes"/>
      <point x="478" y="538"/>
      <point x="512" y="499" type="qcurve" smooth="yes"/>
      <point x="527" y="482"/>
      <point x="532" y="463" type="qcurve"/>
      <point x="551" y="517" type="line"/>
      <point x="618" y="517" type="line"/>
      <point x="547" y="302" type="line"/>
      <point x="535" y="253" type="line"/>
      <point x="535" y="250" type="line"/>
      <point x="540" y="214"/>
      <point x="573" y="211" type="qcurve" smooth="yes"/>
      <point x="640" y="211"/>
      <point x="687" y="288" type="qcurve" smooth="yes"/>
      <point x="721" y="343"/>
      <point x="721" y="398" type="qcurve" smooth="yes"/>
      <point x="721" y="510"/>
      <point x="620" y="586" type="qcurve" smooth="yes"/>
      <point x="530" y="653"/>
      <point x="421" y="653" type="qcurve" smooth="yes"/>
      <point x="313" y="653"/>
      <point x="217" y="565" type="qcurve" smooth="yes"/>
      <point x="124" y="480"/>
      <point x="108" y="373" type="qcurve" smooth="yes"/>
      <point x="104" y="354"/>
      <point x="104" y="337" type="qcurve" smooth="yes"/>
      <point x="104" y="202"/>
      <point x="211" y="119" type="qcurve" smooth="yes"/>
      <point x="299" y="51"/>
      <point x="418" y="51" type="qcurve" smooth="yes"/>
      <point x="494" y="51"/>
      <point x="567" y="80" type="qcurve"/>
      <point x="591" y="25" type="line"/>
      <point x="492" y="-10"/>
      <point x="399" y="-10" type="qcurve" smooth="yes"/>
      <point x="255" y="-10"/>
      <point x="150" y="78" type="qcurve" smooth="yes"/>
      <point x="36" y="173"/>
      <point x="35" y="322" type="qcurve" smooth="yes"/>
      <point x="35" y="476"/>
      <point x="144" y="589" type="qcurve" smooth="yes"/>
      <point x="250" y="697"/>
      <point x="399" y="711" type="qcurve" smooth="yes"/>
      <point x="419" y="713"/>
      <point x="437" y="713" type="qcurve" smooth="yes"/>
      <point x="563" y="713"/>
      <point x="665" y="638" type="qcurve"/>
      <point x="779" y="545"/>
    </contour>
    <contour>
      <point x="429" y="476" type="qcurve" smooth="yes"/>
      <point x="360" y="476"/>
      <point x="321" y="400" type="qcurve" smooth="yes"/>
      <point x="296" y="354"/>
      <point x="296" y="305" type="qcurve" smooth="yes"/>
      <point x="296" y="255"/>
      <point x="332" y="225" type="qcurve" smooth="yes"/>
      <point x="351" y="209"/>
      <point x="377" y="209" type="qcurve" smooth="yes"/>
      <point x="439" y="209"/>
      <point x="478" y="300" type="qcurve" smooth="yes"/>
      <point x="503" y="357"/>
      <point x="503" y="409" type="qcurve"/>
      <point x="498" y="473"/>
    </contour>
  </outline>
</glyph>
<glyph name="B" format="2">
  <advance width="634" height="634"/>
  <unicode hex="0042"/>
  <outline>
    <contour>
      <point x="588" y="194" type="qcurve" smooth="yes"/>
      <point x="588" y="98"/>
      <point x="520" y="45" type="qcurve" smooth="yes"/>
      <point x="466" y="2"/>
      <point x="370" y="0" type="qcurve" smooth="yes"/>
      <point x="347" y="0" type="line"/>
      <point x="83" y="0" type="line"/>
      <point x="83" y="702" type="line"/>
      <point x="348" y="702" type="line" smooth="yes"/>
      <point x="433" y="702"/>
      <point x="477" y="679" type="qcurve" smooth="yes"/>
      <point x="484" y="675"/>
      <point x="493" y="670" type="qcurve" smooth="yes"/>
      <point x="565" y="621"/>
      <point x="566" y="531" type="qcurve" smooth="yes"/>
      <point x="566" y="439"/>
      <point x="494" y="394" type="qcurve"/>
      <point x="462" y="380" type="line" smooth="yes"/>
      <point x="453" y="376"/>
      <point x="442" y="374" type="qcurve"/>
      <point x="442" y="372" type="line"/>
      <point x="530" y="353"/>
      <point x="568" y="276" type="qcurve" smooth="yes"/>
      <point x="588" y="239"/>
    </contour>
    <contour>
      <point x="479" y="520" type="qcurve" smooth="yes"/>
      <point x="479" y="617"/>
      <point x="370" y="630" type="qcurve" smooth="yes"/>
      <point x="356" y="631"/>
      <point x="341" y="631" type="qcurve" smooth="yes"/>
      <point x="171" y="631" type="line"/>
      <point x="171" y="401" type="line"/>
      <point x="317" y="401" type="line" smooth="yes"/>
      <point x="479" y="401"/>
    </contour>
    <contour>
      <point x="500" y="198" type="qcurve" smooth="yes"/>
      <point x="500" y="262"/>
      <point x="454" y="303" type="qcurve" smooth="yes"/>
      <point x="452" y="305"/>
      <point x="449" y="307" type="qcurve" smooth="yes"/>
      <point x="414" y="334"/>
      <point x="338" y="334" type="qcurve" smooth="yes"/>
      <point x="171" y="334" type="line"/>
      <point x="171" y="75" type="line"/>
      <point x="343" y="75" type="line" smooth="yes"/>
      <point x="476" y="75"/>
      <point x="497" y="166" type="qcurve" smooth="yes"/>
      <point x="500" y="180"/>
    </contour>
  </outline>
</glyph>
<glyph name="D" format="2">
  <advance width="675" height="675"/>
  <unicode hex="0044"/>
  <outline>
    <contour>
      <point x="636" y="353" type="qcurve" smooth="yes"/>
      <point x="636" y="194"/>
      <point x="550" y="93" type="qcurve" smooth="yes"/>
      <point x="469" y="0"/>
      <point x="338" y="0" type="qcurve" smooth="yes"/>
      <point x="87" y="0" type="line"/>
      <point x="87" y="702" type="line"/>
      <point x="309" y="702" type="line" smooth="yes"/>
      <point x="437" y="702"/>
      <point x="512" y="642" type="qcurve" smooth="yes"/>
      <point x="532" y="626"/>
      <point x="551" y="603" type="qcurve" smooth="yes"/>
      <point x="636" y="504"/>
    </contour>
    <contour>
      <point x="547" y="353" type="qcurve" smooth="yes"/>
      <point x="547" y="477"/>
      <point x="482" y="557" type="qcurve" smooth="yes"/>
      <point x="432" y="620"/>
      <point x="344" y="628" type="qcurve"/>
      <point x="304" y="629" type="line"/>
      <point x="175" y="629" type="line"/>
      <point x="175" y="75" type="line"/>
      <point x="304" y="75" type="line" smooth="yes"/>
      <point x="421" y="75"/>
      <point x="478" y="140" type="qcurve" smooth="yes"/>
      <point x="487" y="151"/>
      <point x="496" y="164" type="qcurve" smooth="yes"/>
      <point x="547" y="242"/>
    </contour>
  </outline>
</glyph>
<glyph name="J" format="2">
  <advance width="409" height="409"/>
  <unicode hex="004A"/>
  <outline>
    <contour>
      <point x="331" y="229" type="line" smooth="yes"/>
      <point x="331" y="42"/>
      <point x="207" y="2" type="qcurve" smooth="yes"/>
      <point x="169" y="-10"/>
      <point x="120" y="-10" type="qcurve" smooth="yes"/>
      <point x="69" y="-10"/>
      <point x="17" y="4" type="qcurve"/>
      <point x="17" y="76" type="line"/>
      <point x="67" y="66"/>
      <point x="108" y="66" type="qcurve" smooth="yes"/>
      <point x="203" y="66"/>
      <point x="227" y="118" type="qcurve" smooth="yes"/>
      <point x="243" y="150"/>
      <point x="243" y="229" type="qcurve" smooth="yes"/>
      <point x="243" y="702" type="line"/>
      <point x="331" y="702" type="line"/>
    </contour>
  </outline>
</glyph>
<glyph name="K" format="2">
  <advance width="634" height="634"/>
  <unicode hex="004B"/>
  <outline>
    <contour>
      <point x="643" y="0" type="line"/>
      <point x="546" y="0" type="line"/>
      <point x="337" y="387" type="line"/>
      <point x="176" y="187" type="line"/>
      <point x="176" y="0" type="line"/>
      <point x="88" y="0" type="line"/>
      <point x="88" y="702" type="line"/>
      <point x="176" y="702" type="line"/>
      <point x="176" y="295" type="line"/>
      <point x="493" y="702" type="line"/>
      <point x="588" y="702" type="line"/>
      <point x="398" y="457" type="line"/>
    </contour>
  </outline>
</glyph>
<glyph name="P" format="2">
  <advance width="573" height="573"/>
  <unicode hex="0050"/>
  <outline>
    <contour>
      <point x="542" y="492" type="qcurve" smooth="yes"/>
      <point x="542" y="408"/>
      <point x="485" y="348" type="qcurve" smooth="yes"/>
      <point x="480" y="343" type="line" smooth="yes"/>
      <point x="422" y="286"/>
      <point x="311" y="286" type="qcurve" smooth="yes"/>
      <point x="154" y="286" type="line"/>
      <point x="154" y="0" type="line"/>
      <point x="66" y="0" type="line"/>
      <point x="66" y="702" type="line"/>
      <point x="301" y="702" type="line" smooth="yes"/>
      <point x="414" y="702"/>
      <point x="470" y="655" type="qcurve" smooth="yes"/>
      <point x="530" y="605"/>
      <point x="541" y="515" type="qcurve" smooth="yes"/>
      <point x="542" y="503"/>
    </contour>
    <contour>
      <point x="453" y="492" type="qcurve" smooth="yes"/>
      <point x="453" y="590"/>
      <point x="370" y="620" type="qcurve" smooth="yes"/>
      <point x="342" y="629"/>
      <point x="308" y="629" type="qcurve" smooth="yes"/>
      <point x="154" y="629" type="line"/>
      <point x="154" y="358" type="line"/>
      <point x="302" y="358" type="line" smooth="yes"/>
      <point x="412" y="358"/>
      <point x="442" y="435" type="qcurve" smooth="yes"/>
      <point x="453" y="460"/>
    </contour>
  </outline>
</glyph>
<glyph name="R" format="2">
  <advance width="634" height="634"/>
  <unicode hex="0052"/>
  <outline>
    <contour>
      <point x="588" y="0" type="line"/>
      <point x="496" y="0" type="line"/>
      <point x="366" y="304" type="line"/>
      <point x="171" y="304" type="line"/>
      <point x="171" y="0" type="line"/>
      <point x="83" y="0" type="line"/>
      <point x="83" y="702" type="line"/>
      <point x="346" y="702" type="line" smooth="yes"/>
      <point x="481" y="702"/>
      <point x="544" y="624" type="qcurve" smooth="yes"/>
      <point x="573" y="586"/>
      <point x="580" y="532" type="qcurve" smooth="yes"/>
      <point x="581" y="520"/>
      <point x="581" y="506" type="qcurve" smooth="yes"/>
      <point x="581" y="415"/>
      <point x="515" y="359" type="qcurve" smooth="yes"/>
      <point x="486" y="336"/>
      <point x="450" y="326" type="qcurve"/>
    </contour>
    <contour>
      <point x="493" y="507" type="qcurve" smooth="yes"/>
      <point x="493" y="612"/>
      <point x="377" y="625" type="qcurve" smooth="yes"/>
      <point x="362" y="627"/>
      <point x="346" y="627" type="qcurve" smooth="yes"/>
      <point x="171" y="627" type="line"/>
      <point x="171" y="376" type="line"/>
      <point x="336" y="376" type="line" smooth="yes"/>
      <point x="465" y="376"/>
      <point x="487" y="467" type="qcurve" smooth="yes"/>
      <point x="493" y="485"/>
    </contour>
  </outline>
</glyph>
<glyph name="T" format="2">
  <advance width="512" height="512"/>
  <unicode hex="0054"/>
  <outline>
    <contour>
      <point x="499" y="626" type="line"/>
      <point x="299" y="626" type="line"/>
      <point x="299" y="0" type="line"/>
      <point x="211" y="0" type="line"/>
      <point x="211" y="626" type="line"/>
      <point x="11" y="626" type="line"/>
      <point x="11" y="702" type="line"/>
      <point x="499" y="702" type="line"/>
    </contour>
  </outline>
</glyph>
<glyph name="V" format="2">
  <advance width="573" height="573"/>
  <unicode hex="0056"/>
  <outline>
    <contour>
      <point x="569" y="702" type="line"/>
      <point x="332" y="0" type="line"/>
      <point x="248" y="0" type="line"/>
      <point x="10" y="702" type="line"/>
      <point x="102" y="702" type="line"/>
      <point x="298" y="123" type="line"/>
      <point x="493" y="702" type="line"/>
    </contour>
  </outline>
</glyph>
<glyph name="Z" format="2">
  <advance width="552" height="552"/>
  <unicode hex="005A"/>
  <outline>
    <contour>
      <point x="513" y="0" type="line"/>
      <point x="17" y="0" type="line"/>
      <point x="17" y="76" type="line"/>
      <point x="399" y="630" type="line"/>
      <point x="35" y="630" type="line"/>
      <point x="35" y="702" type="line"/>
      <point x="502" y="702" type="line"/>
      <point x="502" y="644" type="line"/>
      <point x="116" y="76" type="line"/>
      <point x="513" y="76" type="line"/>
    </contour>
  </outline>
</glyph>
<glyph name="backslash" format="2">
  <advance width="532" height="532"/>
  <unicode hex="005C"/>
  <outline>
    <contour>
      <point x="593" y="-175" type="line"/>
      <point x="524" y="-175" type="line"/>
      <point x="100" y="702" type="line"/>
      <point x="170" y="702" type="line"/>
    </contour>
  </outline>
</glyph>
<glyph name="b" format="2">
  <advance width="552" height="552"/>
  <unicode hex="0062"/>
  <outline>
    <contour>
      <point x="509" y="267" type="qcurve" smooth="yes"/>
      <point x="509" y="136"/>
      <point x="441" y="57" type="qcurve" smooth="yes"/>
      <point x="384" y="-10"/>
      <point x="292" y="-10" type="qcurve" smooth="yes"/>
      <point x="209" y="-10"/>
      <point x="153" y="58" type="qcurve" smooth="yes"/>
      <point x="141" y="73"/>
      <point x="132" y="89" type="qcurve"/>
      <point x="102" y="0" type="line"/>
      <point x="63" y="0" type="line"/>
      <point x="63" y="702" type="line"/>
      <point x="143" y="702" type="line"/>
      <point x="143" y="434" type="line"/>
      <point x="147" y="434" type="line"/>
      <point x="200" y="534"/>
      <point x="300" y="534" type="qcurve" smooth="yes"/>
      <point x="420" y="534"/>
      <point x="476" y="419" type="qcurve" smooth="yes"/>
      <point x="509" y="351"/>
    </contour>
    <contour>
      <point x="423" y="254" type="qcurve" smooth="yes"/>
      <point x="423" y="382"/>
      <point x="365" y="438" type="qcurve"/>
      <point x="344" y="454" type="line" smooth="yes"/>
      <point x="318" y="469"/>
      <point x="286" y="469" type="qcurve" smooth="yes"/>
      <point x="218" y="469"/>
      <point x="173" y="404" type="qcurve" smooth="yes"/>
      <point x="143" y="360"/>
      <point x="143" y="310" type="qcurve" smooth="yes"/>
      <point x="143" y="218" type="line" smooth="yes"/>
      <point x="143" y="133"/>
      <point x="199" y="86" type="qcurve" smooth="yes"/>
      <point x="234" y="54"/>
      <point x="286" y="54" type="qcurve" smooth="yes"/>
      <point x="380" y="54"/>
      <point x="412" y="165" type="qcurve" smooth="yes"/>
      <point x="423" y="206"/>
    </contour>
  </outline>
</glyph>
<glyph name="g" format="2">
  <advance width="512" height="512"/>
  <unicode hex="0067"/>
  <outline>
    <contour>
      <point x="511" y="-47" type="qcurve" smooth="yes"/>
      <point x="511" y="-197"/>
      <point x="254" y="-197" type="qcurve" smooth="yes"/>
      <point x="12" y="-197"/>
      <point x="12" y="-61" type="qcurve" smooth="yes"/>
      <point x="12" y="16"/>
      <point x="91" y="44" type="qcurve"/>
      <point x="41" y="76"/>
      <point x="41" y="126" type="qcurve" smooth="yes"/>
      <point x="41" y="181"/>
      <point x="98" y="212" type="qcurve" smooth="yes"/>
      <point x="104" y="215"/>
      <point x="113" y="219" type="qcurve"/>
      <point x="45" y="272"/>
      <point x="45" y="356" type="qcurve" smooth="yes"/>
      <point x="45" y="453"/>
      <point x="128" y="503" type="qcurve" smooth="yes"/>
      <point x="179" y="534"/>
      <point x="245" y="534" type="qcurve" smooth="yes"/>
      <point x="302" y="534"/>
      <point x="350" y="511" type="qcurve"/>
      <point x="362" y="582"/>
      <point x="414" y="596" type="qcurve" smooth="yes"/>
      <point x="432" y="601"/>
      <point x="456" y="601" type="qcurve" smooth="yes"/>
      <point x="479" y="601"/>
      <point x="490" y="600" type="qcurve"/>
      <point x="492" y="536" type="line"/>
      <point x="430" y="536"/>
      <point x="411" y="518" type="qcurve" smooth="yes"/>
      <point x="399" y="504" type="line"/>
      <point x="392" y="481" type="line" smooth="yes"/>
      <point x="391" y="478"/>
      <point x="391" y="476" type="qcurve" smooth="yes"/>
      <point x="441" y="421"/>
      <point x="441" y="348" type="qcurve" smooth="yes"/>
      <point x="441" y="255"/>
      <point x="356" y="207" type="qcurve" smooth="yes"/>
      <point x="305" y="178"/>
      <point x="243" y="178" type="qcurve"/>
      <point x="173" y="186" type="line"/>
      <point x="172" y="186" type="line" smooth="yes"/>
      <point x="142" y="186"/>
      <point x="125" y="162" type="qcurve" smooth="yes"/>
      <point x="117" y="151"/>
      <point x="117" y="138" type="qcurve" smooth="yes"/>
      <point x="117" y="104"/>
      <point x="156" y="94" type="qcurve" smooth="yes"/>
      <point x="191" y="84"/>
      <point x="294" y="85" type="qcurve" smooth="yes"/>
      <point x="386" y="85"/>
      <point x="431" y="68" type="qcurve" smooth="yes"/>
      <point x="488" y="45"/>
      <point x="506" y="-12" type="qcurve" smooth="yes"/>
      <point x="511" y="-30"/>
    </contour>
    <contour>
      <point x="360" y="356" type="qcurve" smooth="yes"/>
      <point x="360" y="419"/>
      <point x="308" y="453" type="qcurve" smooth="yes"/>
      <point x="280" y="470"/>
      <point x="245" y="470" type="qcurve" smooth="yes"/>
      <point x="176" y="470"/>
      <point x="144" y="417" type="qcurve" smooth="yes"/>
      <point x="128" y="389"/>
      <point x="128" y="355" type="qcurve" smooth="yes"/>
      <point x="128" y="278"/>
      <point x="191" y="251" type="qcurve" smooth="yes"/>
      <point x="215" y="241"/>
      <point x="245" y="241" type="qcurve" smooth="yes"/>
      <point x="319" y="241"/>
      <point x="348" y="300" type="qcurve" smooth="yes"/>
      <point x="360" y="326"/>
    </contour>
    <contour>
      <point x="434" y="-50" type="qcurve" smooth="yes"/>
      <point x="434" y="9"/>
      <point x="315" y="11" type="qcurve" smooth="yes"/>
      <point x="272" y="12" type="line" smooth="yes"/>
      <point x="233" y="14"/>
      <point x="147" y="20" type="qcurve"/>
      <point x="91" y="-6"/>
      <point x="91" y="-50" type="qcurve" smooth="yes"/>
      <point x="91" y="-118"/>
      <point x="210" y="-131" type="qcurve" smooth="yes"/>
      <point x="232" y="-134"/>
      <point x="255" y="-134" type="qcurve" smooth="yes"/>
      <point x="404" y="-134"/>
      <point x="430" y="-74" type="qcurve" smooth="yes"/>
      <point x="434" y="-62"/>
    </contour>
  </outline>
</glyph>
<glyph name="h" format="2">
  <advance width="552" height="552"/>
  <unicode hex="0068"/>
  <outline>
    <contour>
      <point x="481" y="0" type="line"/>
      <point x="401" y="0" type="line"/>
      <point x="401" y="303" type="line" smooth="yes"/>
      <point x="401" y="406"/>
      <point x="370" y="440" type="qcurve"/>
      <point x="353" y="455" type="line"/>
      <point x="330" y="464" type="line" smooth="yes"/>
      <point x="315" y="468"/>
      <point x="297" y="468" type="qcurve" smooth="yes"/>
      <point x="238" y="468"/>
      <point x="191" y="413" type="qcurve"/>
      <point x="153" y="357"/>
      <point x="152" y="267" type="qcurve" smooth="yes"/>
      <point x="152" y="0" type="line"/>
      <point x="72" y="0" type="line"/>
      <point x="72" y="702" type="line"/>
      <point x="152" y="702" type="line"/>
      <point x="152" y="424" type="line"/>
      <point x="155" y="424" type="line"/>
      <point x="206" y="534"/>
      <point x="316" y="534" type="qcurve" smooth="yes"/>
      <point x="433" y="534"/>
      <point x="469" y="424" type="qcurve" smooth="yes"/>
      <point x="481" y="386"/>
      <point x="481" y="339" type="qcurve" smooth="yes"/>
    </contour>
  </outline>
</glyph>
<glyph name="m" format="2">
  <advance width="839" height="839"/>
  <unicode hex="006D"/>
  <outline>
    <contour>
      <point x="770" y="0" type="line"/>
      <point x="690" y="0" type="line"/>
      <point x="690" y="331" type="line" smooth="yes"/>
      <point x="690" y="442"/>
      <point x="621" y="464" type="qcurve" smooth="yes"/>
      <point x="606" y="468"/>
      <point x="589" y="468" type="qcurve" smooth="yes"/>
      <point x="530" y="468"/>
      <point x="488" y="410" type="qcurve" smooth="yes"/>
      <point x="461" y="369"/>
      <point x="460" y="298" type="qcurve" smooth="yes"/>
      <point x="460" y="281" type="line"/>
      <point x="460" y="0" type="line"/>
      <point x="380" y="0" type="line"/>
      <point x="380" y="330" type="line" smooth="yes"/>
      <point x="380" y="440"/>
      <point x="309" y="463" type="qcurve" smooth="yes"/>
      <point x="294" y="468"/>
      <point x="275" y="468" type="qcurve" smooth="yes"/>
      <point x="226" y="468"/>
      <point x="186" y="423" type="qcurve" smooth="yes"/>
      <point x="183" y="420"/>
      <point x="181" y="417" type="qcurve" smooth="yes"/>
      <point x="150" y="377"/>
      <point x="150" y="298" type="qcurve" smooth="yes"/>
      <point x="150" y="0" type="line"/>
      <point x="70" y="0" type="line"/>
      <point x="70" y="520" type="line"/>
      <point x="142" y="520" type="line"/>
      <point x="142" y="420" type="line"/>
      <point x="144" y="420" type="line"/>
      <point x="176" y="496"/>
      <point x="245" y="523" type="qcurve" smooth="yes"/>
      <point x="271" y="534"/>
      <point x="300" y="534" type="qcurve" smooth="yes"/>
      <point x="383" y="534"/>
      <point x="426" y="462" type="qcurve" smooth="yes"/>
      <point x="440" y="438"/>
      <point x="446" y="410" type="qcurve"/>
      <point x="482" y="499"/>
      <point x="561" y="525" type="qcurve" smooth="yes"/>
      <point x="587" y="534"/>
      <point x="614" y="534" type="qcurve" smooth="yes"/>
      <point x="682" y="534"/>
      <point x="729" y="481" type="qcurve"/>
      <point x="745" y="459" type="line"/>
      <point x="770" y="417"/>
      <point x="770" y="328" type="qcurve" smooth="yes"/>
    </contour>
  </outline>
</glyph>
<glyph name="q" format="2">
  <advance width="552" height="552"/>
  <unicode hex="0071"/>
  <outline>
    <contour>
      <point x="483" y="-170" type="line"/>
      <point x="403" y="-170" type="line"/>
      <point x="403" y="98" type="line"/>
      <point x="400" y="98" type="line"/>
      <point x="365" y="6"/>
      <point x="274" y="-8" type="qcurve" smooth="yes"/>
      <point x="260" y="-10"/>
      <point x="245" y="-10" type="qcurve" smooth="yes"/>
      <point x="120" y="-10"/>
      <point x="68" y="115" type="qcurve" smooth="yes"/>
      <point x="40" y="179"/>
      <point x="40" y="260" type="qcurve" smooth="yes"/>
      <point x="40" y="385"/>
      <point x="104" y="464" type="qcurve" smooth="yes"/>
      <point x="161" y="534"/>
      <point x="252" y="534" type="qcurve" smooth="yes"/>
      <point x="337" y="534"/>
      <point x="387" y="470" type="qcurve" smooth="yes"/>
      <point x="399" y="456"/>
      <point x="411" y="436" type="qcurve"/>
      <point x="442" y="520" type="line"/>
      <point x="483" y="520" type="line"/>
    </contour>
    <contour>
      <point x="402" y="246" type="qcurve" smooth="yes"/>
      <point x="402" y="290" type="line" smooth="yes"/>
      <point x="402" y="382"/>
      <point x="351" y="434" type="qcurve" smooth="yes"/>
      <point x="316" y="469"/>
      <point x="265" y="469" type="qcurve" smooth="yes"/>
      <point x="174" y="469"/>
      <point x="141" y="356" type="qcurve" smooth="yes"/>
      <point x="129" y="311"/>
      <point x="129" y="261" type="qcurve" smooth="yes"/>
      <point x="129" y="140"/>
      <point x="186" y="87" type="qcurve" smooth="yes"/>
      <point x="218" y="58"/>
      <point x="264" y="58" type="qcurve" smooth="yes"/>
      <point x="347" y="58"/>
      <point x="384" y="150" type="qcurve" smooth="yes"/>
      <point x="402" y="195"/>
    </contour>
  </outline>
</glyph>
<glyph name="r" format="2">
  <advance width="327" height="327"/>
  <unicode hex="0072"/>
  <outline>
    <contour>
      <point x="330" y="456" type="line"/>
      <point x="313" y="456" type="line" smooth="yes"/>
      <point x="217" y="456"/>
      <point x="175" y="365" type="qcurve" smooth="yes"/>
      <point x="154" y="318"/>
      <point x="154" y="262" type="qcurve" smooth="yes"/>
      <point x="154" y="0" type="line"/>
      <point x="74" y="0" type="line"/>
      <point x="74" y="520" type="line"/>
      <point x="145" y="520" type="line"/>
      <point x="145" y="398" type="line"/>
      <point x="147" y="398" type="line"/>
      <point x="195" y="535"/>
      <point x="291" y="535" type="qcurve" smooth="yes"/>
      <point x="303" y="535"/>
      <point x="330" y="532" type="qcurve"/>
    </contour>
  </outline>
</glyph>
<glyph name="s" format="2">
  <advance width="532" height="532"/>
  <unicode hex="0073"/>
  <outline>
    <contour>
      <point x="485" y="151" type="qcurve" smooth="yes"/>
      <point x="485" y="47"/>
      <point x="376" y="7" type="qcurve" smooth="yes"/>
      <point x="328" y="-10"/>
      <point x="269" y="-10" type="qcurve" smooth="yes"/>
      <point x="138" y="-10"/>
      <point x="76" y="68" type="qcurve" smooth="yes"/>
      <point x="51" y="98"/>
      <point x="41" y="138" type="qcurve"/>
      <point x="119" y="154" type="line"/>
      <point x="129" y="87"/>
      <point x="215" y="65" type="qcurve" smooth="yes"/>
      <point x="245" y="56"/>
      <point x="275" y="56" type="qcurve" smooth="yes"/>
      <point x="360" y="56"/>
      <point x="390" y="101" type="qcurve" smooth="yes"/>
      <point x="401" y="119"/>
      <point x="401" y="142" type="qcurve" smooth="yes"/>
      <point x="401" y="193"/>
      <point x="333" y="213" type="qcurve"/>
      <point x="262" y="228" type="line" smooth="yes"/>
      <point x="158" y="247"/>
      <point x="120" y="270" type="qcurve" smooth="yes"/>
      <point x="62" y="307"/>
      <point x="62" y="381" type="qcurve" smooth="yes"/>
      <point x="62" y="476"/>
      <point x="159" y="515" type="qcurve" smooth="yes"/>
      <point x="203" y="534"/>
      <point x="257" y="534" type="qcurve" smooth="yes"/>
      <point x="394" y="534"/>
      <point x="445" y="445" type="qcurve" smooth="yes"/>
      <point x="457" y="426"/>
      <point x="463" y="402" type="qcurve"/>
      <point x="389" y="387" type="line"/>
      <point x="364" y="459"/>
      <point x="276" y="468" type="qcurve" smooth="yes"/>
      <point x="266" y="469"/>
      <point x="256" y="469" type="qcurve" smooth="yes"/>
      <point x="184" y="469"/>
      <point x="157" y="430" type="qcurve" smooth="yes"/>
      <point x="145" y="415"/>
      <point x="145" y="393" type="qcurve" smooth="yes"/>
      <point x="145" y="342"/>
      <point x="217" y="322" type="qcurve" smooth="yes"/>
      <point x="226" y="318"/>
      <point x="326" y="301" type="qcurve" smooth="yes"/>
      <point x="393" y="289"/>
      <point x="423" y="268" type="qcurve" smooth="yes"/>
      <point x="485" y="226"/>
    </contour>
  </outline>
</glyph>
<glyph name="t" format="2">
  <advance width="327" height="327"/>
  <unicode hex="0074"/>
  <outline>
    <contour>
      <point x="319" y="-4" type="line"/>
      <point x="225" y="-11" type="line"/>
      <point x="95" y="-11"/>
      <point x="95" y="160" type="qcurve" smooth="yes"/>
      <point x="95" y="461" type="line"/>
      <point x="3" y="461" type="line"/>
      <point x="3" y="524" type="line"/>
      <point x="95" y="524" type="line"/>
      <point x="95" y="653" type="line"/>
      <point x="175" y="662" type="line"/>
      <point x="175" y="524" type="line"/>
      <point x="291" y="524" type="line"/>
      <point x="291" y="461" type="line"/>
      <point x="175" y="461" type="line"/>
      <point x="175" y="146" type="line"/>
      <point x="184" y="58"/>
      <point x="246" y="53" type="qcurve"/>
      <point x="246" y="53"/>
      <point x="319" y="59" type="qcurve"/>
    </contour>
  </outline>
</glyph>
<glyph name="w" format="2">
  <advance width="675" height="675"/>
  <unicode hex="0077"/>
  <outline>
    <contour>
      <point x="664" y="520" type="line"/>
      <point x="514" y="0" type="line"/>
      <point x="449" y="0" type="line"/>
      <point x="333" y="386" type="line"/>
      <point x="226" y="0" type="line"/>
      <point x="160" y="0" type="line"/>
      <point x="4" y="520" type="line"/>
      <point x="85" y="520" type="line"/>
      <point x="198" y="132" type="line"/>
      <point x="306" y="520" type="line"/>
      <point x="365" y="520" type="line"/>
      <point x="481" y="131" type="line"/>
      <point x="598" y="520" type="line"/>
    </contour>
  </outline>
</glyph>
<glyph name="x" format="2">
  <advance width="450" height="450"/>
  <unicode hex="0078"/>
  <outline>
    <contour>
      <point x="449" y="0" type="line"/>
      <point x="354" y="0" type="line"/>
      <point x="223" y="211" type="line"/>
      <point x="87" y="0" type="line"/>
      <point x="8" y="0" type="line"/>
      <point x="183" y="269" type="line"/>
      <point x="26" y="520" type="line"/>
      <point x="119" y="520" type="line"/>
      <point x="229" y="342" type="line"/>
      <point x="343" y="520" type="line"/>
      <point x="421" y="520" type="line"/>
      <point x="269" y="287" type="line"/>
    </contour>
  </outline>
</glyph>
<glyph name="bar" format="2">
  <advance width="266" height="266"/>
  <unicode hex="007C"/>
  <outline>
    <contour>
      <point x="164" y="-256" type="line"/>
      <point x="102" y="-256" type="line"/>
      <point x="102" y="768" type="line"/>
      <point x="164" y="768" type="line"/>
    </contour>
  </outline>
</glyph>
<glyph name="braceright" format="2">
  <advance width="307" height="307"/>
  <unicode hex="007D"/>
  <outline>
    <contour>
      <point x="272" y="238" type="line"/>
      <point x="207" y="225"/>
      <point x="195" y="159" type="qcurve" smooth="yes"/>
      <point x="191" y="137"/>
      <point x="191" y="101" type="qcurve" smooth="yes"/>
      <point x="193" y="-57" type="line"/>
      <point x="193" y="-58" type="line" smooth="yes"/>
      <point x="193" y="-105"/>
      <point x="160" y="-144" type="qcurve" smooth="yes"/>
      <point x="136" y="-171"/>
      <point x="109" y="-172" type="qcurve" smooth="yes"/>
      <point x="34" y="-175" type="line"/>
      <point x="34" y="-115" type="line"/>
      <point x="86" y="-108"/>
      <point x="93" y="-104" type="qcurve" smooth="yes"/>
      <point x="116" y="-94"/>
      <point x="116" y="-49" type="qcurve" smooth="yes"/>
      <point x="115" y="117" type="line"/>
      <point x="115" y="118" type="line" smooth="yes"/>
      <point x="115" y="213"/>
      <point x="189" y="269" type="qcurve"/>
      <point x="117" y="323"/>
      <point x="115" y="420" type="qcurve" smooth="yes"/>
      <point x="116" y="586" type="line" smooth="yes"/>
      <point x="116" y="635"/>
      <point x="91" y="644" type="qcurve"/>
      <point x="61" y="648" type="line"/>
      <point x="34" y="650" type="line"/>
      <point x="34" y="713" type="line"/>
      <point x="109" y="710" type="line" smooth="yes"/>
      <point x="151" y="708"/>
      <point x="178" y="652" type="qcurve" smooth="yes"/>
      <point x="193" y="623"/>
      <point x="193" y="596" type="qcurve" smooth="yes"/>
      <point x="191" y="433" type="line"/>
      <point x="191" y="432" type="line" smooth="yes"/>
      <point x="191" y="353"/>
      <point x="219" y="327" type="qcurve" smooth="yes"/>
      <point x="238" y="308"/>
      <point x="272" y="301" type="qcurve"/>
    </contour>
  </outline>
</glyph>
<glyph name="currency" format="2">
  <advance width="614" height="614"/>
  <unicode hex="00A4"/>
  <outline>
    <contour>
      <point x="523" y="500" type="line"/>
      <point x="464" y="443" type="line"/>
      <point x="494" y="397"/>
      <point x="494" y="350" type="qcurve" smooth="yes"/>
      <point x="494" y="307"/>
      <point x="460" y="248" type="qcurve"/>
      <point x="518" y="189" type="line"/>
      <point x="459" y="133" type="line"/>
      <point x="404" y="189" type="line"/>
      <point x="353" y="156"/>
      <point x="304" y="156" type="qcurve" smooth="yes"/>
      <point x="262" y="156"/>
      <point x="207" y="181" type="qcurve"/>
      <point x="152" y="129" type="line"/>
      <point x="95" y="189" type="line"/>
      <point x="145" y="242" type="line"/>
      <point x="113" y="283"/>
      <point x="113" y="347" type="qcurve" smooth="yes"/>
      <point x="113" y="417"/>
      <point x="151" y="447" type="qcurve"/>
      <point x="91" y="509" type="line"/>
      <point x="146" y="567" type="line"/>
      <point x="206" y="507" type="line"/>
      <point x="265" y="536"/>
      <point x="306" y="536" type="qcurve" smooth="yes"/>
      <point x="348" y="536"/>
      <point x="406" y="507" type="qcurve"/>
      <point x="463" y="562" type="line"/>
    </contour>
    <contour>
      <point x="406" y="348" type="qcurve" smooth="yes"/>
      <point x="406" y="412"/>
      <point x="351" y="438" type="qcurve" smooth="yes"/>
      <point x="328" y="450"/>
      <point x="299" y="450" type="qcurve" smooth="yes"/>
      <point x="232" y="450"/>
      <point x="207" y="395" type="qcurve" smooth="yes"/>
      <point x="196" y="373"/>
      <point x="196" y="345" type="qcurve" smooth="yes"/>
      <point x="196" y="278"/>
      <point x="251" y="251" type="qcurve" smooth="yes"/>
      <point x="272" y="241"/>
      <point x="299" y="241" type="qcurve" smooth="yes"/>
      <point x="367" y="241"/>
      <point x="394" y="296" type="qcurve" smooth="yes"/>
      <point x="406" y="319"/>
    </contour>
  </outline>
</glyph>
<glyph name="ordfeminine" format="2">
  <advance width="368" height="368"/>
  <unicode hex="00AA"/>
  <outline>
    <contour>
      <point x="333" y="388" type="qcurve"/>
      <point x="268" y="388" type="line"/>
      <point x="268" y="432" type="line"/>
      <point x="236" y="384"/>
      <point x="155" y="384" type="qcurve" smooth="yes"/>
      <point x="83" y="384"/>
      <point x="51" y="429" type="qcurve" smooth="yes"/>
      <point x="37" y="451"/>
      <point x="37" y="479" type="qcurve" smooth="yes"/>
      <point x="37" y="591"/>
      <point x="231" y="596" type="qcurve" smooth="yes"/>
      <point x="244" y="596"/>
      <point x="260" y="596" type="qcurve"/>
      <point x="260" y="618" type="line" smooth="yes"/>
      <point x="260" y="663"/>
      <point x="187" y="663" type="qcurve" smooth="yes"/>
      <point x="118" y="663"/>
      <point x="105" y="625" type="qcurve" smooth="yes"/>
      <point x="104" y="623"/>
      <point x="104" y="621" type="qcurve"/>
      <point x="46" y="627" type="line"/>
      <point x="55" y="695"/>
      <point x="154" y="710" type="qcurve" smooth="yes"/>
      <point x="172" y="713"/>
      <point x="191" y="713" type="qcurve" smooth="yes"/>
      <point x="283" y="713"/>
      <point x="308" y="666" type="qcurve"/>
      <point x="317" y="639" type="line" smooth="yes"/>
      <point x="324" y="614"/>
      <point x="324" y="579" type="qcurve" smooth="yes"/>
      <point x="324" y="452"/>
      <point x="329" y="414" type="qcurve" smooth="yes"/>
      <point x="331" y="400"/>
    </contour>
    <contour>
      <point x="260" y="526" type="qcurve" smooth="yes"/>
      <point x="260" y="549" type="line"/>
      <point x="223" y="549" type="line"/>
      <point x="101" y="545"/>
      <point x="97" y="479" type="qcurve" smooth="yes"/>
      <point x="97" y="446"/>
      <point x="146" y="436" type="qcurve" smooth="yes"/>
      <point x="158" y="434"/>
      <point x="168" y="434" type="qcurve" smooth="yes"/>
      <point x="212" y="434"/>
      <point x="242" y="475" type="qcurve" smooth="yes"/>
      <point x="260" y="500"/>
    </contour>
  </outline>
</glyph>
<glyph name="paragraph" format="2">
  <advance width="552" height="552"/>
  <unicode hex="00B6"/>
  <outline>
    <contour>
      <point x="519" y="636" type="line"/>
      <point x="460" y="636" type="line"/>
      <point x="460" y="-193" type="line"/>
      <point x="393" y="-193" type="line"/>
      <point x="393" y="636" type="line"/>
      <point x="310" y="636" type="line"/>
      <point x="310" y="-193" type="line"/>
      <point x="244" y="-193" type="line"/>
      <point x="244" y="220" type="line"/>
      <point x="163" y="231"/>
      <point x="127" y="257" type="qcurve" smooth="yes"/>
      <point x="101" y="275"/>
      <point x="78" y="310" type="qcurve" smooth="yes"/>
      <point x="33" y="376"/>
      <point x="33" y="454" type="qcurve" smooth="yes"/>
      <point x="33" y="503"/>
      <point x="52" y="553" type="qcurve" smooth="yes"/>
      <point x="82" y="630"/>
      <point x="155" y="673" type="qcurve" smooth="yes"/>
      <point x="203" y="702"/>
      <point x="253" y="702" type="qcurve" smooth="yes"/>
      <point x="519" y="702" type="line"/>
    </contour>
  </outline>
</glyph>
<glyph name="periodcentered" format="2">
  <advance width="245" height="245"/>
  <unicode hex="00B7"/>
  <outline>
    <contour>
      <point x="176" y="314" type="qcurve" smooth="yes"/>
      <point x="176" y="280"/>
      <point x="144" y="266" type="qcurve" smooth="yes"/>
      <point x="133" y="261"/>
      <point x="122" y="261" type="qcurve" smooth="yes"/>
      <point x="88" y="261"/>
      <point x="74" y="293" type="qcurve" smooth="yes"/>
      <point x="70" y="303"/>
      <point x="70" y="314" type="qcurve" smooth="yes"/>
      <point x="70" y="349"/>
      <point x="102" y="361" type="qcurve" smooth="yes"/>
      <point x="113" y="366"/>
      <point x="123" y="366" type="qcurve" smooth="yes"/>
      <point x="155" y="366"/>
      <point x="170" y="337" type="qcurve" smooth="yes"/>
      <point x="176" y="327"/>
    </contour>
  </outline>
</glyph>
<glyph name="onehalf" format="2">
  <advance width="921" height="921"/>
  <unicode hex="00BD"/>
  <outline>
    <contour>
      <point x="891" y="0" type="line"/>
      <point x="566" y="0" type="line"/>
      <point x="566" y="48" type="line"/>
      <point x="745" y="178" type="line" smooth="yes"/>
      <point x="818" y="231"/>
      <point x="826" y="284" type="qcurve" smooth="yes"/>
      <point x="828" y="293"/>
      <point x="828" y="302" type="qcurve" smooth="yes"/>
      <point x="828" y="356"/>
      <point x="770" y="376" type="qcurve"/>
      <point x="739" y="382" type="line"/>
      <point x="739" y="382"/>
      <point x="729" y="382" type="qcurve" smooth="yes"/>
      <point x="679" y="382"/>
      <point x="645" y="344" type="qcurve" smooth="yes"/>
      <point x="624" y="319"/>
      <point x="624" y="290" type="qcurve"/>
      <point x="566" y="304" type="line"/>
      <point x="587" y="392"/>
      <point x="671" y="419" type="qcurve" smooth="yes"/>
      <point x="698" y="428"/>
      <point x="731" y="428" type="qcurve" smooth="yes"/>
      <point x="809" y="428"/>
      <point x="856" y="381" type="qcurve" smooth="yes"/>
      <point x="890" y="348"/>
      <point x="890" y="302" type="qcurve" smooth="yes"/>
      <point x="890" y="214"/>
      <point x="795" y="151" type="qcurve" smooth="yes"/>
      <point x="643" y="48" type="line"/>
      <point x="891" y="48" type="line"/>
    </contour>
    <contour>
      <point x="739" y="702" type="line"/>
      <point x="314" y="0" type="line"/>
      <point x="240" y="0" type="line"/>
      <point x="665" y="702" type="line"/>
    </contour>
    <contour>
      <point x="350" y="281" type="line"/>
      <point x="31" y="281" type="line"/>
      <point x="31" y="328" type="line"/>
      <point x="163" y="328" type="line"/>
      <point x="163" y="638" type="line"/>
      <point x="112" y="582"/>
      <point x="41" y="549" type="qcurve"/>
      <point x="41" y="601" type="line"/>
      <point x="122" y="641"/>
      <point x="175" y="702" type="qcurve"/>
      <point x="226" y="702" type="line"/>
      <point x="226" y="328" type="line"/>
      <point x="350" y="328" type="line"/>
    </contour>
  </outline>
</glyph>
<glyph name="threequarters" format="2">
  <advance width="921" height="921"/>
  <unicode hex="00BE"/>
  <outline>
    <contour>
      <point x="891" y="98" type="line"/>
      <point x="824" y="98" type="line"/>
      <point x="824" y="0" type="line"/>
      <point x="761" y="0" type="line"/>
      <point x="761" y="98" type="line"/>
      <point x="529" y="98" type="line"/>
      <point x="529" y="133" type="line"/>
      <point x="738" y="422" type="line"/>
      <point x="824" y="422" type="line"/>
      <point x="824" y="145" type="line"/>
      <point x="891" y="145" type="line"/>
    </contour>
    <contour>
      <point x="761" y="145" type="line"/>
      <point x="761" y="367" type="line"/>
      <point x="601" y="145" type="line"/>
    </contour>
    <contour>
      <point x="763" y="702" type="line"/>
      <point x="338" y="0" type="line"/>
      <point x="263" y="0" type="line"/>
      <point x="688" y="702" type="line"/>
    </contour>
    <contour>
      <point x="378" y="392" type="qcurve" smooth="yes"/>
      <point x="378" y="313"/>
      <point x="288" y="282" type="qcurve" smooth="yes"/>
      <point x="249" y="268"/>
      <point x="205" y="268" type="qcurve" smooth="yes"/>
      <point x="103" y="268"/>
      <point x="52" y="333" type="qcurve" smooth="yes"/>
      <point x="39" y="350"/>
      <point x="31" y="371" type="qcurve"/>
      <point x="84" y="391" type="line"/>
      <point x="109" y="315"/>
      <point x="204" y="315" type="qcurve" smooth="yes"/>
      <point x="256" y="315"/>
      <point x="273" y="327" type="qcurve" smooth="yes"/>
      <point x="314" y="352"/>
      <point x="314" y="392" type="qcurve" smooth="yes"/>
      <point x="314" y="467"/>
      <point x="175" y="469" type="qcurve" smooth="yes"/>
      <point x="143" y="469" type="line"/>
      <point x="143" y="516" type="line"/>
      <point x="215" y="516"/>
      <point x="233" y="521" type="qcurve" smooth="yes"/>
      <point x="247" y="524"/>
      <point x="257" y="530" type="qcurve" smooth="yes"/>
      <point x="298" y="556"/>
      <point x="298" y="586" type="qcurve" smooth="yes"/>
      <point x="298" y="644"/>
      <point x="231" y="655" type="qcurve" smooth="yes"/>
      <point x="219" y="657"/>
      <point x="206" y="657" type="qcurve" smooth="yes"/>
      <point x="141" y="657"/>
      <point x="110" y="609" type="qcurve" smooth="yes"/>
      <point x="103" y="600"/>
      <point x="99" y="589" type="qcurve"/>
      <point x="48" y="606" type="line"/>
      <point x="79" y="684"/>
      <point x="173" y="699" type="qcurve" smooth="yes"/>
      <point x="190" y="702"/>
      <point x="210" y="702" type="qcurve" smooth="yes"/>
      <point x="295" y="702"/>
      <point x="336" y="654" type="qcurve" smooth="yes"/>
      <point x="359" y="628"/>
      <point x="359" y="589" type="qcurve" smooth="yes"/>
      <point x="359" y="540"/>
      <point x="311" y="511" type="qcurve" smooth="yes"/>
      <point x="294" y="500"/>
      <point x="274" y="497" type="qcurve"/>
      <point x="274" y="495" type="line"/>
      <point x="343" y="485"/>
      <point x="369" y="434" type="qcurve" smooth="yes"/>
      <point x="378" y="416"/>
    </contour>
  </outline>
</glyph>
<glyph name="Aacute" format="2">
  <advance width="573" height="573"/>
  <unicode hex="00C1"/>
  <outline>
    <contour>
      <point x="403" y="849" type="line"/>
      <point x="183" y="753" type="line"/>
      <point x="163" y="794" type="line"/>
      <point x="369" y="915" type="line"/>
    </contour>
    <contour>
      <point x="568" y="0" type="line"/>
      <point x="478" y="0" type="line"/>
      <point x="408" y="205" type="line"/>
      <point x="147" y="205" type="line"/>
      <point x="85" y="0" type="line"/>
      <point x="11" y="0" type="line"/>
      <point x="239" y="702" type="line"/>
      <point x="340" y="702" type="line"/>
    </contour>
    <contour>
      <point x="388" y="271" type="line"/>
      <point x="281" y="608" type="line"/>
      <point x="172" y="271" type="line"/>
    </contour>
  </outline>
</glyph>
<glyph name="Odieresis" format="2">
  <advance width="675" height="675"/>
  <unicode hex="00D6"/>
  <outline>
    <contour>
      <point x="490" y="844" type="line" smooth="yes"/>
      <point x="490" y="809"/>
      <point x="459" y="796" type="qcurve" smooth="yes"/>
      <point x="447" y="791"/>
      <point x="436" y="791" type="qcurve" smooth="yes"/>
      <point x="402" y="791"/>
      <point x="388" y="822" type="qcurve" smooth="yes"/>
      <point x="384" y="833"/>
      <point x="384" y="844" type="qcurve" smooth="yes"/>
      <point x="384" y="879"/>
      <point x="417" y="891" type="qcurve" smooth="yes"/>
      <point x="427" y="895"/>
      <point x="437" y="895" type="qcurve" smooth="yes"/>
      <point x="469" y="895"/>
      <point x="484" y="866" type="qcurve"/>
      <point x="490" y="848" type="line"/>
    </contour>
    <contour>
      <point x="332" y="844" type="line" smooth="yes"/>
      <point x="332" y="809"/>
      <point x="300" y="796" type="qcurve" smooth="yes"/>
      <point x="289" y="791"/>
      <point x="278" y="791" type="qcurve" smooth="yes"/>
      <point x="244" y="791"/>
      <point x="229" y="822" type="qcurve" smooth="yes"/>
      <point x="225" y="833"/>
      <point x="225" y="844" type="qcurve" smooth="yes"/>
      <point x="225" y="879"/>
      <point x="258" y="891" type="qcurve" smooth="yes"/>
      <point x="268" y="895"/>
      <point x="279" y="895" type="qcurve" smooth="yes"/>
      <point x="310" y="895"/>
      <point x="326" y="866" type="qcurve"/>
      <point x="332" y="848" type="line"/>
    </contour>
    <contour>
      <point x="623" y="359" type="qcurve" smooth="yes"/>
      <point x="623" y="208"/>
      <point x="548" y="102" type="qcurve" smooth="yes"/>
      <point x="469" y="-10"/>
      <point x="335" y="-10" type="qcurve" smooth="yes"/>
      <point x="177" y="-10"/>
      <point x="98" y="128" type="qcurve" smooth="yes"/>
      <point x="45" y="220"/>
      <point x="45" y="346" type="qcurve" smooth="yes"/>
      <point x="45" y="506"/>
      <point x="124" y="609" type="qcurve" smooth="yes"/>
      <point x="202" y="713"/>
      <point x="334" y="713" type="qcurve" smooth="yes"/>
      <point x="486" y="713"/>
      <point x="566" y="580" type="qcurve" smooth="yes"/>
      <point x="623" y="485"/>
    </contour>
    <contour>
      <point x="530" y="354" type="qcurve" smooth="yes"/>
      <point x="530" y="496"/>
      <point x="468" y="575" type="qcurve" smooth="yes"/>
      <point x="419" y="640"/>
      <point x="337" y="640" type="qcurve" smooth="yes"/>
      <point x="207" y="640"/>
      <point x="159" y="492" type="qcurve" smooth="yes"/>
      <point x="137" y="426"/>
      <point x="137" y="345" type="qcurve" smooth="yes"/>
      <point x="137" y="214"/>
      <point x="197" y="133" type="qcurve" smooth="yes"/>
      <point x="249" y="61"/>
      <point x="335" y="61" type="qcurve" smooth="yes"/>
      <point x="458" y="61"/>
      <point x="507" y="203" type="qcurve" smooth="yes"/>
      <point x="530" y="271"/>
    </contour>
  </outline>
</glyph>
<glyph name="Oslash" format="2">
  <advance width="675" height="675"/>
  <unicode hex="00D8"/>
  <outline>
    <contour>
      <point x="636" y="746" type="line"/>
      <point x="541" y="610" type="line"/>
      <point x="621" y="508"/>
      <point x="621" y="349" type="qcurve" smooth="yes"/>
      <point x="621" y="211"/>
      <point x="549" y="108" type="qcurve" smooth="yes"/>
      <point x="516" y="59"/>
      <point x="472" y="31" type="qcurve" smooth="yes"/>
      <point x="411" y="-10"/>
      <point x="335" y="-10" type="qcurve" smooth="yes"/>
      <point x="232" y="-10"/>
      <point x="160" y="56" type="qcurve"/>
      <point x="94" y="-40" type="line"/>
      <point x="28" y="-40" type="line"/>
      <point x="122" y="97" type="line"/>
      <point x="45" y="188"/>
      <point x="45" y="352" type="qcurve" smooth="yes"/>
      <point x="45" y="500"/>
      <point x="109" y="590" type="qcurve" smooth="yes"/>
      <point x="194" y="711"/>
      <point x="329" y="713" type="qcurve" smooth="yes"/>
      <point x="431" y="713"/>
      <point x="504" y="652" type="qcurve"/>
      <point x="568" y="746" type="line"/>
    </contour>
    <contour>
      <point x="459" y="587" type="line"/>
      <point x="400" y="643"/>
      <point x="330" y="643" type="qcurve" smooth="yes"/>
      <point x="215" y="643"/>
      <point x="163" y="513" type="qcurve" smooth="yes"/>
      <point x="135" y="443"/>
      <point x="135" y="359" type="qcurve" smooth="yes"/>
      <point x="135" y="256"/>
      <point x="171" y="170" type="qcurve"/>
    </contour>
    <contour>
      <point x="528" y="353" type="qcurve" smooth="yes"/>
      <point x="528" y="459"/>
      <point x="489" y="536" type="qcurve"/>
      <point x="204" y="120" type="line"/>
      <point x="254" y="62"/>
      <point x="337" y="62" type="qcurve" smooth="yes"/>
      <point x="460" y="62"/>
      <point x="507" y="208" type="qcurve" smooth="yes"/>
      <point x="528" y="273"/>
    </contour>
  </outline>
</glyph>
<glyph name="Ucircumflex" format="2">
  <advance width="655" height="655"/>
  <unicode hex="00DB"/>
  <outline>
    <contour>
      <point x="499" y="790" type="line"/>
      <point x="428" y="779" type="line"/>
      <point x="333" y="843" type="line"/>
      <point x="232" y="779" type="line"/>
      <point x="158" y="790" type="line"/>
      <point x="333" y="915" type="line"/>
    </contour>
    <contour>
      <point x="567" y="258" type="line" smooth="yes"/>
      <point x="567" y="147"/>
      <point x="534" y="91" type="qcurve" smooth="yes"/>
      <point x="525" y="79"/>
      <point x="516" y="68" type="qcurve" smooth="yes"/>
      <point x="451" y="-10"/>
      <point x="327" y="-10" type="qcurve" smooth="yes"/>
      <point x="151" y="-10"/>
      <point x="103" y="117" type="qcurve" smooth="yes"/>
      <point x="83" y="172"/>
      <point x="83" y="258" type="qcurve" smooth="yes"/>
      <point x="83" y="702" type="line"/>
      <point x="171" y="702" type="line"/>
      <point x="171" y="258" type="line" smooth="yes"/>
      <point x="171" y="139"/>
      <point x="218" y="99" type="qcurve" smooth="yes"/>
      <point x="256" y="68"/>
      <point x="334" y="68" type="qcurve" smooth="yes"/>
      <point x="459" y="68"/>
      <point x="485" y="174" type="qcurve" smooth="yes"/>
      <point x="494" y="209"/>
      <point x="494" y="258" type="qcurve" smooth="yes"/>
      <point x="494" y="702" type="line"/>
      <point x="567" y="702" type="line"/>
    </contour>
  </outline>
</glyph>
<glyph name="Thorn" format="2">
  <advance width="573" height="573"/>
  <unicode hex="00DE"/>
  <outline>
    <contour>
      <point x="542" y="358" type="qcurve" smooth="yes"/>
      <point x="542" y="274"/>
      <point x="485" y="215" type="qcurve" smooth="yes"/>
      <point x="480" y="210" type="line" smooth="yes"/>
      <point x="422" y="153"/>
      <point x="311" y="153" type="qcurve" smooth="yes"/>
      <point x="154" y="153" type="line"/>
      <point x="154" y="0" type="line"/>
      <point x="66" y="0" type="line"/>
      <point x="66" y="702" type="line"/>
      <point x="154" y="702" type="line"/>
      <point x="154" y="569" type="line"/>
      <point x="301" y="569" type="line" smooth="yes"/>
      <point x="414" y="569"/>
      <point x="470" y="522" type="qcurve" smooth="yes"/>
      <point x="530" y="472"/>
      <point x="541" y="382" type="qcurve" smooth="yes"/>
      <point x="542" y="370"/>
    </contour>
    <contour>
      <point x="453" y="358" type="qcurve" smooth="yes"/>
      <point x="453" y="457"/>
      <point x="370" y="486" type="qcurve" smooth="yes"/>
      <point x="342" y="496"/>
      <point x="308" y="496" type="qcurve" smooth="yes"/>
      <point x="154" y="496" type="line"/>
      <point x="154" y="225" type="line"/>
      <point x="302" y="225" type="line" smooth="yes"/>
      <point x="412" y="225"/>
      <point x="442" y="302" type="qcurve" smooth="yes"/>
      <point x="453" y="327"/>
    </contour>
  </outline>
</glyph>
<glyph name="ccedilla" format="2">
  <advance width="491" height="491"/>
  <unicode hex="00E7"/>
  <outline>
    <contour>
      <point x="457" y="172" type="line"/>
      <point x="437" y="58"/>
      <point x="351" y="12" type="qcurve" smooth="yes"/>
      <point x="313" y="-7"/>
      <point x="266" y="-9" type="qcurve"/>
      <point x="259" y="-35" type="line"/>
      <point x="263" y="-35" type="line" smooth="yes"/>
      <point x="334" y="-35"/>
      <point x="354" y="-75" type="qcurve" smooth="yes"/>
      <point x="361" y="-87"/>
      <point x="361" y="-102" type="qcurve" smooth="yes"/>
      <point x="361" y="-159"/>
      <point x="299" y="-174" type="qcurve" smooth="yes"/>
      <point x="284" y="-178"/>
      <point x="265" y="-178" type="qcurve" smooth="yes"/>
      <point x="210" y="-178"/>
      <point x="172" y="-155" type="qcurve"/>
      <point x="183" y="-122" type="line"/>
      <point x="220" y="-140"/>
      <point x="257" y="-140" type="qcurve" smooth="yes"/>
      <point x="295" y="-140"/>
      <point x="306" y="-118" type="qcurve" smooth="yes"/>
      <point x="309" y="-112"/>
      <point x="309" y="-105" type="qcurve" smooth="yes"/>
      <point x="309" y="-68"/>
      <point x="245" y="-68" type="qcurve" smooth="yes"/>
      <point x="243" y="-68"/>
      <point x="212" y="-71" type="qcurve"/>
      <point x="231" y="-9" type="line"/>
      <point x="110" y="2"/>
      <point x="60" y="124" type="qcurve" smooth="yes"/>
      <point x="35" y="185"/>
      <point x="35" y="260" type="qcurve" smooth="yes"/>
      <point x="35" y="393"/>
      <point x="106" y="470" type="qcurve" smooth="yes"/>
      <point x="165" y="534"/>
      <point x="257" y="534" type="qcurve" smooth="yes"/>
      <point x="379" y="534"/>
      <point x="432" y="431" type="qcurve" smooth="yes"/>
      <point x="450" y="396"/>
      <point x="457" y="353" type="qcurve"/>
      <point x="383" y="340" type="line"/>
      <point x="375" y="421"/>
      <point x="315" y="453" type="qcurve" smooth="yes"/>
      <point x="297" y="463"/>
      <point x="273" y="465" type="qcurve" smooth="yes"/>
      <point x="266" y="466"/>
      <point x="259" y="466" type="qcurve" smooth="yes"/>
      <point x="163" y="466"/>
      <point x="131" y="353" type="qcurve" smooth="yes"/>
      <point x="120" y="312"/>
      <point x="120" y="265" type="qcurve" smooth="yes"/>
      <point x="120" y="138"/>
      <point x="179" y="85" type="qcurve" smooth="yes"/>
      <point x="210" y="58"/>
      <point x="254" y="58" type="qcurve" smooth="yes"/>
      <point x="354" y="58"/>
      <point x="381" y="175" type="qcurve" smooth="yes"/>
      <point x="381" y="175"/>
      <point x="383" y="185" type="qcurve"/>
    </contour>
  </outline>
</glyph>
<glyph name="icircumflex" format="2">
  <advance width="245" height="245"/>
  <unicode hex="00EE"/>
  <outline>
    <contour>
      <point x="284" y="607" type="line"/>
      <point x="213" y="597" type="line"/>
      <point x="118" y="660" type="line"/>
      <point x="17" y="597" type="line"/>
      <point x="-57" y="607" type="line"/>
      <point x="118" y="733" type="line"/>
    </contour>
    <contour>
      <point x="163" y="0" type="line"/>
      <point x="83" y="0" type="line"/>
      <point x="83" y="520" type="line"/>
      <point x="163" y="520" type="line"/>
    </contour>
  </outline>
</glyph>
<glyph name="otilde" format="2">
  <advance width="552" height="552"/>
  <unicode hex="00F5"/>
  <outline>
    <contour>
      <point x="460" y="675" type="line"/>
      <point x="413" y="628"/>
      <point x="353" y="628" type="qcurve" smooth="yes"/>
      <point x="326" y="628"/>
      <point x="271" y="654" type="qcurve" smooth="yes"/>
      <point x="232" y="670" type="line" smooth="yes"/>
      <point x="217" y="675"/>
      <point x="202" y="675" type="qcurve" smooth="yes"/>
      <point x="167" y="675"/>
      <point x="137" y="643" type="qcurve"/>
      <point x="93" y="675" type="line"/>
      <point x="140" y="730"/>
      <point x="208" y="733" type="qcurve" smooth="yes"/>
      <point x="239" y="733"/>
      <point x="301" y="706" type="qcurve" smooth="yes"/>
      <point x="340" y="688"/>
      <point x="360" y="688" type="qcurve" smooth="yes"/>
      <point x="381" y="688"/>
      <point x="423" y="714" type="qcurve"/>
    </contour>
    <contour>
      <point x="508" y="263" type="qcurve" smooth="yes"/>
      <point x="508" y="130"/>
      <point x="429" y="53" type="qcurve" smooth="yes"/>
      <point x="365" y="-10"/>
      <point x="266" y="-10" type="qcurve" smooth="yes"/>
      <point x="137" y="-10"/>
      <point x="77" y="105" type="qcurve" smooth="yes"/>
      <point x="41" y="174"/>
      <point x="41" y="264" type="qcurve" smooth="yes"/>
      <point x="41" y="399"/>
      <point x="122" y="475" type="qcurve" smooth="yes"/>
      <point x="184" y="534"/>
      <point x="280" y="534" type="qcurve" smooth="yes"/>
      <point x="404" y="534"/>
      <point x="467" y="425" type="qcurve" smooth="yes"/>
      <point x="508" y="355"/>
    </contour>
    <contour>
      <point x="419" y="264" type="qcurve" smooth="yes"/>
      <point x="419" y="397"/>
      <point x="349" y="446" type="qcurve" smooth="yes"/>
      <point x="317" y="468"/>
      <point x="273" y="468" type="qcurve" smooth="yes"/>
      <point x="171" y="468"/>
      <point x="140" y="350" type="qcurve" smooth="yes"/>
      <point x="130" y="310"/>
      <point x="130" y="264" type="qcurve" smooth="yes"/>
      <point x="130" y="120"/>
      <point x="206" y="74" type="qcurve" smooth="yes"/>
      <point x="234" y="56"/>
      <point x="273" y="56" type="qcurve" smooth="yes"/>
      <point x="384" y="56"/>
      <point x="412" y="187" type="qcurve" smooth="yes"/>
      <point x="419" y="223"/>
    </contour>
  </outline>
</glyph>
<glyph name="udieresis" format="2">
  <advance width="552" height="552"/>
  <unicode hex="00FC"/>
  <outline>
    <contour>
      <point x="429" y="682" type="line" smooth="yes"/>
      <point x="429" y="647"/>
      <point x="397" y="634" type="qcurve" smooth="yes"/>
      <point x="386" y="629"/>
      <point x="375" y="629" type="qcurve" smooth="yes"/>
      <point x="341" y="629"/>
      <point x="327" y="660" type="qcurve" smooth="yes"/>
      <point x="323" y="671"/>
      <point x="323" y="682" type="qcurve" smooth="yes"/>
      <point x="323" y="717"/>
      <point x="355" y="729" type="qcurve" smooth="yes"/>
      <point x="366" y="733"/>
      <point x="376" y="733" type="qcurve" smooth="yes"/>
      <point x="408" y="733"/>
      <point x="423" y="705" type="qcurve"/>
      <point x="429" y="686" type="line"/>
    </contour>
    <contour>
      <point x="270" y="682" type="line" smooth="yes"/>
      <point x="270" y="647"/>
      <point x="239" y="634" type="qcurve" smooth="yes"/>
      <point x="227" y="629"/>
      <point x="216" y="629" type="qcurve" smooth="yes"/>
      <point x="182" y="629"/>
      <point x="168" y="660" type="qcurve" smooth="yes"/>
      <point x="164" y="671"/>
      <point x="164" y="682" type="qcurve" smooth="yes"/>
      <point x="164" y="717"/>
      <point x="197" y="729" type="qcurve" smooth="yes"/>
      <point x="207" y="733"/>
      <point x="217" y="733" type="qcurve" smooth="yes"/>
      <point x="249" y="733"/>
      <point x="264" y="705" type="qcurve"/>
      <point x="270" y="686" type="line"/>
    </contour>
    <contour>
      <point x="479" y="0" type="line"/>
      <point x="407" y="0" type="line"/>
      <point x="407" y="103" type="line"/>
      <point x="404" y="103" type="line"/>
      <point x="377" y="35"/>
      <point x="310" y="4" type="qcurve" smooth="yes"/>
      <point x="279" y="-10"/>
      <point x="245" y="-10" type="qcurve" smooth="yes"/>
      <point x="93" y="-10"/>
      <point x="74" y="156" type="qcurve" smooth="yes"/>
      <point x="71" y="178"/>
      <point x="71" y="204" type="qcurve" smooth="yes"/>
      <point x="71" y="520" type="line"/>
      <point x="151" y="520" type="line"/>
      <point x="151" y="204" type="line" smooth="yes"/>
      <point x="151" y="68"/>
      <point x="242" y="59" type="qcurve"/>
      <point x="242" y="59"/>
      <point x="252" y="59" type="qcurve" smooth="yes"/>
      <point x="341" y="59"/>
      <point x="380" y="148" type="qcurve" smooth="yes"/>
      <point x="399" y="191"/>
      <point x="399" y="244" type="qcurve" smooth="yes"/>
      <point x="399" y="520" type="line"/>
      <point x="479" y="520" type="line"/>
    </contour>
  </outline>
</glyph>
<glyph name="IJ" format="2">
  <advance width="747" height="747"/>
  <unicode hex="0132"/>
  <outline>
    <contour>
      <point x="668" y="232" type="line" smooth="yes"/>
      <point x="668" y="4"/>
      <point x="469" y="-10" type="qcurve" smooth="yes"/>
      <point x="457" y="-11"/>
      <point x="442" y="-11" type="qcurve" smooth="yes"/>
      <point x="290" y="-11"/>
      <point x="245" y="93" type="qcurve" smooth="yes"/>
      <point x="229" y="130"/>
      <point x="229" y="178" type="qcurve" smooth="yes"/>
      <point x="230" y="199" type="line"/>
      <point x="230" y="200" type="line"/>
      <point x="328" y="200" type="line"/>
      <point x="327" y="184" type="line"/>
      <point x="327" y="183" type="line" smooth="yes"/>
      <point x="327" y="91"/>
      <point x="408" y="76" type="qcurve" smooth="yes"/>
      <point x="422" y="74"/>
      <point x="437" y="74" type="qcurve" smooth="yes"/>
      <point x="540" y="74"/>
      <point x="561" y="165" type="qcurve" smooth="yes"/>
      <point x="569" y="198"/>
      <point x="569" y="250" type="qcurve" smooth="yes"/>
      <point x="569" y="737" type="line"/>
      <point x="668" y="737" type="line"/>
    </contour>
    <contour>
      <point x="183" y="0" type="line"/>
      <point x="85" y="0" type="line"/>
      <point x="85" y="737" type="line"/>
      <point x="183" y="737" type="line"/>
    </contour>
  </outline>
</glyph>
<glyph name="kgreenlandic" format="2">
  <advance width="533" height="533"/>
  <unicode hex="0138"/>
  <outline>
    <contour>
      <point x="538" y="0" type="line"/>
      <point x="414" y="0" type="line"/>
      <point x="179" y="262" type="line"/>
      <point x="179" y="0" type="line"/>
      <point x="83" y="0" type="line"/>
      <point x="83" y="514" type="line"/>
      <point x="179" y="514" type="line"/>
      <point x="179" y="302" type="line"/>
      <point x="390" y="514" type="line"/>
      <point x="509" y="514" type="line"/>
      <point x="273" y="285" type="line"/>
    </contour>
  </outline>
</glyph>
<glyph name="Ldot" format="2">
  <advance width="831" height="831"/>
  <unicode hex="013F"/>
  <outline>
    <contour>
      <point x="760" y="357" type="qcurve" smooth="yes"/>
      <point x="760" y="316"/>
      <point x="723" y="296" type="qcurve" smooth="yes"/>
      <point x="707" y="287"/>
      <point x="689" y="287" type="qcurve" smooth="yes"/>
      <point x="645" y="287"/>
      <point x="627" y="326" type="qcurve" smooth="yes"/>
      <point x="620" y="340"/>
      <point x="620" y="357" type="qcurve" smooth="yes"/>
      <point x="620" y="400"/>
      <point x="657" y="420" type="qcurve" smooth="yes"/>
      <point x="673" y="427"/>
      <point x="689" y="427" type="qcurve" smooth="yes"/>
      <point x="732" y="427"/>
      <point x="752" y="390" type="qcurve" smooth="yes"/>
      <point x="760" y="375"/>
    </contour>
    <contour>
      <point x="518" y="0" type="line"/>
      <point x="85" y="0" type="line"/>
      <point x="85" y="737" type="line"/>
      <point x="182" y="737" type="line"/>
      <point x="182" y="88" type="line"/>
      <point x="518" y="88" type="line"/>
    </contour>
  </outline>
</glyph>
<glyph name="Lslash" format="2">
  <advance width="551" height="551"/>
  <unicode hex="0141"/>
  <outline>
    <contour>
      <point x="525" y="0" type="line"/>
      <point x="92" y="0" type="line"/>
      <point x="92" y="308" type="line"/>
      <point x="0" y="244" type="line"/>
      <point x="0" y="331" type="line"/>
      <point x="92" y="396" type="line"/>
      <point x="92" y="737" type="line"/>
      <point x="189" y="737" type="line"/>
      <point x="189" y="443" type="line"/>
      <point x="365" y="566" type="line"/>
      <point x="365" y="478" type="line"/>
      <point x="189" y="355" type="line"/>
      <point x="189" y="88" type="line"/>
      <point x="525" y="88" type="line"/>
    </contour>
  </outline>
</glyph>
<glyph name="nacute" format="2">
  <advance width="552" height="552"/>
  <unicode hex="0144"/>
  <outline>
    <contour>
      <point x="421" y="684" type="line"/>
      <point x="201" y="587" type="line"/>
      <point x="181" y="628" type="line"/>
      <point x="387" y="750" type="line"/>
    </contour>
    <contour>
      <point x="482" y="0" type="line"/>
      <point x="402" y="0" type="line"/>
      <point x="402" y="322" type="line" smooth="yes"/>
      <point x="402" y="388"/>
      <point x="391" y="412" type="qcurve" smooth="yes"/>
      <point x="390" y="415"/>
      <point x="388" y="418" type="qcurve" smooth="yes"/>
      <point x="366" y="457"/>
      <point x="313" y="464" type="qcurve" smooth="yes"/>
      <point x="306" y="465"/>
      <point x="299" y="465" type="qcurve" smooth="yes"/>
      <point x="202" y="465"/>
      <point x="166" y="366" type="qcurve" smooth="yes"/>
      <point x="151" y="323"/>
      <point x="151" y="272" type="qcurve" smooth="yes"/>
      <point x="151" y="0" type="line"/>
      <point x="71" y="0" type="line"/>
      <point x="71" y="520" type="line"/>
      <point x="146" y="520" type="line"/>
      <point x="146" y="424" type="line"/>
      <point x="148" y="424" type="line"/>
      <point x="185" y="504"/>
      <point x="263" y="526" type="qcurve" smooth="yes"/>
      <point x="286" y="534"/>
      <point x="310" y="534" type="qcurve" smooth="yes"/>
      <point x="407" y="534"/>
      <point x="455" y="457" type="qcurve"/>
      <point x="458" y="453" type="line"/>
      <point x="482" y="411"/>
      <point x="482" y="309" type="qcurve" smooth="yes"/>
    </contour>
  </outline>
</glyph>
<glyph name="Eng" format="2">
  <advance width="751" height="751"/>
  <unicode hex="014A"/>
  <outline>
    <contour>
      <point x="665" y="101" type="line" smooth="yes"/>
      <point x="665" y="-117"/>
      <point x="546" y="-167" type="qcurve" smooth="yes"/>
      <point x="506" y="-184"/>
      <point x="453" y="-184" type="qcurve" smooth="yes"/>
      <point x="398" y="-184"/>
      <point x="345" y="-162" type="qcurve"/>
      <point x="345" y="-68" type="line"/>
      <point x="388" y="-91"/>
      <point x="449" y="-91" type="qcurve" smooth="yes"/>
      <point x="551" y="-91"/>
      <point x="567" y="8" type="qcurve"/>
      <point x="177" y="626" type="line"/>
      <point x="177" y="0" type="line"/>
      <point x="86" y="0" type="line"/>
      <point x="86" y="737" type="line"/>
      <point x="226" y="737" type="line"/>
      <point x="575" y="170" type="line"/>
      <point x="575" y="737" type="line"/>
      <point x="665" y="737" type="line"/>
    </contour>
  </outline>
</glyph>
<glyph name="uni01D2" format="2">
  <advance width="552" height="552"/>
  <unicode hex="01D2"/>
  <outline>
    <contour>
      <point x="121" y="719" type="line"/>
      <point x="191" y="729" type="line"/>
      <point x="287" y="666" type="line"/>
      <point x="387" y="729" type="line"/>
      <point x="462" y="719" type="line"/>
      <point x="287" y="593" type="line"/>
    </contour>
    <contour>
      <point x="508" y="263" type="qcurve" smooth="yes"/>
      <point x="508" y="130"/>
      <point x="429" y="53" type="qcurve" smooth="yes"/>
      <point x="365" y="-10"/>
      <point x="266" y="-10" type="qcurve" smooth="yes"/>
      <point x="137" y="-10"/>
      <point x="77" y="105" type="qcurve" smooth="yes"/>
      <point x="41" y="174"/>
      <point x="41" y="264" type="qcurve" smooth="yes"/>
      <point x="41" y="399"/>
      <point x="122" y="475" type="qcurve" smooth="yes"/>
      <point x="184" y="534"/>
      <point x="280" y="534" type="qcurve" smooth="yes"/>
      <point x="404" y="534"/>
      <point x="467" y="425" type="qcurve" smooth="yes"/>
      <point x="508" y="355"/>
    </contour>
    <contour>
      <point x="419" y="264" type="qcurve" smooth="yes"/>
      <point x="419" y="397"/>
      <point x="349" y="446" type="qcurve" smooth="yes"/>
      <point x="317" y="468"/>
      <point x="273" y="468" type="qcurve" smooth="yes"/>
      <point x="171" y="468"/>
      <point x="140" y="350" type="qcurve" smooth="yes"/>
      <point x="130" y="310"/>
      <point x="130" y="264" type="qcurve" smooth="yes"/>
      <point x="130" y="120"/>
      <point x="206" y="74" type="qcurve" smooth="yes"/>
      <point x="234" y="56"/>
      <point x="273" y="56" type="qcurve" smooth="yes"/>
      <point x="384" y="56"/>
      <point x="412" y="187" type="qcurve" smooth="yes"/>
      <point x="419" y="223"/>
    </contour>
  </outline>
</glyph>
<glyph name="uni01DA" format="2">
  <advance width="552" height="552"/>
  <unicode hex="01DA"/>
  <outline>
    <contour>
      <point x="402" y="559" type="line"/>
      <point x="311" y="559" type="line"/>
      <point x="311" y="664" type="line"/>
      <point x="402" y="664" type="line"/>
    </contour>
    <contour>
      <point x="238" y="559" type="line"/>
      <point x="146" y="559" type="line"/>
      <point x="146" y="664" type="line"/>
      <point x="238" y="664" type="line"/>
    </contour>
    <contour>
      <point x="442" y="835" type="line"/>
      <point x="371" y="845" type="line"/>
      <point x="276" y="781" type="line"/>
      <point x="176" y="845" type="line"/>
      <point x="101" y="835" type="line"/>
      <point x="276" y="709" type="line"/>
    </contour>
    <contour>
      <point x="479" y="0" type="line"/>
      <point x="407" y="0" type="line"/>
      <point x="407" y="103" type="line"/>
      <point x="404" y="103" type="line"/>
      <point x="377" y="35"/>
      <point x="310" y="4" type="qcurve" smooth="yes"/>
      <point x="279" y="-10"/>
      <point x="245" y="-10" type="qcurve" smooth="yes"/>
      <point x="93" y="-10"/>
      <point x="74" y="156" type="qcurve" smooth="yes"/>
      <point x="71" y="178"/>
      <point x="71" y="204" type="qcurve" smooth="yes"/>
      <point x="71" y="520" type="line"/>
      <point x="151" y="520" type="line"/>
      <point x="151" y="204" type="line" smooth="yes"/>
      <point x="151" y="68"/>
      <point x="242" y="59" type="qcurve"/>
      <point x="252" y="59" type="line" smooth="yes"/>
      <point x="341" y="59"/>
      <point x="380" y="148" type="qcurve" smooth="yes"/>
      <point x="399" y="191"/>
      <point x="399" y="244" type="qcurve" smooth="yes"/>
      <point x="399" y="520" type="line"/>
      <point x="479" y="520" type="line"/>
    </contour>
  </outline>
</glyph>
<glyph name="uni0252" format="2">
  <advance width="590" height="590"/>
  <unicode hex="0252"/>
  <outline>
    <contour>
      <point x="469" y="370"/>
      <point x="384" y="481"/>
      <point x="311" y="481" type="qcurve" smooth="yes"/>
      <point x="241" y="481"/>
      <point x="154" y="372"/>
      <point x="154" y="273" type="qcurve" smooth="yes"/>
      <point x="154" y="259" type="line" smooth="yes"/>
      <point x="154" y="162"/>
      <point x="241" y="51"/>
      <point x="311" y="51" type="qcurve" smooth="yes"/>
      <point x="385" y="51"/>
      <point x="469" y="163"/>
    </contour>
    <contour>
      <point x="543" y="266" type="qcurve" smooth="yes"/>
      <point x="543" y="132"/>
      <point x="428" y="-10"/>
      <point x="328" y="-10" type="qcurve" smooth="yes"/>
      <point x="211" y="-10"/>
      <point x="153" y="87" type="qcurve"/>
      <point x="151" y="87" type="line"/>
      <point x="151" y="0" type="line"/>
      <point x="79" y="0" type="line"/>
      <point x="79" y="532" type="line"/>
      <point x="151" y="532" type="line"/>
      <point x="152" y="442" type="line"/>
      <point x="154" y="442" type="line"/>
      <point x="210" y="542"/>
      <point x="328" y="543" type="qcurve" smooth="yes"/>
      <point x="426" y="543"/>
      <point x="543" y="398"/>
    </contour>
  </outline>
</glyph>
<glyph name="uni0254" format="2">
  <advance width="537" height="537"/>
  <unicode hex="0254"/>
  <outline>
    <contour>
      <point x="89" y="446" type="qcurve"/>
      <point x="69" y="507" type="line"/>
      <point x="146" y="543"/>
      <point x="229" y="543" type="qcurve" smooth="yes"/>
      <point x="348" y="543"/>
      <point x="496" y="392"/>
      <point x="496" y="266" type="qcurve" smooth="yes"/>
      <point x="496" y="136"/>
      <point x="354" y="-10"/>
      <point x="229" y="-10" type="qcurve" smooth="yes"/>
      <point x="145" y="-10"/>
      <point x="69" y="26" type="qcurve"/>
      <point x="89" y="88" type="line"/>
      <point x="154" y="52"/>
      <point x="225" y="52" type="qcurve" smooth="yes"/>
      <point x="315" y="52"/>
      <point x="417" y="164"/>
      <point x="417" y="266" type="qcurve" smooth="yes"/>
      <point x="417" y="364"/>
      <point x="310" y="481"/>
      <point x="225" y="481" type="qcurve" smooth="yes"/>
      <point x="155" y="481"/>
    </contour>
  </outline>
</glyph>
<glyph name="uni0255" format="2">
  <advance width="551" height="551"/>
  <unicode hex="0255"/>
  <outline>
    <contour>
      <point x="312" y="51" type="qcurve" smooth="yes"/>
      <point x="375" y="51"/>
      <point x="446" y="90"/>
      <point x="446" y="123" type="qcurve" smooth="yes"/>
      <point x="446" y="145"/>
      <point x="419" y="170"/>
      <point x="372" y="170"/>
      <point x="323" y="127"/>
      <point x="271" y="55" type="qcurve"/>
      <point x="288" y="51"/>
    </contour>
    <contour>
      <point x="213" y="78" type="qcurve"/>
      <point x="280" y="171"/>
      <point x="355" y="228"/>
      <point x="399" y="228" type="qcurve" smooth="yes"/>
      <point x="451" y="228"/>
      <point x="514" y="169"/>
      <point x="514" y="121" type="qcurve" smooth="yes"/>
      <point x="514" y="62"/>
      <point x="415" y="-10"/>
      <point x="316" y="-10" type="qcurve" smooth="yes"/>
      <point x="269" y="-10"/>
      <point x="234" y="0" type="qcurve"/>
      <point x="172" y="-95" type="line"/>
      <point x="117" y="-65" type="line"/>
      <point x="174" y="23" type="line"/>
      <point x="112" y="57"/>
      <point x="43" y="182"/>
      <point x="43" y="266" type="qcurve" smooth="yes"/>
      <point x="43" y="396"/>
      <point x="184" y="543"/>
      <point x="309" y="543" type="qcurve" smooth="yes"/>
      <point x="393" y="543"/>
      <point x="470" y="507" type="qcurve"/>
      <point x="450" y="444" type="line"/>
      <point x="384" y="480"/>
      <point x="312" y="480" type="qcurve" smooth="yes"/>
      <point x="222" y="480"/>
      <point x="122" y="369"/>
      <point x="122" y="266" type="qcurve" smooth="yes"/>
      <point x="122" y="134"/>
    </contour>
  </outline>
</glyph>
<glyph name="uni0259" format="2">
  <advance width="568" height="568"/>
  <unicode hex="0259"/>
  <outline>
    <contour>
      <point x="450" y="236" type="qcurve"/>
      <point x="122" y="236" type="line"/>
      <point x="123" y="147"/>
      <point x="207" y="50"/>
      <point x="281" y="50" type="qcurve" smooth="yes"/>
      <point x="358" y="50"/>
      <point x="447" y="148"/>
    </contour>
    <contour>
      <point x="450" y="295" type="line"/>
      <point x="448" y="382"/>
      <point x="345" y="482"/>
      <point x="181" y="482"/>
      <point x="106" y="441" type="qcurve"/>
      <point x="86" y="500" type="line"/>
      <point x="172" y="543"/>
      <point x="270" y="543" type="qcurve" smooth="yes"/>
      <point x="385" y="543"/>
      <point x="526" y="393"/>
      <point x="526" y="266" type="qcurve" smooth="yes"/>
      <point x="526" y="137"/>
      <point x="393" y="-10"/>
      <point x="281" y="-10" type="qcurve" smooth="yes"/>
      <point x="170" y="-10"/>
      <point x="48" y="130"/>
      <point x="48" y="261" type="qcurve" smooth="yes"/>
      <point x="48" y="285"/>
      <point x="49" y="295" type="qcurve"/>
    </contour>
  </outline>
</glyph>
<glyph name="uni025C" format="2">
  <advance width="540" height="540"/>
  <unicode hex="025C"/>
  <outline>
    <contour>
      <point x="351" y="284" type="line"/>
      <point x="422" y="272"/>
      <point x="493" y="193"/>
      <point x="493" y="143" type="qcurve" smooth="yes"/>
      <point x="493" y="71"/>
      <point x="368" y="-10"/>
      <point x="251" y="-10" type="qcurve" smooth="yes"/>
      <point x="150" y="-10"/>
      <point x="48" y="28" type="qcurve"/>
      <point x="67" y="85" type="line"/>
      <point x="162" y="51"/>
      <point x="247" y="51" type="qcurve" smooth="yes"/>
      <point x="415" y="51"/>
      <point x="415" y="152" type="qcurve" smooth="yes"/>
      <point x="415" y="203"/>
      <point x="308" y="254"/>
      <point x="189" y="254" type="qcurve" smooth="yes"/>
      <point x="144" y="254" type="line"/>
      <point x="144" y="314" type="line"/>
      <point x="189" y="314" type="line" smooth="yes"/>
      <point x="405" y="314"/>
      <point x="406" y="401" type="qcurve" smooth="yes"/>
      <point x="406" y="439"/>
      <point x="325" y="483"/>
      <point x="244" y="483" type="qcurve" smooth="yes"/>
      <point x="161" y="483"/>
      <point x="74" y="447" type="qcurve"/>
      <point x="55" y="505" type="line"/>
      <point x="150" y="543"/>
      <point x="251" y="543" type="qcurve" smooth="yes"/>
      <point x="361" y="543"/>
      <point x="484" y="469"/>
      <point x="484" y="412" type="qcurve" smooth="yes"/>
      <point x="484" y="370"/>
      <point x="416" y="300"/>
      <point x="351" y="286" type="qcurve"/>
    </contour>
  </outline>
</glyph>
<glyph name="uni025F" format="2">
  <advance width="560" height="560"/>
  <unicode hex="025F"/>
  <outline>
    <contour>
      <point x="56" y="266" type="line"/>
      <point x="56" y="328" type="line"/>
      <point x="241" y="328" type="line"/>
      <point x="241" y="532" type="line"/>
      <point x="319" y="532" type="line"/>
      <point x="319" y="328" type="line"/>
      <point x="502" y="328" type="line"/>
      <point x="502" y="266" type="line"/>
      <point x="319" y="266" type="line"/>
      <point x="319" y="20" type="line" smooth="yes"/>
      <point x="319" y="-123"/>
      <point x="212" y="-225"/>
      <point x="60" y="-225" type="qcurve"/>
      <point x="57" y="-163" type="line"/>
      <point x="169" y="-163"/>
      <point x="241" y="-94"/>
      <point x="241" y="16" type="qcurve" smooth="yes"/>
      <point x="241" y="266" type="line"/>
    </contour>
  </outline>
</glyph>
<glyph name="uni0260" format="2">
  <advance width="590" height="590"/>
  <unicode hex="0260"/>
  <outline>
    <contour>
      <point x="260" y="543" type="qcurve" smooth="yes"/>
      <point x="377" y="543"/>
      <point x="437" y="446" type="qcurve"/>
      <point x="439" y="446" type="line"/>
      <point x="439" y="471" type="line" smooth="yes"/>
      <point x="439" y="550"/>
      <point x="524" y="632"/>
      <point x="606" y="632" type="qcurve" smooth="yes"/>
      <point x="653" y="632"/>
      <point x="702" y="616" type="qcurve"/>
      <point x="686" y="555" type="line"/>
      <point x="652" y="570"/>
      <point x="613" y="570" type="qcurve" smooth="yes"/>
      <point x="558" y="570"/>
      <point x="512" y="517"/>
      <point x="512" y="454" type="qcurve" smooth="yes"/>
      <point x="512" y="44" type="line" smooth="yes"/>
      <point x="512" y="-236"/>
      <point x="263" y="-236" type="qcurve" smooth="yes"/>
      <point x="174" y="-236"/>
      <point x="97" y="-203" type="qcurve"/>
      <point x="115" y="-142" type="line"/>
      <point x="188" y="-174"/>
      <point x="263" y="-174" type="qcurve" smooth="yes"/>
      <point x="353" y="-174"/>
      <point x="437" y="-74"/>
      <point x="437" y="41" type="qcurve" smooth="yes"/>
      <point x="437" y="106" type="line"/>
      <point x="435" y="106" type="line"/>
      <point x="380" y="10"/>
      <point x="260" y="10" type="qcurve" smooth="yes"/>
      <point x="167" y="10"/>
      <point x="48" y="155"/>
      <point x="48" y="276" type="qcurve" smooth="yes"/>
      <point x="48" y="404"/>
      <point x="160" y="543"/>
    </contour>
    <contour>
      <point x="122" y="276" type="qcurve" smooth="yes"/>
      <point x="122" y="181"/>
      <point x="207" y="72"/>
      <point x="276" y="72" type="qcurve" smooth="yes"/>
      <point x="347" y="72"/>
      <point x="437" y="178"/>
      <point x="437" y="271" type="qcurve" smooth="yes"/>
      <point x="437" y="282" type="line" smooth="yes"/>
      <point x="437" y="374"/>
      <point x="347" y="481"/>
      <point x="276" y="481" type="qcurve" smooth="yes"/>
      <point x="203" y="481"/>
      <point x="122" y="375"/>
    </contour>
  </outline>
</glyph>
<glyph name="uni0261" format="2">
  <advance width="590" height="590"/>
  <unicode hex="0261"/>
  <outline>
    <contour>
      <point x="122" y="276" type="qcurve" smooth="yes"/>
      <point x="122" y="181"/>
      <point x="207" y="72"/>
      <point x="276" y="72" type="qcurve" smooth="yes"/>
      <point x="347" y="72"/>
      <point x="437" y="178"/>
      <point x="437" y="271" type="qcurve" smooth="yes"/>
      <point x="437" y="282" type="line" smooth="yes"/>
      <point x="437" y="374"/>
      <point x="347" y="481"/>
      <point x="276" y="481" type="qcurve" smooth="yes"/>
      <point x="203" y="481"/>
      <point x="122" y="375"/>
    </contour>
    <contour>
      <point x="48" y="276" type="qcurve" smooth="yes"/>
      <point x="48" y="404"/>
      <point x="160" y="543"/>
      <point x="260" y="543" type="qcurve" smooth="yes"/>
      <point x="380" y="543"/>
      <point x="437" y="443" type="qcurve"/>
      <point x="439" y="443" type="line"/>
      <point x="440" y="532" type="line"/>
      <point x="512" y="532" type="line"/>
      <point x="512" y="44" type="line" smooth="yes"/>
      <point x="512" y="-236"/>
      <point x="263" y="-236" type="qcurve" smooth="yes"/>
      <point x="174" y="-236"/>
      <point x="97" y="-203" type="qcurve"/>
      <point x="115" y="-142" type="line"/>
      <point x="188" y="-174"/>
      <point x="263" y="-174" type="qcurve" smooth="yes"/>
      <point x="353" y="-174"/>
      <point x="437" y="-74"/>
      <point x="437" y="41" type="qcurve" smooth="yes"/>
      <point x="437" y="106" type="line"/>
      <point x="435" y="106" type="line"/>
      <point x="380" y="10"/>
      <point x="260" y="10" type="qcurve" smooth="yes"/>
      <point x="167" y="10"/>
      <point x="48" y="154"/>
    </contour>
  </outline>
</glyph>
<glyph name="uni0262" format="2">
  <advance width="629" height="629"/>
  <unicode hex="0262"/>
  <outline>
    <contour>
      <point x="350" y="-10" type="qcurve" smooth="yes"/>
      <point x="210" y="-10"/>
      <point x="43" y="140"/>
      <point x="43" y="266" type="qcurve" smooth="yes"/>
      <point x="43" y="393"/>
      <point x="208" y="543"/>
      <point x="350" y="543" type="qcurve" smooth="yes"/>
      <point x="459" y="543"/>
      <point x="540" y="498" type="qcurve"/>
      <point x="512" y="443" type="line"/>
      <point x="442" y="481"/>
      <point x="355" y="481" type="qcurve" smooth="yes"/>
      <point x="246" y="481"/>
      <point x="120" y="365"/>
      <point x="120" y="168"/>
      <point x="248" y="51"/>
      <point x="355" y="51" type="qcurve" smooth="yes"/>
      <point x="431" y="51"/>
      <point x="488" y="76" type="qcurve"/>
      <point x="488" y="255" type="line"/>
      <point x="292" y="255" type="line"/>
      <point x="292" y="315" type="line"/>
      <point x="562" y="315" type="line"/>
      <point x="562" y="29" type="line"/>
      <point x="466" y="-10"/>
    </contour>
  </outline>
</glyph>
<glyph name="uni0268" format="2">
  <advance width="560" height="560"/>
  <unicode hex="0268"/>
  <outline>
    <contour>
      <point x="58" y="266" type="line"/>
      <point x="58" y="328" type="line"/>
      <point x="241" y="328" type="line"/>
      <point x="241" y="532" type="line"/>
      <point x="319" y="532" type="line"/>
      <point x="319" y="328" type="line"/>
      <point x="502" y="328" type="line"/>
      <point x="502" y="266" type="line"/>
      <point x="319" y="266" type="line"/>
      <point x="319" y="0" type="line"/>
      <point x="241" y="0" type="line"/>
      <point x="241" y="266" type="line"/>
    </contour>
    <contour>
      <point x="241" y="655" type="line"/>
      <point x="241" y="768" type="line"/>
      <point x="319" y="768" type="line"/>
      <point x="319" y="655" type="line"/>
    </contour>
  </outline>
</glyph>
<glyph name="uni0271" format="2">
  <advance width="828" height="828"/>
  <unicode hex="0271"/>
  <outline>
    <contour>
      <point x="681" y="317" type="line" smooth="yes"/>
      <point x="681" y="410"/>
      <point x="634" y="481"/>
      <point x="578" y="481" type="qcurve" smooth="yes"/>
      <point x="529" y="481"/>
      <point x="455" y="383"/>
      <point x="455" y="312" type="qcurve" smooth="yes"/>
      <point x="455" y="0" type="line"/>
      <point x="381" y="0" type="line"/>
      <point x="381" y="317" type="line" smooth="yes"/>
      <point x="381" y="410"/>
      <point x="334" y="481"/>
      <point x="276" y="481" type="qcurve" smooth="yes"/>
      <point x="230" y="481"/>
      <point x="154" y="374"/>
      <point x="154" y="299" type="qcurve" smooth="yes"/>
      <point x="154" y="0" type="line"/>
      <point x="79" y="0" type="line"/>
      <point x="79" y="532" type="line"/>
      <point x="151" y="532" type="line"/>
      <point x="152" y="444" type="line"/>
      <point x="154" y="444" type="line"/>
      <point x="210" y="542"/>
      <point x="294" y="543" type="qcurve" smooth="yes"/>
      <point x="396" y="543"/>
      <point x="437" y="440" type="qcurve"/>
      <point x="439" y="440" type="line"/>
      <point x="492" y="542"/>
      <point x="594" y="543" type="qcurve" smooth="yes"/>
      <point x="677" y="543"/>
      <point x="755" y="445"/>
      <point x="755" y="338" type="qcurve" smooth="yes"/>
      <point x="755" y="-58" type="line" smooth="yes"/>
      <point x="755" y="-151"/>
      <point x="675" y="-236"/>
      <point x="587" y="-236" type="qcurve" smooth="yes"/>
      <point x="539" y="-236"/>
      <point x="492" y="-220" type="qcurve"/>
      <point x="507" y="-159" type="line"/>
      <point x="543" y="-174"/>
      <point x="580" y="-174" type="qcurve" smooth="yes"/>
      <point x="635" y="-174"/>
      <point x="681" y="-122"/>
      <point x="681" y="-58" type="qcurve" smooth="yes"/>
    </contour>
  </outline>
</glyph>
<glyph name="uni0276" format="2">
  <advance width="881" height="881"/>
  <unicode hex="0276"/>
  <outline>
    <contour>
      <point x="514" y="468" type="line"/>
      <point x="514" y="308" type="line"/>
      <point x="782" y="308" type="line"/>
      <point x="782" y="247" type="line"/>
      <point x="514" y="247" type="line"/>
      <point x="514" y="65" type="line"/>
      <point x="803" y="65" type="line"/>
      <point x="803" y="0" type="line"/>
      <point x="441" y="0" type="line"/>
      <point x="441" y="68" type="line"/>
      <point x="384" y="-10"/>
      <point x="282" y="-10" type="qcurve" smooth="yes"/>
      <point x="176" y="-10"/>
      <point x="43" y="140"/>
      <point x="43" y="392"/>
      <point x="175" y="543"/>
      <point x="282" y="543" type="qcurve" smooth="yes"/>
      <point x="384" y="543"/>
      <point x="441" y="465" type="qcurve"/>
      <point x="441" y="532" type="line"/>
      <point x="803" y="532" type="line"/>
      <point x="803" y="468" type="line"/>
    </contour>
    <contour>
      <point x="441" y="366"/>
      <point x="352" y="481"/>
      <point x="282" y="481" type="qcurve" smooth="yes"/>
      <point x="208" y="481"/>
      <point x="120" y="368"/>
      <point x="120" y="165"/>
      <point x="208" y="51"/>
      <point x="282" y="51" type="qcurve" smooth="yes"/>
      <point x="353" y="51"/>
      <point x="441" y="167"/>
    </contour>
  </outline>
</glyph>
<glyph name="uni0277" format="2">
  <advance width="808" height="808"/>
  <unicode hex="0277"/>
  <outline>
    <contour>
      <point x="406" y="144" type="qcurve"/>
      <point x="403" y="144" type="line"/>
      <point x="387" y="65"/>
      <point x="298" y="-10"/>
      <point x="238" y="-10" type="qcurve" smooth="yes"/>
      <point x="156" y="-10"/>
      <point x="43" y="126"/>
      <point x="43" y="251" type="qcurve" smooth="yes"/>
      <point x="43" y="381"/>
      <point x="241" y="543"/>
      <point x="404" y="543" type="qcurve" smooth="yes"/>
      <point x="569" y="543"/>
      <point x="767" y="381"/>
      <point x="767" y="251" type="qcurve" smooth="yes"/>
      <point x="767" y="126"/>
      <point x="654" y="-10"/>
      <point x="572" y="-10" type="qcurve" smooth="yes"/>
      <point x="511" y="-10"/>
      <point x="422" y="65"/>
    </contour>
    <contour>
      <point x="274" y="481"/>
      <point x="120" y="354"/>
      <point x="120" y="251" type="qcurve" smooth="yes"/>
      <point x="120" y="155"/>
      <point x="196" y="51"/>
      <point x="248" y="51" type="qcurve" smooth="yes"/>
      <point x="303" y="51"/>
      <point x="368" y="178"/>
      <point x="368" y="307" type="qcurve" smooth="yes"/>
      <point x="368" y="364" type="line"/>
      <point x="442" y="364" type="line"/>
      <point x="442" y="307" type="line" smooth="yes"/>
      <point x="442" y="178"/>
      <point x="507" y="51"/>
      <point x="562" y="51" type="qcurve" smooth="yes"/>
      <point x="614" y="51"/>
      <point x="690" y="155"/>
      <point x="690" y="251" type="qcurve" smooth="yes"/>
      <point x="690" y="354"/>
      <point x="535" y="481"/>
    </contour>
  </outline>
</glyph>
<glyph name="uni0278" format="2">
  <advance width="703" height="703"/>
  <unicode hex="0278"/>
  <outline>
    <contour>
      <point x="389" y="479" type="qcurve"/>
      <point x="389" y="53" type="line"/>
      <point x="482" y="62"/>
      <point x="584" y="172"/>
      <point x="584" y="360"/>
      <point x="482" y="470"/>
    </contour>
    <contour>
      <point x="389" y="-9" type="qcurve"/>
      <point x="389" y="-225" type="line"/>
      <point x="314" y="-225" type="line"/>
      <point x="314" y="-9" type="line"/>
      <point x="187" y="1"/>
      <point x="43" y="147"/>
      <point x="43" y="385"/>
      <point x="187" y="531"/>
      <point x="314" y="542" type="qcurve"/>
      <point x="314" y="748" type="line"/>
      <point x="389" y="748" type="line"/>
      <point x="389" y="542" type="line"/>
      <point x="517" y="532"/>
      <point x="660" y="386"/>
      <point x="660" y="146"/>
      <point x="517" y="1"/>
    </contour>
    <contour>
      <point x="314" y="53" type="qcurve"/>
      <point x="314" y="479" type="line"/>
      <point x="221" y="470"/>
      <point x="120" y="360"/>
      <point x="120" y="172"/>
      <point x="221" y="62"/>
    </contour>
  </outline>
</glyph>
<glyph name="uni027B" format="2">
  <advance width="585" height="585"/>
  <unicode hex="027B"/>
  <outline>
    <contour>
      <point x="314" y="79" type="qcurve" smooth="yes"/>
      <point x="314" y="114" type="line"/>
      <point x="312" y="114" type="line"/>
      <point x="222" y="-10"/>
      <point x="58" y="-10" type="qcurve"/>
      <point x="58" y="54" type="line"/>
      <point x="172" y="54"/>
      <point x="313" y="179"/>
      <point x="313" y="279" type="qcurve" smooth="yes"/>
      <point x="313" y="532" type="line"/>
      <point x="389" y="532" type="line"/>
      <point x="389" y="79" type="line" smooth="yes"/>
      <point x="389" y="16"/>
      <point x="435" y="-38"/>
      <point x="490" y="-38" type="qcurve" smooth="yes"/>
      <point x="529" y="-38"/>
      <point x="563" y="-23" type="qcurve"/>
      <point x="580" y="-84" type="line"/>
      <point x="531" y="-99"/>
      <point x="483" y="-99" type="qcurve" smooth="yes"/>
      <point x="396" y="-99"/>
      <point x="314" y="-15"/>
    </contour>
  </outline>
</glyph>
<glyph name="uni027C" format="2">
  <advance width="467" height="467"/>
  <unicode hex="027C"/>
  <outline>
    <contour>
      <point x="156" y="254" type="qcurve" smooth="yes"/>
      <point x="156" y="-225" type="line"/>
      <point x="79" y="-225" type="line"/>
      <point x="79" y="532" type="line"/>
      <point x="152" y="532" type="line"/>
      <point x="154" y="419" type="line"/>
      <point x="156" y="419" type="line"/>
      <point x="245" y="543"/>
      <point x="410" y="543" type="qcurve"/>
      <point x="410" y="478" type="line"/>
      <point x="296" y="478"/>
      <point x="156" y="353"/>
    </contour>
  </outline>
</glyph>
<glyph name="uni027E" format="2">
  <advance width="398" height="398"/>
  <unicode hex="027E"/>
  <outline>
    <contour>
      <point x="251" y="478" type="qcurve" smooth="yes"/>
      <point x="197" y="478"/>
      <point x="151" y="425"/>
      <point x="151" y="361" type="qcurve" smooth="yes"/>
      <point x="151" y="0" type="line"/>
      <point x="74" y="0" type="line"/>
      <point x="74" y="366" type="line" smooth="yes"/>
      <point x="74" y="543"/>
      <point x="245" y="543" type="qcurve" smooth="yes"/>
      <point x="291" y="543"/>
      <point x="340" y="527" type="qcurve"/>
      <point x="324" y="463" type="line"/>
      <point x="290" y="478"/>
    </contour>
  </outline>
</glyph>
<glyph name="uni027F" format="2">
  <advance width="398" height="398"/>
  <unicode hex="027F"/>
  <outline>
    <contour>
      <point x="248" y="0" type="line"/>
      <point x="248" y="361" type="line" smooth="yes"/>
      <point x="248" y="424"/>
      <point x="202" y="478"/>
      <point x="147" y="478" type="qcurve" smooth="yes"/>
      <point x="108" y="478"/>
      <point x="75" y="463" type="qcurve"/>
      <point x="58" y="527" type="line"/>
      <point x="107" y="542"/>
      <point x="154" y="543" type="qcurve" smooth="yes"/>
      <point x="325" y="543"/>
      <point x="325" y="366" type="qcurve" smooth="yes"/>
      <point x="325" y="0" type="line"/>
    </contour>
  </outline>
</glyph>
<glyph name="uni0283" format="2">
  <advance width="316" height="316"/>
  <unicode hex="0283"/>
  <outline>
    <contour>
      <point x="19" y="-174" type="qcurve" smooth="yes"/>
      <point x="73" y="-174"/>
      <point x="120" y="-122"/>
      <point x="120" y="-58" type="qcurve" smooth="yes"/>
      <point x="120" y="581" type="line" smooth="yes"/>
      <point x="120" y="758"/>
      <point x="291" y="758" type="qcurve" smooth="yes"/>
      <point x="338" y="758"/>
      <point x="386" y="742" type="qcurve"/>
      <point x="371" y="681" type="line"/>
      <point x="336" y="696"/>
      <point x="298" y="696" type="qcurve" smooth="yes"/>
      <point x="243" y="696"/>
      <point x="197" y="644"/>
      <point x="197" y="581" type="qcurve" smooth="yes"/>
      <point x="197" y="-58" type="line" smooth="yes"/>
      <point x="197" y="-151"/>
      <point x="114" y="-236"/>
      <point x="26" y="-236" type="qcurve" smooth="yes"/>
      <point x="-20" y="-236"/>
      <point x="-70" y="-220" type="qcurve"/>
      <point x="-53" y="-159" type="line"/>
      <point x="-20" y="-174"/>
    </contour>
  </outline>
</glyph>
<glyph name="uni0284" format="2">
  <advance width="581" height="581"/>
  <unicode hex="0284"/>
  <outline>
    <contour>
      <point x="58" y="266" type="line"/>
      <point x="58" y="328" type="line"/>
      <point x="242" y="328" type="line"/>
      <point x="242" y="581" type="line" smooth="yes"/>
      <point x="242" y="758"/>
      <point x="413" y="758" type="qcurve" smooth="yes"/>
      <point x="461" y="758"/>
      <point x="508" y="742" type="qcurve"/>
      <point x="493" y="681" type="line"/>
      <point x="457" y="696"/>
      <point x="420" y="696" type="qcurve" smooth="yes"/>
      <point x="365" y="696"/>
      <point x="318" y="644"/>
      <point x="318" y="581" type="qcurve" smooth="yes"/>
      <point x="318" y="328" type="line"/>
      <point x="502" y="328" type="line"/>
      <point x="502" y="266" type="line"/>
      <point x="318" y="266" type="line"/>
      <point x="318" y="20" type="line" smooth="yes"/>
      <point x="318" y="-124"/>
      <point x="212" y="-225"/>
      <point x="61" y="-225" type="qcurve"/>
      <point x="58" y="-163" type="line"/>
      <point x="170" y="-163"/>
      <point x="242" y="-94"/>
      <point x="242" y="16" type="qcurve" smooth="yes"/>
      <point x="242" y="266" type="line"/>
    </contour>
  </outline>
</glyph>
<glyph name="uni0287" format="2">
  <advance width="527" height="527"/>
  <unicode hex="0287"/>
  <outline>
    <contour>
      <point x="475" y="20" type="line"/>
      <point x="357" y="20" type="line"/>
      <point x="357" y="-174" type="line"/>
      <point x="281" y="-174" type="line"/>
      <point x="281" y="20" type="line"/>
      <point x="79" y="20" type="line"/>
      <point x="79" y="82" type="line"/>
      <point x="281" y="82" type="line"/>
      <point x="281" y="361" type="line" smooth="yes"/>
      <point x="281" y="433"/>
      <point x="241" y="481"/>
      <point x="188" y="481" type="qcurve" smooth="yes"/>
      <point x="137" y="481"/>
      <point x="98" y="464" type="qcurve"/>
      <point x="86" y="524" type="line"/>
      <point x="138" y="542"/>
      <point x="199" y="543" type="qcurve" smooth="yes"/>
      <point x="286" y="543"/>
      <point x="357" y="468"/>
      <point x="357" y="376" type="qcurve" smooth="yes"/>
      <point x="357" y="82" type="line"/>
      <point x="475" y="82" type="line"/>
    </contour>
  </outline>
</glyph>
<glyph name="uni0289" format="2">
  <advance width="693" height="693"/>
  <unicode hex="0289"/>
  <outline>
    <contour>
      <point x="53" y="266" type="line"/>
      <point x="53" y="328" type="line"/>
      <point x="135" y="328" type="line"/>
      <point x="135" y="532" type="line"/>
      <point x="209" y="532" type="line"/>
      <point x="209" y="328" type="line"/>
      <point x="483" y="328" type="line"/>
      <point x="483" y="532" type="line"/>
      <point x="558" y="532" type="line"/>
      <point x="558" y="328" type="line"/>
      <point x="640" y="328" type="line"/>
      <point x="640" y="266" type="line"/>
      <point x="558" y="266" type="line"/>
      <point x="558" y="0" type="line"/>
      <point x="486" y="0" type="line"/>
      <point x="485" y="95" type="line"/>
      <point x="483" y="95" type="line"/>
      <point x="452" y="46"/>
      <point x="357" y="-10"/>
      <point x="302" y="-10" type="qcurve" smooth="yes"/>
      <point x="216" y="-10"/>
      <point x="135" y="87"/>
      <point x="135" y="195" type="qcurve" smooth="yes"/>
      <point x="135" y="266" type="line"/>
    </contour>
    <contour>
      <point x="483" y="266" type="line"/>
      <point x="209" y="266" type="line"/>
      <point x="209" y="202" type="line" smooth="yes"/>
      <point x="209" y="120"/>
      <point x="263" y="54"/>
      <point x="327" y="54" type="qcurve" smooth="yes"/>
      <point x="386" y="54"/>
      <point x="483" y="169"/>
      <point x="483" y="248" type="qcurve" smooth="yes"/>
    </contour>
  </outline>
</glyph>
<glyph name="uni0290" format="2">
  <advance width="563" height="563"/>
  <unicode hex="0290"/>
  <outline>
    <contour>
      <point x="658" y="-159" type="qcurve"/>
      <point x="675" y="-220" type="line"/>
      <point x="626" y="-235"/>
      <point x="580" y="-236" type="qcurve" smooth="yes"/>
      <point x="492" y="-236"/>
      <point x="412" y="-152"/>
      <point x="412" y="-58" type="qcurve" smooth="yes"/>
      <point x="412" y="0" type="line"/>
      <point x="79" y="0" type="line"/>
      <point x="79" y="61" type="line"/>
      <point x="391" y="469" type="line"/>
      <point x="391" y="471" type="line"/>
      <point x="79" y="471" type="line"/>
      <point x="79" y="532" type="line"/>
      <point x="485" y="532" type="line"/>
      <point x="485" y="471" type="line"/>
      <point x="173" y="63" type="line"/>
      <point x="173" y="61" type="line"/>
      <point x="485" y="61" type="line"/>
      <point x="485" y="-58" type="line" smooth="yes"/>
      <point x="485" y="-121"/>
      <point x="531" y="-174"/>
      <point x="586" y="-174" type="qcurve" smooth="yes"/>
      <point x="624" y="-174"/>
    </contour>
  </outline>
</glyph>
<glyph name="uni0294" format="2">
  <advance width="588" height="588"/>
  <unicode hex="0294"/>
  <outline>
    <contour>
      <point x="315" y="333" type="qcurve"/>
      <point x="315" y="0" type="line"/>
      <point x="236" y="0" type="line"/>
      <point x="236" y="387" type="line"/>
      <point x="344" y="387"/>
      <point x="453" y="470"/>
      <point x="453" y="548" type="qcurve" smooth="yes"/>
      <point x="453" y="616"/>
      <point x="356" y="689"/>
      <point x="265" y="689" type="qcurve" smooth="yes"/>
      <point x="168" y="689"/>
      <point x="69" y="631" type="qcurve"/>
      <point x="48" y="695" type="line"/>
      <point x="160" y="757"/>
      <point x="275" y="758" type="qcurve" smooth="yes"/>
      <point x="394" y="758"/>
      <point x="531" y="645"/>
      <point x="531" y="550" type="qcurve" smooth="yes"/>
      <point x="531" y="363"/>
    </contour>
  </outline>
</glyph>
<glyph name="uni0298" format="2">
  <advance width="816" height="816"/>
  <unicode hex="0298"/>
  <outline>
    <contour>
      <point x="357" y="312" type="line"/>
      <point x="357" y="449" type="line"/>
      <point x="460" y="449" type="line"/>
      <point x="460" y="312" type="line"/>
    </contour>
    <contour>
      <point x="43" y="548"/>
      <point x="243" y="758"/>
      <point x="409" y="758" type="qcurve" smooth="yes"/>
      <point x="574" y="758"/>
      <point x="773" y="548"/>
      <point x="773" y="200"/>
      <point x="573" y="-10"/>
      <point x="409" y="-10" type="qcurve" smooth="yes"/>
      <point x="243" y="-10"/>
      <point x="43" y="200"/>
    </contour>
    <contour>
      <point x="409" y="58" type="qcurve" smooth="yes"/>
      <point x="536" y="58"/>
      <point x="690" y="229"/>
      <point x="690" y="518"/>
      <point x="536" y="689"/>
      <point x="409" y="689" type="qcurve" smooth="yes"/>
      <point x="281" y="689"/>
      <point x="126" y="518"/>
      <point x="126" y="229"/>
      <point x="281" y="58"/>
    </contour>
  </outline>
</glyph>
<glyph name="uni0299" format="2">
  <advance width="552" height="552"/>
  <unicode hex="0299"/>
  <outline>
    <contour>
      <point x="159" y="317" type="line"/>
      <point x="243" y="317" type="line" smooth="yes"/>
      <point x="404" y="317"/>
      <point x="403" y="396" type="qcurve" smooth="yes"/>
      <point x="403" y="471"/>
      <point x="264" y="471" type="qcurve" smooth="yes"/>
      <point x="159" y="471" type="line"/>
    </contour>
    <contour>
      <point x="159" y="256" type="line"/>
      <point x="159" y="65" type="line"/>
      <point x="272" y="65" type="line" smooth="yes"/>
      <point x="426" y="65"/>
      <point x="426" y="166" type="qcurve" smooth="yes"/>
      <point x="426" y="256"/>
      <point x="243" y="256" type="qcurve" smooth="yes"/>
    </contour>
    <contour>
      <point x="501" y="158" type="qcurve" smooth="yes"/>
      <point x="501" y="85"/>
      <point x="390" y="0"/>
      <point x="269" y="0" type="qcurve" smooth="yes"/>
      <point x="84" y="0" type="line"/>
      <point x="84" y="532" type="line"/>
      <point x="261" y="532" type="line" smooth="yes"/>
      <point x="474" y="532"/>
      <point x="474" y="407" type="qcurve" smooth="yes"/>
      <point x="474" y="366"/>
      <point x="411" y="302"/>
      <point x="356" y="291" type="qcurve"/>
      <point x="356" y="290" type="line"/>
      <point x="428" y="278"/>
      <point x="501" y="206"/>
    </contour>
  </outline>
</glyph>
<glyph name="uni029D" format="2">
  <advance width="493" height="493"/>
  <unicode hex="029D"/>
  <outline>
    <contour>
      <point x="239" y="655" type="line"/>
      <point x="239" y="768" type="line"/>
      <point x="317" y="768" type="line"/>
      <point x="317" y="655" type="line"/>
    </contour>
    <contour>
      <point x="317" y="-56" type="line"/>
      <point x="317" y="-58" type="line" smooth="yes"/>
      <point x="317" y="-150"/>
      <point x="234" y="-236"/>
      <point x="151" y="-236" type="qcurve" smooth="yes"/>
      <point x="82" y="-236"/>
      <point x="7" y="-174"/>
      <point x="7" y="-120" type="qcurve" smooth="yes"/>
      <point x="7" y="-61"/>
      <point x="95" y="5"/>
      <point x="178" y="5" type="qcurve" smooth="yes"/>
      <point x="239" y="5" type="line"/>
      <point x="239" y="532" type="line"/>
      <point x="317" y="532" type="line"/>
      <point x="317" y="5" type="line"/>
      <point x="486" y="5" type="line"/>
      <point x="486" y="-56" type="line"/>
    </contour>
    <contour>
      <point x="239" y="-56" type="line"/>
      <point x="178" y="-56" type="line" smooth="yes"/>
      <point x="79" y="-56"/>
      <point x="79" y="-120" type="qcurve" smooth="yes"/>
      <point x="79" y="-145"/>
      <point x="115" y="-173"/>
      <point x="146" y="-173" type="qcurve" smooth="yes"/>
      <point x="195" y="-173"/>
      <point x="239" y="-121"/>
      <point x="239" y="-58" type="qcurve" smooth="yes"/>
    </contour>
  </outline>
</glyph>
<glyph name="uni02A9" format="2">
  <advance width="913" height="913"/>
  <unicode hex="02A9"/>
  <outline>
    <contour>
      <point x="766" y="304" type="line" smooth="yes"/>
      <point x="766" y="403"/>
      <point x="709" y="480"/>
      <point x="639" y="480" type="qcurve" smooth="yes"/>
      <point x="579" y="480"/>
      <point x="481" y="364"/>
      <point x="481" y="285" type="qcurve" smooth="yes"/>
      <point x="481" y="0" type="line"/>
      <point x="407" y="0" type="line"/>
      <point x="407" y="471" type="line"/>
      <point x="274" y="471" type="line"/>
      <point x="274" y="0" type="line"/>
      <point x="199" y="0" type="line"/>
      <point x="199" y="471" type="line"/>
      <point x="58" y="471" type="line"/>
      <point x="58" y="532" type="line"/>
      <point x="199" y="532" type="line"/>
      <point x="199" y="581" type="line" smooth="yes"/>
      <point x="199" y="758"/>
      <point x="369" y="758" type="qcurve" smooth="yes"/>
      <point x="416" y="758"/>
      <point x="465" y="742" type="qcurve"/>
      <point x="449" y="681" type="line"/>
      <point x="415" y="696"/>
      <point x="376" y="696" type="qcurve" smooth="yes"/>
      <point x="321" y="696"/>
      <point x="274" y="644"/>
      <point x="274" y="581" type="qcurve" smooth="yes"/>
      <point x="274" y="532" type="line"/>
      <point x="407" y="532" type="line"/>
      <point x="447" y="532" type="line"/>
      <point x="478" y="532" type="line"/>
      <point x="479" y="437" type="line"/>
      <point x="481" y="437" type="line"/>
      <point x="512" y="486"/>
      <point x="608" y="543"/>
      <point x="663" y="543" type="qcurve" smooth="yes"/>
      <point x="753" y="543"/>
      <point x="840" y="431"/>
      <point x="840" y="310" type="qcurve" smooth="yes"/>
      <point x="840" y="-58" type="line" smooth="yes"/>
      <point x="840" y="-151"/>
      <point x="760" y="-236"/>
      <point x="672" y="-236" type="qcurve" smooth="yes"/>
      <point x="626" y="-236"/>
      <point x="577" y="-220" type="qcurve"/>
      <point x="593" y="-159" type="line"/>
      <point x="627" y="-174"/>
      <point x="666" y="-174" type="qcurve" smooth="yes"/>
      <point x="720" y="-174"/>
      <point x="766" y="-122"/>
      <point x="766" y="-58" type="qcurve" smooth="yes"/>
    </contour>
  </outline>
</glyph>
<glyph name="uni02AB" format="2">
  <advance width="642" height="642"/>
  <unicode hex="02AB"/>
  <outline>
    <contour>
      <point x="470" y="469" type="line"/>
      <point x="470" y="471" type="line"/>
      <point x="168" y="471" type="line"/>
      <point x="168" y="75" type="line"/>
    </contour>
    <contour>
      <point x="89" y="0" type="line"/>
      <point x="89" y="748" type="line"/>
      <point x="168" y="748" type="line"/>
      <point x="168" y="532" type="line"/>
      <point x="564" y="532" type="line"/>
      <point x="564" y="471" type="line"/>
      <point x="252" y="63" type="line"/>
      <point x="252" y="61" type="line"/>
      <point x="564" y="61" type="line"/>
      <point x="564" y="0" type="line"/>
      <point x="168" y="0" type="line"/>
      <point x="158" y="0" type="line"/>
    </contour>
  </outline>
</glyph>
<glyph name="uni02AD" format="2">
  <advance width="601" height="601"/>
  <unicode hex="02AD"/>
  <outline>
    <contour>
      <point x="450" y="269" type="line"/>
      <point x="153" y="269" type="line"/>
      <point x="153" y="138" type="line"/>
      <point x="84" y="138" type="line"/>
      <point x="84" y="343" type="line"/>
      <point x="517" y="343" type="line"/>
      <point x="517" y="138" type="line"/>
      <point x="450" y="138" type="line"/>
    </contour>
    <contour>
      <point x="450" y="638" type="line"/>
      <point x="153" y="638" type="line"/>
      <point x="153" y="507" type="line"/>
      <point x="84" y="507" type="line"/>
      <point x="84" y="712" type="line"/>
      <point x="517" y="712" type="line"/>
      <point x="517" y="507" type="line"/>
      <point x="450" y="507" type="line"/>
    </contour>
  </outline>
</glyph>
<glyph name="uni02AF" format="2">
  <advance width="586" height="586"/>
  <unicode hex="02AF"/>
  <outline>
    <contour>
      <point x="432" y="91" type="line"/>
      <point x="430" y="91" type="line"/>
      <point x="363" y="-10"/>
      <point x="252" y="-10" type="qcurve" smooth="yes"/>
      <point x="162" y="-10"/>
      <point x="74" y="101"/>
      <point x="74" y="222" type="qcurve" smooth="yes"/>
      <point x="74" y="591" type="line" smooth="yes"/>
      <point x="74" y="654"/>
      <point x="28" y="707"/>
      <point x="-27" y="707" type="qcurve" smooth="yes"/>
      <point x="-66" y="707"/>
      <point x="-99" y="691" type="qcurve"/>
      <point x="-116" y="753" type="line"/>
      <point x="-67" y="768"/>
      <point x="-20" y="768" type="qcurve" smooth="yes"/>
      <point x="68" y="768"/>
      <point x="147" y="684"/>
      <point x="147" y="591" type="qcurve" smooth="yes"/>
      <point x="147" y="228" type="line" smooth="yes"/>
      <point x="147" y="129"/>
      <point x="205" y="52"/>
      <point x="275" y="52" type="qcurve" smooth="yes"/>
      <point x="336" y="52"/>
      <point x="432" y="172"/>
      <point x="432" y="248" type="qcurve" smooth="yes"/>
      <point x="432" y="532" type="line"/>
      <point x="508" y="532" type="line"/>
      <point x="508" y="-48" type="line" smooth="yes"/>
      <point x="508" y="-111"/>
      <point x="554" y="-164"/>
      <point x="608" y="-164" type="qcurve" smooth="yes"/>
      <point x="647" y="-164"/>
      <point x="681" y="-148" type="qcurve"/>
      <point x="697" y="-210" type="line"/>
      <point x="648" y="-225"/>
      <point x="602" y="-225" type="qcurve" smooth="yes"/>
      <point x="432" y="-225"/>
      <point x="432" y="-48" type="qcurve" smooth="yes"/>
    </contour>
  </outline>
</glyph>
<glyph name="ring" format="2">
  <advance width="512" height="512"/>
  <unicode hex="02DA"/>
  <outline>
    <contour>
      <point x="371" y="675" type="qcurve" smooth="yes"/>
      <point x="371" y="614"/>
      <point x="321" y="581" type="qcurve" smooth="yes"/>
      <point x="291" y="561"/>
      <point x="256" y="561" type="qcurve" smooth="yes"/>
      <point x="191" y="561"/>
      <point x="159" y="612" type="qcurve" smooth="yes"/>
      <point x="141" y="640"/>
      <point x="141" y="675" type="qcurve" smooth="yes"/>
      <point x="141" y="736"/>
      <point x="191" y="770" type="qcurve" smooth="yes"/>
      <point x="221" y="790"/>
      <point x="256" y="790" type="qcurve" smooth="yes"/>
      <point x="317" y="790"/>
      <point x="351" y="739" type="qcurve" smooth="yes"/>
      <point x="371" y="710"/>
    </contour>
    <contour>
      <point x="314" y="675" type="qcurve" smooth="yes"/>
      <point x="314" y="708"/>
      <point x="283" y="725" type="qcurve" smooth="yes"/>
      <point x="269" y="733"/>
      <point x="256" y="733" type="qcurve" smooth="yes"/>
      <point x="220" y="733"/>
      <point x="204" y="699" type="qcurve"/>
      <point x="199" y="679" type="line"/>
      <point x="199" y="675" type="line" smooth="yes"/>
      <point x="199" y="639"/>
      <point x="230" y="624" type="qcurve" smooth="yes"/>
      <point x="243" y="617"/>
      <point x="256" y="617" type="qcurve" smooth="yes"/>
      <point x="293" y="617"/>
      <point x="308" y="650" type="qcurve" smooth="yes"/>
      <point x="314" y="662"/>
    </contour>
  </outline>
</glyph>
<glyph name="Tau" format="2">
  <advance width="617" height="617"/>
  <unicode hex="03A4"/>
  <outline>
    <contour>
      <point x="603" y="649" type="line"/>
      <point x="357" y="649" type="line"/>
      <point x="357" y="0" type="line"/>
      <point x="259" y="0" type="line"/>
      <point x="259" y="649" type="line"/>
      <point x="14" y="649" type="line"/>
      <point x="14" y="737" type="line"/>
      <point x="603" y="737" type="line"/>
    </contour>
  </outline>
</glyph>
<glyph name="Iotadieresis" format="2">
  <advance width="269" height="269"/>
  <unicode hex="03AA"/>
  <outline>
    <contour>
      <point x="263" y="835" type="line"/>
      <point x="172" y="835" type="line"/>
      <point x="172" y="939" type="line"/>
      <point x="263" y="939" type="line"/>
    </contour>
    <contour>
      <point x="98" y="835" type="line"/>
      <point x="7" y="835" type="line"/>
      <point x="7" y="939" type="line"/>
      <point x="98" y="939" type="line"/>
    </contour>
    <contour>
      <point x="183" y="0" type="line"/>
      <point x="85" y="0" type="line"/>
      <point x="85" y="737" type="line"/>
      <point x="183" y="737" type="line"/>
    </contour>
  </outline>
</glyph>
<glyph name="etatonos" format="2">
  <advance width="602" height="602"/>
  <unicode hex="03AE"/>
  <outline>
    <contour>
      <point x="350" y="782" type="line"/>
      <point x="335" y="608" type="line"/>
      <point x="268" y="608" type="line"/>
      <point x="254" y="782" type="line"/>
    </contour>
    <contour>
      <point x="523" y="-194" type="line"/>
      <point x="429" y="-194" type="line"/>
      <point x="429" y="332" type="line" smooth="yes"/>
      <point x="429" y="445"/>
      <point x="338" y="457" type="qcurve" smooth="yes"/>
      <point x="327" y="458"/>
      <point x="314" y="458" type="qcurve" smooth="yes"/>
      <point x="239" y="458"/>
      <point x="201" y="408" type="qcurve" smooth="yes"/>
      <point x="178" y="380"/>
      <point x="178" y="341" type="qcurve" smooth="yes"/>
      <point x="178" y="0" type="line"/>
      <point x="83" y="0" type="line"/>
      <point x="83" y="409" type="line" smooth="yes"/>
      <point x="83" y="468"/>
      <point x="79" y="514" type="qcurve"/>
      <point x="175" y="514" type="line"/>
      <point x="178" y="434" type="line"/>
      <point x="208" y="504"/>
      <point x="296" y="522" type="qcurve" smooth="yes"/>
      <point x="317" y="526"/>
      <point x="339" y="526" type="qcurve" smooth="yes"/>
      <point x="431" y="526"/>
      <point x="485" y="472" type="qcurve" smooth="yes"/>
      <point x="493" y="464"/>
      <point x="499" y="456" type="qcurve" smooth="yes"/>
      <point x="523" y="415"/>
      <point x="523" y="324" type="qcurve" smooth="yes"/>
    </contour>
  </outline>
</glyph>
<glyph name="beta" format="2">
  <advance width="595" height="595"/>
  <unicode hex="03B2"/>
  <outline>
    <contour>
      <point x="544" y="206" type="qcurve" smooth="yes"/>
      <point x="544" y="82"/>
      <point x="460" y="24" type="qcurve" smooth="yes"/>
      <point x="409" y="-11"/>
      <point x="337" y="-11" type="qcurve" smooth="yes"/>
      <point x="233" y="-11"/>
      <point x="173" y="66" type="qcurve"/>
      <point x="173" y="-194" type="line"/>
      <point x="78" y="-194" type="line"/>
      <point x="78" y="519" type="line" smooth="yes"/>
      <point x="78" y="727"/>
      <point x="263" y="748" type="qcurve" smooth="yes"/>
      <point x="285" y="750"/>
      <point x="308" y="750" type="qcurve" smooth="yes"/>
      <point x="444" y="750"/>
      <point x="498" y="669" type="qcurve"/>
      <point x="513" y="640" type="line"/>
      <point x="523" y="605"/>
      <point x="524" y="571" type="qcurve" smooth="yes"/>
      <point x="524" y="446"/>
      <point x="401" y="396" type="qcurve"/>
      <point x="515" y="366"/>
      <point x="538" y="269" type="qcurve" smooth="yes"/>
      <point x="544" y="242"/>
    </contour>
    <contour>
      <point x="446" y="200" type="qcurve" smooth="yes"/>
      <point x="446" y="333"/>
      <point x="323" y="350" type="qcurve" smooth="yes"/>
      <point x="306" y="352"/>
      <point x="288" y="352" type="qcurve" smooth="yes"/>
      <point x="242" y="352" type="line"/>
      <point x="242" y="419" type="line"/>
      <point x="283" y="419" type="line" smooth="yes"/>
      <point x="373" y="419"/>
      <point x="413" y="485" type="qcurve" smooth="yes"/>
      <point x="432" y="518"/>
      <point x="432" y="562" type="qcurve" smooth="yes"/>
      <point x="432" y="669"/>
      <point x="332" y="682" type="qcurve" smooth="yes"/>
      <point x="318" y="684"/>
      <point x="304" y="684" type="qcurve" smooth="yes"/>
      <point x="202" y="684"/>
      <point x="180" y="596" type="qcurve"/>
      <point x="174" y="552" type="line"/>
      <point x="173" y="521" type="line"/>
      <point x="173" y="266" type="line" smooth="yes"/>
      <point x="173" y="194"/>
      <point x="180" y="166" type="qcurve" smooth="yes"/>
      <point x="200" y="93"/>
      <point x="266" y="67" type="qcurve" smooth="yes"/>
      <point x="292" y="56"/>
      <point x="321" y="56" type="qcurve" smooth="yes"/>
      <point x="411" y="56"/>
      <point x="437" y="139" type="qcurve" smooth="yes"/>
      <point x="446" y="167"/>
    </contour>
  </outline>
</glyph>
<glyph name="delta" format="2">
  <advance width="629" height="629"/>
  <unicode hex="03B4"/>
  <outline>
    <contour>
      <point x="563" y="231" type="qcurve" smooth="yes"/>
      <point x="563" y="88"/>
      <point x="451" y="25" type="qcurve" smooth="yes"/>
      <point x="387" y="-11"/>
      <point x="299" y="-11" type="qcurve" smooth="yes"/>
      <point x="159" y="-11"/>
      <point x="93" y="80" type="qcurve" smooth="yes"/>
      <point x="53" y="135"/>
      <point x="53" y="217" type="qcurve" smooth="yes"/>
      <point x="53" y="356"/>
      <point x="166" y="425" type="qcurve" smooth="yes"/>
      <point x="216" y="455"/>
      <point x="282" y="465" type="qcurve"/>
      <point x="205" y="529"/>
      <point x="185" y="574" type="qcurve" smooth="yes"/>
      <point x="174" y="599"/>
      <point x="174" y="624" type="qcurve" smooth="yes"/>
      <point x="174" y="750"/>
      <point x="376" y="750" type="qcurve"/>
      <point x="466" y="745" type="line"/>
      <point x="467" y="745" type="line"/>
      <point x="467" y="673" type="line"/>
      <point x="414" y="678"/>
      <point x="373" y="678" type="qcurve" smooth="yes"/>
      <point x="273" y="672"/>
      <point x="268" y="627" type="qcurve" smooth="yes"/>
      <point x="268" y="591"/>
      <point x="381" y="501" type="qcurve" smooth="yes"/>
      <point x="469" y="430"/>
      <point x="495" y="401" type="qcurve" smooth="yes"/>
      <point x="563" y="327"/>
    </contour>
    <contour>
      <point x="466" y="228" type="qcurve" smooth="yes"/>
      <point x="466" y="316"/>
      <point x="375" y="386" type="qcurve" smooth="yes"/>
      <point x="360" y="397"/>
      <point x="341" y="411" type="qcurve"/>
      <point x="151" y="386"/>
      <point x="151" y="226" type="qcurve" smooth="yes"/>
      <point x="151" y="118"/>
      <point x="229" y="78" type="qcurve" smooth="yes"/>
      <point x="263" y="61"/>
      <point x="307" y="61" type="qcurve" smooth="yes"/>
      <point x="403" y="61"/>
      <point x="445" y="138" type="qcurve" smooth="yes"/>
      <point x="466" y="178"/>
    </contour>
  </outline>
</glyph>
<glyph name="zeta" format="2">
  <advance width="472" height="472"/>
  <unicode hex="03B6"/>
  <outline>
    <contour>
      <point x="451" y="-53" type="qcurve" smooth="yes"/>
      <point x="451" y="-189"/>
      <point x="251" y="-195" type="qcurve" smooth="yes"/>
      <point x="244" y="-195"/>
      <point x="236" y="-195" type="qcurve" smooth="yes"/>
      <point x="202" y="-195"/>
      <point x="184" y="-193" type="qcurve"/>
      <point x="184" y="-127" type="line"/>
      <point x="274" y="-127"/>
      <point x="306" y="-119" type="qcurve" smooth="yes"/>
      <point x="361" y="-103"/>
      <point x="361" y="-60" type="qcurve" smooth="yes"/>
      <point x="361" y="-29"/>
      <point x="306" y="-9" type="qcurve" smooth="yes"/>
      <point x="193" y="28" type="line"/>
      <point x="83" y="70"/>
      <point x="59" y="160" type="qcurve" smooth="yes"/>
      <point x="52" y="186"/>
      <point x="52" y="219" type="qcurve" smooth="yes"/>
      <point x="52" y="398"/>
      <point x="230" y="581" type="qcurve" smooth="yes"/>
      <point x="274" y="626"/>
      <point x="325" y="666" type="qcurve"/>
      <point x="104" y="666" type="line"/>
      <point x="104" y="737" type="line"/>
      <point x="447" y="737" type="line"/>
      <point x="447" y="688" type="line"/>
      <point x="299" y="578"/>
      <point x="216" y="441" type="qcurve" smooth="yes"/>
      <point x="148" y="332"/>
      <point x="148" y="233" type="qcurve" smooth="yes"/>
      <point x="148" y="141"/>
      <point x="231" y="101" type="qcurve" smooth="yes"/>
      <point x="249" y="94"/>
      <point x="334" y="67" type="qcurve" smooth="yes"/>
      <point x="414" y="42"/>
      <point x="436" y="3" type="qcurve" smooth="yes"/>
      <point x="451" y="-20"/>
    </contour>
  </outline>
</glyph>
<glyph name="iotadieresis" format="2">
  <advance width="256" height="256"/>
  <unicode hex="03CA"/>
  <outline>
    <contour>
      <point x="256" y="611" type="line"/>
      <point x="165" y="611" type="line"/>
      <point x="165" y="716" type="line"/>
      <point x="256" y="716" type="line"/>
    </contour>
    <contour>
      <point x="91" y="611" type="line"/>
      <point x="0" y="611" type="line"/>
      <point x="0" y="716" type="line"/>
      <point x="91" y="716" type="line"/>
    </contour>
    <contour>
      <point x="176" y="0" type="line"/>
      <point x="81" y="0" type="line"/>
      <point x="81" y="514" type="line"/>
      <point x="176" y="514" type="line"/>
    </contour>
  </outline>
</glyph>
<glyph name="upsilondieresis" format="2">
  <advance width="585" height="585"/>
  <unicode hex="03CB"/>
  <outline>
    <contour>
      <point x="421" y="611" type="line"/>
      <point x="330" y="611" type="line"/>
      <point x="330" y="716" type="line"/>
      <point x="421" y="716" type="line"/>
    </contour>
    <contour>
      <point x="256" y="611" type="line"/>
      <point x="165" y="611" type="line"/>
      <point x="165" y="716" type="line"/>
      <point x="256" y="716" type="line"/>
    </contour>
    <contour>
      <point x="508" y="191" type="line" smooth="yes"/>
      <point x="508" y="31"/>
      <point x="377" y="-1" type="qcurve" smooth="yes"/>
      <point x="341" y="-9"/>
      <point x="293" y="-9" type="qcurve" smooth="yes"/>
      <point x="131" y="-9"/>
      <point x="92" y="99" type="qcurve" smooth="yes"/>
      <point x="79" y="137"/>
      <point x="79" y="191" type="qcurve" smooth="yes"/>
      <point x="79" y="514" type="line"/>
      <point x="173" y="514" type="line"/>
      <point x="173" y="186" type="line" smooth="yes"/>
      <point x="173" y="61"/>
      <point x="413" y="61"/>
      <point x="413" y="186" type="qcurve" smooth="yes"/>
      <point x="413" y="514" type="line"/>
      <point x="508" y="514" type="line"/>
    </contour>
  </outline>
</glyph>
<glyph name="omegatonos" format="2">
  <advance width="779" height="779"/>
  <unicode hex="03CE"/>
  <outline>
    <contour>
      <point x="438" y="782" type="line"/>
      <point x="423" y="608" type="line"/>
      <point x="356" y="608" type="line"/>
      <point x="342" y="782" type="line"/>
    </contour>
    <contour>
      <point x="739" y="223" type="qcurve" smooth="yes"/>
      <point x="739" y="88"/>
      <point x="657" y="27" type="qcurve" smooth="yes"/>
      <point x="614" y="-6"/>
      <point x="553" y="-10" type="qcurve" smooth="yes"/>
      <point x="544" y="-11"/>
      <point x="535" y="-11" type="qcurve" smooth="yes"/>
      <point x="415" y="-11"/>
      <point x="389" y="98" type="qcurve"/>
      <point x="364" y="-11"/>
      <point x="244" y="-11" type="qcurve" smooth="yes"/>
      <point x="112" y="-11"/>
      <point x="62" y="102" type="qcurve" smooth="yes"/>
      <point x="40" y="155"/>
      <point x="40" y="223" type="qcurve" smooth="yes"/>
      <point x="40" y="359"/>
      <point x="121" y="514" type="qcurve"/>
      <point x="208" y="514" type="line"/>
      <point x="132" y="353"/>
      <point x="132" y="229" type="qcurve" smooth="yes"/>
      <point x="132" y="74"/>
      <point x="228" y="60" type="qcurve" smooth="yes"/>
      <point x="237" y="59"/>
      <point x="246" y="59" type="qcurve" smooth="yes"/>
      <point x="347" y="59"/>
      <point x="347" y="206" type="qcurve" smooth="yes"/>
      <point x="347" y="399" type="line"/>
      <point x="432" y="399" type="line"/>
      <point x="432" y="206" type="line" smooth="yes"/>
      <point x="432" y="59"/>
      <point x="534" y="59" type="qcurve" smooth="yes"/>
      <point x="637" y="59"/>
      <point x="645" y="206" type="qcurve" smooth="yes"/>
      <point x="646" y="217"/>
      <point x="646" y="229" type="qcurve" smooth="yes"/>
      <point x="646" y="355"/>
      <point x="571" y="514" type="qcurve"/>
      <point x="658" y="514" type="line"/>
      <point x="739" y="359"/>
    </contour>
  </outline>
</glyph>
<glyph name="afii10054" format="2">
  <advance width="671" height="671"/>
  <unicode hex="0405"/>
  <outline>
    <contour>
      <point x="614" y="217" type="qcurve" smooth="yes"/>
      <point x="614" y="46"/>
      <point x="442" y="2" type="qcurve" smooth="yes"/>
      <point x="391" y="-11"/>
      <point x="327" y="-11" type="qcurve" smooth="yes"/>
      <point x="129" y="-11"/>
      <point x="78" y="103" type="qcurve" smooth="yes"/>
      <point x="57" y="150"/>
      <point x="57" y="216" type="qcurve"/>
      <point x="163" y="216" type="line"/>
      <point x="168" y="89"/>
      <point x="298" y="77" type="qcurve" smooth="yes"/>
      <point x="314" y="75"/>
      <point x="333" y="75" type="qcurve" smooth="yes"/>
      <point x="446" y="75"/>
      <point x="490" y="134" type="qcurve" smooth="yes"/>
      <point x="512" y="163"/>
      <point x="512" y="203" type="qcurve" smooth="yes"/>
      <point x="512" y="288"/>
      <point x="334" y="333" type="qcurve" smooth="yes"/>
      <point x="218" y="362"/>
      <point x="207" y="366" type="qcurve" smooth="yes"/>
      <point x="100" y="401"/>
      <point x="75" y="478" type="qcurve" smooth="yes"/>
      <point x="66" y="507"/>
      <point x="66" y="542" type="qcurve" smooth="yes"/>
      <point x="66" y="676"/>
      <point x="203" y="726" type="qcurve" smooth="yes"/>
      <point x="265" y="749"/>
      <point x="344" y="749" type="qcurve" smooth="yes"/>
      <point x="524" y="749"/>
      <point x="573" y="639" type="qcurve" smooth="yes"/>
      <point x="590" y="602"/>
      <point x="590" y="555" type="qcurve"/>
      <point x="490" y="555" type="line"/>
      <point x="487" y="656"/>
      <point x="361" y="667" type="qcurve" smooth="yes"/>
      <point x="349" y="668"/>
      <point x="335" y="668" type="qcurve" smooth="yes"/>
      <point x="236" y="668"/>
      <point x="193" y="614" type="qcurve"/>
      <point x="179" y="593" type="line"/>
      <point x="171" y="565" type="line"/>
      <point x="170" y="547" type="line" smooth="yes"/>
      <point x="170" y="476"/>
      <point x="334" y="433" type="qcurve" smooth="yes"/>
      <point x="453" y="402"/>
      <point x="472" y="395" type="qcurve" smooth="yes"/>
      <point x="588" y="354"/>
      <point x="609" y="266" type="qcurve" smooth="yes"/>
      <point x="614" y="244"/>
    </contour>
  </outline>
</glyph>
<glyph name="afii10056" format="2">
  <advance width="269" height="269"/>
  <unicode hex="0407"/>
  <outline>
    <contour>
      <point x="262" y="834" type="line"/>
      <point x="171" y="834" type="line"/>
      <point x="171" y="938" type="line"/>
      <point x="262" y="938" type="line"/>
    </contour>
    <contour>
      <point x="97" y="834" type="line"/>
      <point x="6" y="834" type="line"/>
      <point x="6" y="938" type="line"/>
      <point x="97" y="938" type="line"/>
    </contour>
    <contour>
      <point x="183" y="0" type="line"/>
      <point x="85" y="0" type="line"/>
      <point x="85" y="737" type="line"/>
      <point x="183" y="737" type="line"/>
    </contour>
  </outline>
</glyph>
<glyph name="afii10062" format="2">
  <advance width="591" height="591"/>
  <unicode hex="040E"/>
  <outline>
    <contour>
      <point x="454" y="962" type="line"/>
      <point x="445" y="843"/>
      <point x="340" y="825" type="qcurve" smooth="yes"/>
      <point x="319" y="822"/>
      <point x="296" y="822" type="qcurve" smooth="yes"/>
      <point x="148" y="822"/>
      <point x="138" y="962" type="qcurve"/>
      <point x="215" y="962" type="line"/>
      <point x="220" y="878"/>
      <point x="296" y="878" type="qcurve" smooth="yes"/>
      <point x="369" y="878"/>
      <point x="375" y="950" type="qcurve" smooth="yes"/>
      <point x="376" y="956"/>
      <point x="376" y="962" type="qcurve"/>
    </contour>
    <contour>
      <point x="595" y="736" type="line"/>
      <point x="301" y="127" type="line" smooth="yes"/>
      <point x="255" y="31"/>
      <point x="180" y="9" type="qcurve" smooth="yes"/>
      <point x="152" y="0"/>
      <point x="115" y="0" type="qcurve" smooth="yes"/>
      <point x="90" y="0"/>
      <point x="63" y="8" type="qcurve"/>
      <point x="63" y="90" type="line"/>
      <point x="84" y="85"/>
      <point x="102" y="85" type="qcurve" smooth="yes"/>
      <point x="170" y="85"/>
      <point x="206" y="143" type="qcurve" smooth="yes"/>
      <point x="212" y="155"/>
      <point x="219" y="168" type="qcurve" smooth="yes"/>
      <point x="274" y="283" type="line"/>
      <point x="16" y="736" type="line"/>
      <point x="129" y="736" type="line"/>
      <point x="327" y="389" type="line"/>
      <point x="495" y="736" type="line"/>
    </contour>
  </outline>
</glyph>
<glyph name="afii10021" format="2">
  <advance width="744" height="744"/>
  <unicode hex="0414"/>
  <outline>
    <contour>
      <point x="728" y="-108" type="line"/>
      <point x="647" y="-108" type="line"/>
      <point x="642" y="17" type="line"/>
      <point x="97" y="17" type="line"/>
      <point x="92" y="-108" type="line"/>
      <point x="12" y="-108" type="line"/>
      <point x="12" y="104" type="line"/>
      <point x="67" y="104" type="line"/>
      <point x="180" y="292"/>
      <point x="202" y="737" type="qcurve"/>
      <point x="647" y="737" type="line"/>
      <point x="647" y="104" type="line"/>
      <point x="728" y="104" type="line"/>
    </contour>
    <contour>
      <point x="549" y="104" type="line"/>
      <point x="549" y="650" type="line"/>
      <point x="295" y="650" type="line"/>
      <point x="269" y="275"/>
      <point x="173" y="104" type="qcurve"/>
    </contour>
  </outline>
</glyph>
<glyph name="afii10024" format="2">
  <advance width="970" height="970"/>
  <unicode hex="0416"/>
  <outline>
    <contour>
      <point x="963" y="0" type="line"/>
      <point x="834" y="0" type="line"/>
      <point x="649" y="279" type="line"/>
      <point x="598" y="348"/>
      <point x="535" y="350" type="qcurve"/>
      <point x="535" y="0" type="line"/>
      <point x="436" y="0" type="line"/>
      <point x="436" y="350" type="line"/>
      <point x="433" y="350" type="line" smooth="yes"/>
      <point x="369" y="350"/>
      <point x="322" y="279" type="qcurve" smooth="yes"/>
      <point x="138" y="0" type="line"/>
      <point x="8" y="0" type="line"/>
      <point x="204" y="286" type="line" smooth="yes"/>
      <point x="274" y="390"/>
      <point x="340" y="395" type="qcurve"/>
      <point x="288" y="409"/>
      <point x="214" y="510" type="qcurve" smooth="yes"/>
      <point x="148" y="601"/>
      <point x="145" y="604" type="qcurve" smooth="yes"/>
      <point x="126" y="629"/>
      <point x="111" y="637" type="qcurve" smooth="yes"/>
      <point x="90" y="648"/>
      <point x="62" y="648" type="qcurve"/>
      <point x="62" y="737" type="line"/>
      <point x="118" y="737"/>
      <point x="151" y="720" type="qcurve" smooth="yes"/>
      <point x="188" y="699"/>
      <point x="259" y="602" type="qcurve" smooth="yes"/>
      <point x="335" y="498"/>
      <point x="364" y="469" type="qcurve" smooth="yes"/>
      <point x="403" y="430"/>
      <point x="436" y="430" type="qcurve"/>
      <point x="436" y="737" type="line"/>
      <point x="535" y="737" type="line"/>
      <point x="535" y="430" type="line"/>
      <point x="540" y="430" type="line" smooth="yes"/>
      <point x="582" y="430"/>
      <point x="660" y="532" type="qcurve" smooth="yes"/>
      <point x="756" y="658" type="line" smooth="yes"/>
      <point x="795" y="707"/>
      <point x="821" y="720" type="qcurve" smooth="yes"/>
      <point x="854" y="737"/>
      <point x="909" y="737" type="qcurve"/>
      <point x="909" y="648" type="line"/>
      <point x="902" y="648" type="line" smooth="yes"/>
      <point x="858" y="648"/>
      <point x="800" y="571" type="qcurve" smooth="yes"/>
      <point x="726" y="469" type="line"/>
      <point x="676" y="407"/>
      <point x="631" y="395" type="qcurve"/>
      <point x="698" y="389"/>
      <point x="768" y="286" type="qcurve" smooth="yes"/>
    </contour>
  </outline>
</glyph>
<glyph name="afii10032" format="2">
  <advance width="789" height="789"/>
  <unicode hex="041E"/>
  <outline>
    <contour>
      <point x="731" y="367" type="qcurve" smooth="yes"/>
      <point x="731" y="136"/>
      <point x="593" y="43" type="qcurve" smooth="yes"/>
      <point x="514" y="-11"/>
      <point x="395" y="-11" type="qcurve" smooth="yes"/>
      <point x="181" y="-11"/>
      <point x="100" y="159" type="qcurve" smooth="yes"/>
      <point x="58" y="245"/>
      <point x="58" y="367" type="qcurve" smooth="yes"/>
      <point x="58" y="603"/>
      <point x="200" y="696" type="qcurve" smooth="yes"/>
      <point x="279" y="749"/>
      <point x="395" y="749" type="qcurve" smooth="yes"/>
      <point x="624" y="749"/>
      <point x="699" y="558" type="qcurve" smooth="yes"/>
      <point x="731" y="476"/>
    </contour>
    <contour>
      <point x="625" y="370" type="qcurve" smooth="yes"/>
      <point x="625" y="579"/>
      <point x="505" y="642" type="qcurve" smooth="yes"/>
      <point x="458" y="668"/>
      <point x="394" y="668" type="qcurve" smooth="yes"/>
      <point x="224" y="668"/>
      <point x="178" y="495" type="qcurve" smooth="yes"/>
      <point x="164" y="440"/>
      <point x="164" y="372" type="qcurve" smooth="yes"/>
      <point x="164" y="178"/>
      <point x="269" y="108" type="qcurve" smooth="yes"/>
      <point x="321" y="73"/>
      <point x="394" y="73" type="qcurve" smooth="yes"/>
      <point x="577" y="73"/>
      <point x="615" y="266" type="qcurve" smooth="yes"/>
      <point x="625" y="313"/>
    </contour>
  </outline>
</glyph>
<glyph name="afii10035" format="2">
  <advance width="677" height="677"/>
  <unicode hex="0421"/>
  <outline>
    <contour>
      <point x="634" y="199" type="line"/>
      <point x="632" y="67"/>
      <point x="505" y="14" type="qcurve" smooth="yes"/>
      <point x="443" y="-11"/>
      <point x="365" y="-11" type="qcurve" smooth="yes"/>
      <point x="132" y="-11"/>
      <point x="75" y="213" type="qcurve" smooth="yes"/>
      <point x="57" y="280"/>
      <point x="57" y="365" type="qcurve" smooth="yes"/>
      <point x="57" y="601"/>
      <point x="188" y="695" type="qcurve" smooth="yes"/>
      <point x="262" y="749"/>
      <point x="373" y="749" type="qcurve" smooth="yes"/>
      <point x="525" y="749"/>
      <point x="592" y="664" type="qcurve" smooth="yes"/>
      <point x="629" y="616"/>
      <point x="632" y="549" type="qcurve" smooth="yes"/>
      <point x="632" y="544" type="line"/>
      <point x="527" y="544" type="line"/>
      <point x="519" y="622"/>
      <point x="445" y="655" type="qcurve" smooth="yes"/>
      <point x="411" y="671"/>
      <point x="370" y="671" type="qcurve" smooth="yes"/>
      <point x="221" y="671"/>
      <point x="178" y="500" type="qcurve" smooth="yes"/>
      <point x="163" y="440"/>
      <point x="163" y="368" type="qcurve" smooth="yes"/>
      <point x="163" y="181"/>
      <point x="252" y="110" type="qcurve" smooth="yes"/>
      <point x="298" y="73"/>
      <point x="365" y="73" type="qcurve" smooth="yes"/>
      <point x="472" y="73"/>
      <point x="510" y="146" type="qcurve" smooth="yes"/>
      <point x="521" y="170"/>
      <point x="524" y="199" type="qcurve"/>
    </contour>
  </outline>
</glyph>
<glyph name="afii10065" format="2">
  <advance width="543" height="543"/>
  <unicode hex="0430"/>
  <outline>
    <contour>
      <point x="474" y="0" type="qcurve"/>
      <point x="389" y="0" type="line"/>
      <point x="382" y="19"/>
      <point x="379" y="81" type="qcurve"/>
      <point x="341" y="-11"/>
      <point x="214" y="-11" type="qcurve" smooth="yes"/>
      <point x="116" y="-11"/>
      <point x="69" y="53" type="qcurve" smooth="yes"/>
      <point x="42" y="90"/>
      <point x="42" y="142" type="qcurve" smooth="yes"/>
      <point x="42" y="261"/>
      <point x="169" y="302" type="qcurve" smooth="yes"/>
      <point x="221" y="319"/>
      <point x="285" y="319" type="qcurve" smooth="yes"/>
      <point x="374" y="319" type="line"/>
      <point x="374" y="382" type="line" smooth="yes"/>
      <point x="374" y="466"/>
      <point x="272" y="466" type="qcurve" smooth="yes"/>
      <point x="199" y="466"/>
      <point x="175" y="412" type="qcurve"/>
      <point x="169" y="386" type="line" smooth="yes"/>
      <point x="168" y="382"/>
      <point x="168" y="378" type="qcurve"/>
      <point x="77" y="378" type="line"/>
      <point x="77" y="384" type="line" smooth="yes"/>
      <point x="77" y="512"/>
      <point x="233" y="525" type="qcurve" smooth="yes"/>
      <point x="249" y="526"/>
      <point x="266" y="526" type="qcurve" smooth="yes"/>
      <point x="409" y="526"/>
      <point x="449" y="456" type="qcurve" smooth="yes"/>
      <point x="469" y="421"/>
      <point x="469" y="367" type="qcurve" smooth="yes"/>
      <point x="469" y="62" type="line" smooth="yes"/>
      <point x="469" y="26"/>
    </contour>
    <contour>
      <point x="374" y="204" type="qcurve" smooth="yes"/>
      <point x="374" y="255" type="line"/>
      <point x="294" y="255" type="line" smooth="yes"/>
      <point x="173" y="255"/>
      <point x="146" y="188" type="qcurve" smooth="yes"/>
      <point x="139" y="172"/>
      <point x="139" y="152" type="qcurve" smooth="yes"/>
      <point x="139" y="95"/>
      <point x="193" y="73" type="qcurve" smooth="yes"/>
      <point x="213" y="65"/>
      <point x="237" y="65" type="qcurve" smooth="yes"/>
      <point x="353" y="65"/>
      <point x="371" y="169" type="qcurve" smooth="yes"/>
      <point x="374" y="185"/>
    </contour>
  </outline>
</glyph>
<glyph name="afii10066" format="2">
  <advance width="616" height="616"/>
  <unicode hex="0431"/>
  <outline>
    <contour>
      <point x="562" y="261" type="qcurve" smooth="yes"/>
      <point x="562" y="97"/>
      <point x="456" y="29" type="qcurve" smooth="yes"/>
      <point x="395" y="-11"/>
      <point x="307" y="-11" type="qcurve" smooth="yes"/>
      <point x="86" y="-11"/>
      <point x="57" y="211" type="qcurve" smooth="yes"/>
      <point x="52" y="247"/>
      <point x="52" y="290" type="qcurve" smooth="yes"/>
      <point x="52" y="527"/>
      <point x="145" y="616" type="qcurve" smooth="yes"/>
      <point x="200" y="670"/>
      <point x="288" y="679" type="qcurve" smooth="yes"/>
      <point x="375" y="686" type="line"/>
      <point x="434" y="695"/>
      <point x="441" y="725" type="qcurve"/>
      <point x="536" y="725" type="line"/>
      <point x="529" y="637"/>
      <point x="454" y="616" type="qcurve"/>
      <point x="408" y="609" type="line"/>
      <point x="290" y="602" type="line" smooth="yes"/>
      <point x="227" y="595"/>
      <point x="197" y="563" type="qcurve" smooth="yes"/>
      <point x="164" y="529"/>
      <point x="150" y="435" type="qcurve"/>
      <point x="203" y="526"/>
      <point x="319" y="526" type="qcurve" smooth="yes"/>
      <point x="464" y="526"/>
      <point x="527" y="413" type="qcurve" smooth="yes"/>
      <point x="562" y="349"/>
    </contour>
    <contour>
      <point x="466" y="260" type="qcurve" smooth="yes"/>
      <point x="466" y="398"/>
      <point x="383" y="441" type="qcurve" smooth="yes"/>
      <point x="351" y="458"/>
      <point x="309" y="458" type="qcurve" smooth="yes"/>
      <point x="204" y="458"/>
      <point x="166" y="350" type="qcurve" smooth="yes"/>
      <point x="151" y="306"/>
      <point x="151" y="252" type="qcurve" smooth="yes"/>
      <point x="151" y="117"/>
      <point x="234" y="75" type="qcurve" smooth="yes"/>
      <point x="265" y="59"/>
      <point x="307" y="59" type="qcurve" smooth="yes"/>
      <point x="420" y="59"/>
      <point x="454" y="173" type="qcurve" smooth="yes"/>
      <point x="466" y="212"/>
    </contour>
  </outline>
</glyph>
<glyph name="afii10068" format="2">
  <advance width="436" height="436"/>
  <unicode hex="0433"/>
  <outline>
    <contour>
      <point x="412" y="446" type="line"/>
      <point x="179" y="446" type="line"/>
      <point x="179" y="0" type="line"/>
      <point x="83" y="0" type="line"/>
      <point x="83" y="514" type="line"/>
      <point x="412" y="514" type="line"/>
    </contour>
  </outline>
</glyph>
<glyph name="afii10079" format="2">
  <advance width="601" height="601"/>
  <unicode hex="043D"/>
  <outline>
    <contour>
      <point x="518" y="0" type="line"/>
      <point x="423" y="0" type="line"/>
      <point x="423" y="230" type="line"/>
      <point x="179" y="230" type="line"/>
      <point x="179" y="0" type="line"/>
      <point x="83" y="0" type="line"/>
      <point x="83" y="514" type="line"/>
      <point x="179" y="514" type="line"/>
      <point x="179" y="299" type="line"/>
      <point x="423" y="299" type="line"/>
      <point x="423" y="514" type="line"/>
      <point x="518" y="514" type="line"/>
    </contour>
  </outline>
</glyph>
<glyph name="afii10082" format="2">
  <advance width="616" height="616"/>
  <unicode hex="0440"/>
  <outline>
    <contour>
      <point x="565" y="259" type="qcurve" smooth="yes"/>
      <point x="565" y="65"/>
      <point x="439" y="11" type="qcurve" smooth="yes"/>
      <point x="397" y="-7"/>
      <point x="341" y="-7" type="qcurve" smooth="yes"/>
      <point x="234" y="-7"/>
      <point x="173" y="79" type="qcurve"/>
      <point x="173" y="-194" type="line"/>
      <point x="79" y="-194" type="line"/>
      <point x="79" y="413" type="line" smooth="yes"/>
      <point x="79" y="463"/>
      <point x="73" y="514" type="qcurve"/>
      <point x="169" y="514" type="line"/>
      <point x="173" y="437" type="line"/>
      <point x="228" y="526"/>
      <point x="339" y="526" type="qcurve" smooth="yes"/>
      <point x="488" y="526"/>
      <point x="542" y="394" type="qcurve" smooth="yes"/>
      <point x="565" y="336"/>
    </contour>
    <contour>
      <point x="468" y="252" type="qcurve" smooth="yes"/>
      <point x="468" y="372"/>
      <point x="411" y="428" type="qcurve" smooth="yes"/>
      <point x="375" y="464"/>
      <point x="322" y="464" type="qcurve" smooth="yes"/>
      <point x="223" y="464"/>
      <point x="187" y="361" type="qcurve" smooth="yes"/>
      <point x="173" y="318"/>
      <point x="173" y="267" type="qcurve" smooth="yes"/>
      <point x="173" y="148"/>
      <point x="230" y="90" type="qcurve" smooth="yes"/>
      <point x="265" y="54"/>
      <point x="319" y="54" type="qcurve" smooth="yes"/>
      <point x="417" y="54"/>
      <point x="453" y="157" type="qcurve" smooth="yes"/>
      <point x="468" y="200"/>
    </contour>
  </outline>
</glyph>
<glyph name="afii10083" format="2">
  <advance width="528" height="528"/>
  <unicode hex="0441"/>
  <outline>
    <contour>
      <point x="478" y="173" type="line"/>
      <point x="466" y="4"/>
      <point x="306" y="-10" type="qcurve" smooth="yes"/>
      <point x="293" y="-11"/>
      <point x="278" y="-11" type="qcurve" smooth="yes"/>
      <point x="112" y="-11"/>
      <point x="66" y="133" type="qcurve" smooth="yes"/>
      <point x="49" y="182"/>
      <point x="49" y="246" type="qcurve" smooth="yes"/>
      <point x="49" y="417"/>
      <point x="148" y="487" type="qcurve" smooth="yes"/>
      <point x="204" y="526"/>
      <point x="285" y="526" type="qcurve" smooth="yes"/>
      <point x="396" y="526"/>
      <point x="446" y="452" type="qcurve" smooth="yes"/>
      <point x="474" y="411"/>
      <point x="474" y="352" type="qcurve"/>
      <point x="382" y="352" type="line"/>
      <point x="381" y="426"/>
      <point x="324" y="451" type="qcurve" smooth="yes"/>
      <point x="303" y="460"/>
      <point x="278" y="460" type="qcurve" smooth="yes"/>
      <point x="180" y="460"/>
      <point x="155" y="336" type="qcurve" smooth="yes"/>
      <point x="147" y="300"/>
      <point x="147" y="260" type="qcurve" smooth="yes"/>
      <point x="147" y="91"/>
      <point x="241" y="63" type="qcurve" smooth="yes"/>
      <point x="257" y="59"/>
      <point x="275" y="59" type="qcurve" smooth="yes"/>
      <point x="352" y="59"/>
      <point x="378" y="128" type="qcurve" smooth="yes"/>
      <point x="385" y="148"/>
      <point x="386" y="173" type="qcurve"/>
    </contour>
  </outline>
</glyph>
<glyph name="afii10085" format="2">
  <advance width="556" height="556"/>
  <unicode hex="0443"/>
  <outline>
    <contour>
      <point x="537" y="514" type="line"/>
      <point x="236" y="-194" type="line"/>
      <point x="147" y="-194" type="line"/>
      <point x="226" y="0" type="line"/>
      <point x="16" y="514" type="line"/>
      <point x="113" y="514" type="line"/>
      <point x="276" y="106" type="line"/>
      <point x="442" y="514" type="line"/>
    </contour>
  </outline>
</glyph>
<glyph name="afii10090" format="2">
  <advance width="823" height="823"/>
  <unicode hex="0448"/>
  <outline>
    <contour>
      <point x="740" y="0" type="line"/>
      <point x="83" y="0" type="line"/>
      <point x="83" y="514" type="line"/>
      <point x="179" y="514" type="line"/>
      <point x="179" y="68" type="line"/>
      <point x="366" y="68" type="line"/>
      <point x="366" y="514" type="line"/>
      <point x="460" y="514" type="line"/>
      <point x="460" y="68" type="line"/>
      <point x="646" y="68" type="line"/>
      <point x="646" y="514" type="line"/>
      <point x="740" y="514" type="line"/>
    </contour>
  </outline>
</glyph>
<glyph name="afii10097" format="2">
  <advance width="544" height="544"/>
  <unicode hex="044F"/>
  <outline>
    <contour>
      <point x="462" y="0" type="line"/>
      <point x="368" y="0" type="line"/>
      <point x="368" y="230" type="line"/>
      <point x="278" y="230" type="line" smooth="yes"/>
      <point x="199" y="230"/>
      <point x="177" y="200" type="qcurve"/>
      <point x="167" y="177" type="line" smooth="yes"/>
      <point x="161" y="159"/>
      <point x="154" y="104" type="qcurve" smooth="yes"/>
      <point x="145" y="46"/>
      <point x="134" y="0" type="qcurve"/>
      <point x="34" y="0" type="line"/>
      <point x="50" y="56"/>
      <point x="57" y="110" type="qcurve" smooth="yes"/>
      <point x="69" y="184"/>
      <point x="72" y="194" type="qcurve" smooth="yes"/>
      <point x="88" y="248"/>
      <point x="146" y="259" type="qcurve"/>
      <point x="66" y="280"/>
      <point x="49" y="349" type="qcurve" smooth="yes"/>
      <point x="46" y="364"/>
      <point x="46" y="380" type="qcurve" smooth="yes"/>
      <point x="46" y="514"/>
      <point x="227" y="514" type="qcurve" smooth="yes"/>
      <point x="462" y="514" type="line"/>
    </contour>
    <contour>
      <point x="368" y="297" type="line"/>
      <point x="368" y="446" type="line"/>
      <point x="261" y="446" type="line" smooth="yes"/>
      <point x="186" y="446"/>
      <point x="164" y="424" type="qcurve" smooth="yes"/>
      <point x="146" y="407"/>
      <point x="146" y="375" type="qcurve" smooth="yes"/>
      <point x="146" y="310"/>
      <point x="216" y="300" type="qcurve" smooth="yes"/>
      <point x="233" y="297"/>
      <point x="261" y="297" type="qcurve" smooth="yes"/>
    </contour>
  </outline>
</glyph>
<glyph name="afii10101" format="2">
  <advance width="528" height="528"/>
  <unicode hex="0454"/>
  <outline>
    <contour>
      <point x="478" y="173" type="line"/>
      <point x="467" y="26"/>
      <point x="341" y="-4" type="qcurve" smooth="yes"/>
      <point x="312" y="-11"/>
      <point x="279" y="-11" type="qcurve" smooth="yes"/>
      <point x="110" y="-11"/>
      <point x="63" y="148" type="qcurve" smooth="yes"/>
      <point x="49" y="201"/>
      <point x="49" y="265" type="qcurve" smooth="yes"/>
      <point x="49" y="425"/>
      <point x="144" y="490" type="qcurve" smooth="yes"/>
      <point x="196" y="526"/>
      <point x="271" y="526" type="qcurve" smooth="yes"/>
      <point x="411" y="526"/>
      <point x="457" y="419" type="qcurve" smooth="yes"/>
      <point x="470" y="389"/>
      <point x="474" y="352" type="qcurve"/>
      <point x="386" y="352" type="line"/>
      <point x="367" y="460"/>
      <point x="273" y="460" type="qcurve" smooth="yes"/>
      <point x="173" y="460"/>
      <point x="151" y="344" type="qcurve"/>
      <point x="145" y="297" type="line"/>
      <point x="342" y="297" type="line"/>
      <point x="342" y="230" type="line"/>
      <point x="145" y="230" type="line"/>
      <point x="151" y="103"/>
      <point x="224" y="70" type="qcurve" smooth="yes"/>
      <point x="247" y="59"/>
      <point x="275" y="59" type="qcurve" smooth="yes"/>
      <point x="379" y="59"/>
      <point x="392" y="173" type="qcurve"/>
    </contour>
  </outline>
</glyph>
<glyph name="afii10106" format="2">
  <advance width="813" height="813"/>
  <unicode hex="0459"/>
  <outline>
    <contour>
      <point x="783" y="164" type="qcurve" smooth="yes"/>
      <point x="783" y="42"/>
      <point x="689" y="12" type="qcurve"/>
      <point x="646" y="3" type="line"/>
      <point x="589" y="0" type="line"/>
      <point x="388" y="0" type="line"/>
      <point x="388" y="446" type="line"/>
      <point x="185" y="446" type="line"/>
      <point x="185" y="161" type="line" smooth="yes"/>
      <point x="185" y="66"/>
      <point x="159" y="34" type="qcurve"/>
      <point x="143" y="19" type="line" smooth="yes"/>
      <point x="126" y="8"/>
      <point x="101" y="4" type="qcurve" smooth="yes"/>
      <point x="81" y="0"/>
      <point x="55" y="0" type="qcurve" smooth="yes"/>
      <point x="27" y="0"/>
      <point x="12" y="4" type="qcurve"/>
      <point x="12" y="86" type="line"/>
      <point x="31" y="85" type="line"/>
      <point x="32" y="85" type="line" smooth="yes"/>
      <point x="77" y="85"/>
      <point x="85" y="113" type="qcurve" smooth="yes"/>
      <point x="89" y="125"/>
      <point x="89" y="161" type="qcurve" smooth="yes"/>
      <point x="89" y="514" type="line"/>
      <point x="483" y="514" type="line"/>
      <point x="483" y="334" type="line"/>
      <point x="607" y="334"/>
      <point x="635" y="331" type="qcurve" smooth="yes"/>
      <point x="749" y="316"/>
      <point x="774" y="232" type="qcurve" smooth="yes"/>
      <point x="783" y="203"/>
    </contour>
    <contour>
      <point x="689" y="167" type="qcurve" smooth="yes"/>
      <point x="689" y="267"/>
      <point x="587" y="267" type="qcurve" smooth="yes"/>
      <point x="483" y="267" type="line"/>
      <point x="483" y="67" type="line"/>
      <point x="587" y="67" type="line" smooth="yes"/>
      <point x="671" y="67"/>
      <point x="685" y="129" type="qcurve" smooth="yes"/>
      <point x="689" y="145"/>
    </contour>
  </outline>
</glyph>
<glyph name="afii10107" format="2">
  <advance width="833" height="833"/>
  <unicode hex="045A"/>
  <outline>
    <contour>
      <point x="803" y="155" type="qcurve" smooth="yes"/>
      <point x="803" y="36"/>
      <point x="701" y="9" type="qcurve" smooth="yes"/>
      <point x="665" y="0"/>
      <point x="609" y="0" type="qcurve" smooth="yes"/>
      <point x="408" y="0" type="line"/>
      <point x="408" y="247" type="line"/>
      <point x="179" y="247" type="line"/>
      <point x="179" y="0" type="line"/>
      <point x="83" y="0" type="line"/>
      <point x="83" y="514" type="line"/>
      <point x="179" y="514" type="line"/>
      <point x="179" y="315" type="line"/>
      <point x="408" y="315" type="line"/>
      <point x="408" y="514" type="line"/>
      <point x="503" y="514" type="line"/>
      <point x="503" y="316" type="line"/>
      <point x="625" y="316"/>
      <point x="651" y="313" type="qcurve" smooth="yes"/>
      <point x="774" y="299"/>
      <point x="797" y="208" type="qcurve" smooth="yes"/>
      <point x="803" y="184"/>
    </contour>
    <contour>
      <point x="709" y="155" type="qcurve"/>
      <point x="709" y="247"/>
      <point x="607" y="247" type="qcurve" smooth="yes"/>
      <point x="503" y="247" type="line"/>
      <point x="503" y="67" type="line"/>
      <point x="607" y="67" type="line"/>
      <point x="705" y="75"/>
    </contour>
  </outline>
</glyph>
<glyph name="afii10108" format="2">
  <advance width="602" height="602"/>
  <unicode hex="045B"/>
  <outline>
    <contour>
      <point x="523" y="0" type="line"/>
      <point x="429" y="0" type="line"/>
      <point x="429" y="325" type="line" smooth="yes"/>
      <point x="429" y="438"/>
      <point x="338" y="450" type="qcurve" smooth="yes"/>
      <point x="327" y="451"/>
      <point x="314" y="451" type="qcurve" smooth="yes"/>
      <point x="239" y="451"/>
      <point x="201" y="400" type="qcurve" smooth="yes"/>
      <point x="178" y="373"/>
      <point x="178" y="334" type="qcurve" smooth="yes"/>
      <point x="178" y="0" type="line"/>
      <point x="83" y="0" type="line"/>
      <point x="83" y="595" type="line"/>
      <point x="0" y="595" type="line"/>
      <point x="0" y="662" type="line"/>
      <point x="83" y="662" type="line"/>
      <point x="83" y="737" type="line"/>
      <point x="178" y="737" type="line"/>
      <point x="178" y="662" type="line"/>
      <point x="341" y="662" type="line"/>
      <point x="341" y="595" type="line"/>
      <point x="178" y="595" type="line"/>
      <point x="178" y="429" type="line"/>
      <point x="211" y="507"/>
      <point x="310" y="518" type="qcurve" smooth="yes"/>
      <point x="325" y="520"/>
      <point x="339" y="520" type="qcurve" smooth="yes"/>
      <point x="431" y="520"/>
      <point x="483" y="468" type="qcurve" smooth="yes"/>
      <point x="509" y="442"/>
      <point x="517" y="407" type="qcurve" smooth="yes"/>
      <point x="523" y="378"/>
      <point x="523" y="318" type="qcurve" smooth="yes"/>
    </contour>
  </outline>
</glyph>
<glyph name="uni1118" format="2">
  <advance width="1024" height="1024"/>
  <unicode hex="1118"/>
  <outline>
    <contour>
      <point x="961" y="123" type="line"/>
      <point x="587" y="123" type="line"/>
      <point x="587" y="605" type="line"/>
      <point x="641" y="602" type="line" smooth="yes"/>
      <point x="651" y="602"/>
      <point x="663" y="593" type="qcurve" smooth="yes"/>
      <point x="663" y="590"/>
      <point x="654" y="571" type="qcurve"/>
      <point x="651" y="559" type="line"/>
      <point x="651" y="178" type="line"/>
      <point x="961" y="178" type="line"/>
    </contour>
    <contour>
      <point x="556" y="155" type="line"/>
      <point x="391" y="125"/>
      <point x="144" y="125" type="qcurve"/>
      <point x="144" y="413" type="line"/>
      <point x="425" y="413" type="line"/>
      <point x="425" y="551" type="line"/>
      <point x="144" y="551" type="line"/>
      <point x="144" y="607" type="line"/>
      <point x="489" y="607" type="line"/>
      <point x="489" y="358" type="line"/>
      <point x="208" y="358" type="line"/>
      <point x="208" y="180" type="line"/>
      <point x="426" y="180"/>
      <point x="550" y="217" type="qcurve"/>
    </contour>
  </outline>
</glyph>
<glyph name="uni1126" format="2">
  <advance width="1024" height="1024"/>
  <unicode hex="1126"/>
  <outline>
    <contour>
      <point x="941" y="161" type="qcurve"/>
      <point x="896" y="116" type="line"/>
      <point x="823" y="232"/>
      <point x="803" y="297" type="qcurve" smooth="yes"/>
      <point x="795" y="326"/>
      <point x="791" y="354" type="qcurve"/>
      <point x="772" y="238"/>
      <point x="685" y="126" type="qcurve" smooth="yes"/>
      <point x="680" y="120"/>
      <point x="676" y="115" type="qcurve"/>
      <point x="657" y="133" type="line"/>
      <point x="643" y="119" type="line"/>
      <point x="570" y="236"/>
      <point x="550" y="300" type="qcurve" smooth="yes"/>
      <point x="542" y="329"/>
      <point x="538" y="357" type="qcurve"/>
      <point x="519" y="241"/>
      <point x="432" y="129" type="qcurve" smooth="yes"/>
      <point x="427" y="123"/>
      <point x="423" y="118" type="qcurve"/>
      <point x="378" y="163" type="line"/>
      <point x="452" y="226"/>
      <point x="489" y="358" type="qcurve" smooth="yes"/>
      <point x="508" y="424"/>
      <point x="508" y="479" type="qcurve" smooth="yes"/>
      <point x="508" y="617" type="line"/>
      <point x="584" y="610"/>
      <point x="584" y="598" type="qcurve"/>
      <point x="570" y="571" type="line"/>
      <point x="569" y="564" type="line"/>
      <point x="569" y="479" type="line" smooth="yes"/>
      <point x="569" y="364"/>
      <point x="637" y="240" type="qcurve" smooth="yes"/>
      <point x="650" y="215"/>
      <point x="665" y="195" type="qcurve"/>
      <point x="731" y="282"/>
      <point x="754" y="406" type="qcurve" smooth="yes"/>
      <point x="761" y="443"/>
      <point x="761" y="476" type="qcurve" smooth="yes"/>
      <point x="761" y="553" type="line"/>
      <point x="682" y="553" type="line"/>
      <point x="682" y="609" type="line"/>
      <point x="904" y="609" type="line"/>
      <point x="904" y="553" type="line"/>
      <point x="822" y="553" type="line"/>
      <point x="822" y="476" type="line" smooth="yes"/>
      <point x="822" y="358"/>
      <point x="893" y="232" type="qcurve" smooth="yes"/>
      <point x="915" y="193"/>
    </contour>
    <contour>
      <point x="369" y="599" type="qcurve" smooth="yes"/>
      <point x="361" y="573" type="line"/>
      <point x="361" y="572" type="line"/>
      <point x="361" y="113" type="line"/>
      <point x="297" y="113" type="line"/>
      <point x="297" y="141" type="line"/>
      <point x="167" y="141" type="line"/>
      <point x="167" y="113" type="line"/>
      <point x="103" y="113" type="line"/>
      <point x="103" y="607" type="line"/>
      <point x="157" y="607" type="line" smooth="yes"/>
      <point x="175" y="607"/>
      <point x="178" y="604" type="qcurve" smooth="yes"/>
      <point x="178" y="600"/>
      <point x="170" y="588" type="qcurve" smooth="yes"/>
      <point x="167" y="583"/>
      <point x="167" y="577" type="qcurve" smooth="yes"/>
      <point x="167" y="450" type="line"/>
      <point x="297" y="450" type="line"/>
      <point x="297" y="607" type="line"/>
      <point x="340" y="607" type="line" smooth="yes"/>
      <point x="369" y="607"/>
    </contour>
    <contour>
      <point x="297" y="196" type="line"/>
      <point x="297" y="394" type="line"/>
      <point x="167" y="394" type="line"/>
      <point x="167" y="196" type="line"/>
    </contour>
  </outline>
</glyph>
<glyph name="uni112A" format="2">
  <advance width="1024" height="1024"/>
  <unicode hex="112A"/>
  <outline>
    <contour>
      <point x="898" y="551" type="line"/>
      <point x="542" y="551" type="line"/>
      <point x="542" y="607" type="line"/>
      <point x="898" y="607" type="line"/>
    </contour>
    <contour>
      <point x="916" y="125" type="line"/>
      <point x="524" y="125" type="line"/>
      <point x="524" y="180" type="line"/>
      <point x="618" y="180" type="line"/>
      <point x="598" y="515" type="line"/>
      <point x="648" y="515" type="line" smooth="yes"/>
      <point x="669" y="515"/>
      <point x="674" y="512" type="qcurve" smooth="yes"/>
      <point x="675" y="511"/>
      <point x="675" y="508" type="qcurve" smooth="yes"/>
      <point x="668" y="488" type="line"/>
      <point x="668" y="487" type="line"/>
      <point x="669" y="482" type="line"/>
      <point x="669" y="481" type="line"/>
      <point x="684" y="180" type="line"/>
      <point x="762" y="180" type="line"/>
      <point x="794" y="521" type="line"/>
      <point x="866" y="510"/>
      <point x="868" y="505" type="qcurve" smooth="yes"/>
      <point x="867" y="502"/>
      <point x="856" y="487" type="qcurve" smooth="yes"/>
      <point x="851" y="481"/>
      <point x="851" y="475" type="qcurve" smooth="yes"/>
      <point x="824" y="180" type="line"/>
      <point x="916" y="180" type="line"/>
    </contour>
    <contour>
      <point x="495" y="599" type="qcurve" smooth="yes"/>
      <point x="487" y="573" type="line"/>
      <point x="487" y="572" type="line"/>
      <point x="487" y="113" type="line"/>
      <point x="423" y="113" type="line"/>
      <point x="423" y="141" type="line"/>
      <point x="189" y="141" type="line"/>
      <point x="189" y="113" type="line"/>
      <point x="125" y="113" type="line"/>
      <point x="125" y="607" type="line"/>
      <point x="178" y="607" type="line" smooth="yes"/>
      <point x="197" y="607"/>
      <point x="200" y="604" type="qcurve" smooth="yes"/>
      <point x="200" y="601"/>
      <point x="193" y="587" type="qcurve" smooth="yes"/>
      <point x="189" y="582"/>
      <point x="189" y="577" type="qcurve" smooth="yes"/>
      <point x="189" y="450" type="line"/>
      <point x="423" y="450" type="line"/>
      <point x="423" y="607" type="line"/>
      <point x="466" y="607" type="line" smooth="yes"/>
      <point x="495" y="607"/>
    </contour>
    <contour>
      <point x="423" y="196" type="line"/>
      <point x="423" y="394" type="line"/>
      <point x="189" y="394" type="line"/>
      <point x="189" y="196" type="line"/>
    </contour>
  </outline>
</glyph>
<glyph name="uni1142" format="2">
  <advance width="1024" height="1024"/>
  <unicode hex="1142"/>
  <outline>
    <contour>
      <point x="891" y="125" type="line"/>
      <point x="536" y="125" type="line"/>
      <point x="536" y="607" type="line"/>
      <point x="874" y="607" type="line"/>
      <point x="874" y="551" type="line"/>
      <point x="600" y="551" type="line"/>
      <point x="600" y="180" type="line"/>
      <point x="891" y="180" type="line"/>
    </contour>
    <contour>
      <point x="287" y="115" type="qcurve" smooth="yes"/>
      <point x="176" y="115"/>
      <point x="126" y="221" type="qcurve" smooth="yes"/>
      <point x="98" y="281"/>
      <point x="98" y="353" type="qcurve" smooth="yes"/>
      <point x="98" y="463"/>
      <point x="159" y="530" type="qcurve" smooth="yes"/>
      <point x="200" y="575"/>
      <point x="259" y="584" type="qcurve"/>
      <point x="259" y="643" type="line"/>
      <point x="315" y="639"/>
      <point x="325" y="631" type="qcurve"/>
      <point x="325" y="628" type="line"/>
      <point x="316" y="609" type="line"/>
      <point x="316" y="584" type="line"/>
      <point x="408" y="571"/>
      <point x="451" y="471" type="qcurve" smooth="yes"/>
      <point x="474" y="416"/>
      <point x="474" y="354" type="qcurve" smooth="yes"/>
      <point x="474" y="243"/>
      <point x="415" y="173" type="qcurve" smooth="yes"/>
      <point x="365" y="115"/>
    </contour>
    <contour>
      <point x="411" y="351" type="qcurve" smooth="yes"/>
      <point x="411" y="443"/>
      <point x="366" y="497" type="qcurve" smooth="yes"/>
      <point x="345" y="520"/>
      <point x="317" y="529" type="qcurve" smooth="yes"/>
      <point x="303" y="534"/>
      <point x="287" y="534" type="qcurve" smooth="yes"/>
      <point x="207" y="534"/>
      <point x="175" y="437" type="qcurve" smooth="yes"/>
      <point x="162" y="396"/>
      <point x="162" y="351" type="qcurve" smooth="yes"/>
      <point x="162" y="259"/>
      <point x="207" y="206" type="qcurve" smooth="yes"/>
      <point x="239" y="168"/>
      <point x="287" y="168" type="qcurve" smooth="yes"/>
      <point x="366" y="168"/>
      <point x="397" y="264" type="qcurve" smooth="yes"/>
      <point x="411" y="306"/>
    </contour>
  </outline>
</glyph>
<glyph name="uni1150" format="2">
  <advance width="1024" height="1024"/>
  <unicode hex="1150"/>
  <outline>
    <contour>
      <point x="774" y="114" type="qcurve"/>
      <point x="743" y="54" type="line"/>
      <point x="627" y="110"/>
      <point x="507" y="239" type="qcurve" smooth="yes"/>
      <point x="417" y="337"/>
      <point x="378" y="423" type="qcurve"/>
      <point x="330" y="287"/>
      <point x="219" y="197" type="qcurve"/>
      <point x="219" y="197"/>
      <point x="211" y="190" type="qcurve"/>
      <point x="171" y="237" type="line"/>
      <point x="275" y="318"/>
      <point x="321" y="445" type="qcurve" smooth="yes"/>
      <point x="342" y="509"/>
      <point x="342" y="569" type="qcurve"/>
      <point x="132" y="569" type="line"/>
      <point x="132" y="626" type="line"/>
      <point x="703" y="626" type="line"/>
      <point x="703" y="569" type="line"/>
      <point x="407" y="569" type="line"/>
      <point x="410" y="465"/>
      <point x="515" y="325" type="qcurve" smooth="yes"/>
      <point x="610" y="198"/>
      <point x="715" y="139" type="qcurve" smooth="yes"/>
      <point x="746" y="122"/>
    </contour>
  </outline>
</glyph>
<glyph name="uni1151" format="2">
  <advance width="1024" height="1024"/>
  <unicode hex="1151"/>
  <outline>
    <contour>
      <point x="910" y="142" type="qcurve"/>
      <point x="880" y="83" type="line"/>
      <point x="763" y="138"/>
      <point x="643" y="267" type="qcurve" smooth="yes"/>
      <point x="553" y="366"/>
      <point x="514" y="452" type="qcurve"/>
      <point x="484" y="372"/>
      <point x="431" y="302" type="qcurve"/>
      <point x="476" y="248"/>
      <point x="523" y="210" type="qcurve" smooth="yes"/>
      <point x="589" y="156" type="line" smooth="yes"/>
      <point x="626" y="129"/>
      <point x="663" y="122" type="qcurve"/>
      <point x="632" y="62" type="line"/>
      <point x="530" y="104"/>
      <point x="425" y="219" type="qcurve" smooth="yes"/>
      <point x="413" y="231"/>
      <point x="399" y="247" type="qcurve" smooth="yes"/>
      <point x="353" y="298"/>
      <point x="300" y="394" type="qcurve" smooth="yes"/>
      <point x="286" y="420"/>
      <point x="280" y="431" type="qcurve"/>
      <point x="231" y="295"/>
      <point x="121" y="205" type="qcurve"/>
      <point x="121" y="205"/>
      <point x="113" y="199" type="qcurve"/>
      <point x="73" y="245" type="line"/>
      <point x="168" y="318"/>
      <point x="216" y="437" type="qcurve" smooth="yes"/>
      <point x="244" y="506"/>
      <point x="244" y="570" type="qcurve"/>
      <point x="72" y="570" type="line"/>
      <point x="72" y="627" type="line"/>
      <point x="730" y="627" type="line"/>
      <point x="730" y="570" type="line"/>
      <point x="545" y="570" type="line"/>
      <point x="560" y="468"/>
      <point x="667" y="335" type="qcurve" smooth="yes"/>
      <point x="769" y="206"/>
      <point x="872" y="157" type="qcurve" smooth="yes"/>
      <point x="892" y="147"/>
    </contour>
    <contour>
      <point x="478" y="570" type="qcurve"/>
      <point x="308" y="570" type="line"/>
      <point x="313" y="498"/>
      <point x="366" y="400" type="qcurve" smooth="yes"/>
      <point x="380" y="374"/>
      <point x="394" y="355" type="qcurve"/>
      <point x="474" y="476"/>
    </contour>
  </outline>
</glyph>
<glyph name="uni1152" format="2">
  <advance width="1024" height="1024"/>
  <unicode hex="1152"/>
  <outline>
    <contour>
      <point x="889" y="113" type="line"/>
      <point x="823" y="113" type="line"/>
      <point x="823" y="377" type="line"/>
      <point x="688" y="359"/>
      <point x="581" y="350" type="qcurve" smooth="yes"/>
      <point x="572" y="350"/>
      <point x="568" y="346" type="qcurve" smooth="yes"/>
      <point x="550" y="334" type="line"/>
      <point x="549" y="334" type="line" smooth="yes"/>
      <point x="537" y="334"/>
      <point x="520" y="401" type="qcurve"/>
      <point x="525" y="401" type="line" smooth="yes"/>
      <point x="598" y="401"/>
      <point x="800" y="424" type="qcurve" smooth="yes"/>
      <point x="812" y="425"/>
      <point x="823" y="426" type="qcurve"/>
      <point x="823" y="550" type="line"/>
      <point x="520" y="550" type="line"/>
      <point x="520" y="607" type="line"/>
      <point x="889" y="607" type="line"/>
    </contour>
    <contour>
      <point x="449" y="598" type="line"/>
      <point x="250" y="598" type="line"/>
      <point x="250" y="654" type="line"/>
      <point x="449" y="654" type="line"/>
    </contour>
    <contour>
      <point x="574" y="169" type="qcurve"/>
      <point x="538" y="111" type="line"/>
      <point x="389" y="193"/>
      <point x="343" y="374" type="qcurve"/>
      <point x="292" y="191"/>
      <point x="152" y="111" type="qcurve"/>
      <point x="115" y="168" type="line"/>
      <point x="175" y="195"/>
      <point x="225" y="268" type="qcurve" smooth="yes"/>
      <point x="232" y="279"/>
      <point x="254" y="312" type="qcurve" smooth="yes"/>
      <point x="299" y="383"/>
      <point x="308" y="452" type="qcurve" smooth="yes"/>
      <point x="308" y="457"/>
      <point x="309" y="463" type="qcurve"/>
      <point x="157" y="463" type="line"/>
      <point x="157" y="519" type="line"/>
      <point x="532" y="519" type="line"/>
      <point x="532" y="463" type="line"/>
      <point x="377" y="463" type="line"/>
      <point x="388" y="356"/>
      <point x="461" y="262" type="qcurve" smooth="yes"/>
      <point x="512" y="196"/>
    </contour>
  </outline>
</glyph>
<glyph name="uni1153" format="2">
  <advance width="1024" height="1024"/>
  <unicode hex="1153"/>
  <outline>
    <contour>
      <point x="792" y="589" type="line"/>
      <point x="593" y="589" type="line"/>
      <point x="593" y="645" type="line"/>
      <point x="792" y="645" type="line"/>
    </contour>
    <contour>
      <point x="862" y="224" type="qcurve" smooth="yes"/>
      <point x="862" y="147"/>
      <point x="782" y="109" type="qcurve" smooth="yes"/>
      <point x="738" y="88"/>
      <point x="689" y="88" type="qcurve" smooth="yes"/>
      <point x="598" y="88"/>
      <point x="549" y="140" type="qcurve" smooth="yes"/>
      <point x="515" y="175"/>
      <point x="515" y="226" type="qcurve" smooth="yes"/>
      <point x="515" y="334"/>
      <point x="611" y="369" type="qcurve" smooth="yes"/>
      <point x="636" y="377"/>
      <point x="665" y="380" type="qcurve"/>
      <point x="665" y="424" type="line"/>
      <point x="733" y="424"/>
      <point x="733" y="414" type="qcurve" smooth="yes"/>
      <point x="733" y="410"/>
      <point x="721" y="397" type="qcurve"/>
      <point x="719" y="382" type="line"/>
      <point x="719" y="380" type="line"/>
      <point x="814" y="370"/>
      <point x="848" y="294" type="qcurve" smooth="yes"/>
      <point x="862" y="263"/>
    </contour>
    <contour>
      <point x="802" y="232" type="qcurve" smooth="yes"/>
      <point x="802" y="306"/>
      <point x="734" y="328" type="qcurve" smooth="yes"/>
      <point x="714" y="334"/>
      <point x="689" y="334" type="qcurve" smooth="yes"/>
      <point x="610" y="334"/>
      <point x="586" y="276" type="qcurve" smooth="yes"/>
      <point x="578" y="257"/>
      <point x="578" y="232" type="qcurve" smooth="yes"/>
      <point x="578" y="159"/>
      <point x="645" y="137" type="qcurve" smooth="yes"/>
      <point x="666" y="131"/>
      <point x="689" y="131" type="qcurve" smooth="yes"/>
      <point x="767" y="131"/>
      <point x="793" y="187" type="qcurve" smooth="yes"/>
      <point x="802" y="207"/>
    </contour>
    <contour>
      <point x="390" y="587" type="line"/>
      <point x="191" y="587" type="line"/>
      <point x="191" y="643" type="line"/>
      <point x="390" y="643" type="line"/>
    </contour>
    <contour>
      <point x="932" y="452" type="line"/>
      <point x="318" y="452" type="line"/>
      <point x="330" y="345"/>
      <point x="402" y="251" type="qcurve" smooth="yes"/>
      <point x="454" y="184"/>
      <point x="516" y="158" type="qcurve"/>
      <point x="479" y="99" type="line"/>
      <point x="331" y="181"/>
      <point x="285" y="362" type="qcurve"/>
      <point x="233" y="180"/>
      <point x="93" y="99" type="qcurve"/>
      <point x="56" y="157" type="line"/>
      <point x="117" y="183"/>
      <point x="167" y="257" type="qcurve" smooth="yes"/>
      <point x="174" y="267"/>
      <point x="196" y="301" type="qcurve" smooth="yes"/>
      <point x="241" y="372"/>
      <point x="250" y="440" type="qcurve" smooth="yes"/>
      <point x="250" y="445"/>
      <point x="251" y="452" type="qcurve"/>
      <point x="98" y="452" type="line"/>
      <point x="98" y="508" type="line"/>
      <point x="932" y="508" type="line"/>
    </contour>
  </outline>
</glyph>
<glyph name="uni1179" format="2">
  <advance width="1024" height="1024"/>
  <unicode hex="1179"/>
  <outline>
    <contour>
      <point x="968" y="335" type="line"/>
      <point x="808" y="335" type="line"/>
      <point x="808" y="169" type="line"/>
      <point x="737" y="169" type="line"/>
      <point x="737" y="796" type="line"/>
      <point x="810" y="796" type="line"/>
      <point x="810" y="620" type="line"/>
      <point x="968" y="620" type="line"/>
      <point x="968" y="554" type="line"/>
      <point x="808" y="554" type="line"/>
      <point x="808" y="400" type="line"/>
      <point x="968" y="400" type="line"/>
    </contour>
    <contour>
      <point x="915" y="22" type="line"/>
      <point x="110" y="22" type="line"/>
      <point x="110" y="87" type="line"/>
      <point x="322" y="87" type="line"/>
      <point x="322" y="278" type="line"/>
      <point x="393" y="278" type="line"/>
      <point x="393" y="88" type="line"/>
      <point x="559" y="88" type="line"/>
      <point x="559" y="279" type="line"/>
      <point x="631" y="279" type="line"/>
      <point x="631" y="87" type="line"/>
      <point x="915" y="87" type="line"/>
    </contour>
  </outline>
</glyph>
<glyph name="uni117C" format="2">
  <advance width="1024" height="1024"/>
  <unicode hex="117C"/>
  <outline>
    <contour>
      <point x="808" y="168" type="line"/>
      <point x="737" y="168" type="line"/>
      <point x="737" y="437" type="line"/>
      <point x="593" y="437" type="line"/>
      <point x="593" y="503" type="line"/>
      <point x="737" y="503" type="line"/>
      <point x="737" y="795" type="line"/>
      <point x="808" y="795" type="line"/>
    </contour>
    <contour>
      <point x="915" y="22" type="line"/>
      <point x="109" y="22" type="line"/>
      <point x="109" y="88" type="line"/>
      <point x="915" y="88" type="line"/>
    </contour>
  </outline>
</glyph>
<glyph name="uni1187" format="2">
  <advance width="1024" height="1024"/>
  <unicode hex="1187"/>
  <outline>
    <contour>
      <point x="912" y="357" type="line"/>
      <point x="106" y="357" type="line"/>
      <point x="106" y="423" type="line"/>
      <point x="344" y="423" type="line"/>
      <point x="344" y="613" type="line"/>
      <point x="416" y="613" type="line"/>
      <point x="416" y="423" type="line"/>
      <point x="607" y="423" type="line"/>
      <point x="607" y="613" type="line"/>
      <point x="679" y="613" type="line"/>
      <point x="679" y="423" type="line"/>
      <point x="912" y="423" type="line"/>
    </contour>
    <contour>
      <point x="915" y="22" type="line"/>
      <point x="109" y="22" type="line"/>
      <point x="109" y="88" type="line"/>
      <point x="477" y="88" type="line"/>
      <point x="477" y="278" type="line"/>
      <point x="548" y="278" type="line"/>
      <point x="548" y="88" type="line"/>
      <point x="915" y="88" type="line"/>
    </contour>
  </outline>
</glyph>
<glyph name="uni118A" format="2">
  <advance width="1024" height="1024"/>
  <unicode hex="118A"/>
  <outline>
    <contour>
      <point x="887" y="-56" type="line"/>
      <point x="814" y="-56" type="line"/>
      <point x="814" y="346" type="line"/>
      <point x="717" y="346" type="line"/>
      <point x="717" y="6" type="line"/>
      <point x="645" y="6" type="line"/>
      <point x="645" y="798" type="line"/>
      <point x="717" y="798" type="line"/>
      <point x="717" y="414" type="line"/>
      <point x="814" y="414" type="line"/>
      <point x="814" y="816" type="line"/>
      <point x="887" y="816" type="line"/>
    </contour>
    <contour>
      <point x="595" y="338" type="line"/>
      <point x="378" y="331" type="line"/>
      <point x="378" y="-8" type="line"/>
      <point x="306" y="-8" type="line"/>
      <point x="306" y="327" type="line"/>
      <point x="108" y="321" type="line"/>
      <point x="93" y="389" type="line"/>
      <point x="591" y="401" type="line"/>
    </contour>
  </outline>
</glyph>
<glyph name="uni118C" format="2">
  <advance width="1024" height="1024"/>
  <unicode hex="118C"/>
  <outline>
    <contour>
      <point x="867" y="-92" type="line"/>
      <point x="796" y="-92" type="line"/>
      <point x="796" y="794" type="line"/>
      <point x="867" y="794" type="line"/>
    </contour>
    <contour>
      <point x="717" y="-52" type="line"/>
      <point x="645" y="-52" type="line"/>
      <point x="645" y="47" type="line"/>
      <point x="511" y="47" type="line"/>
      <point x="511" y="114" type="line"/>
      <point x="645" y="114" type="line"/>
      <point x="645" y="172" type="line"/>
      <point x="511" y="172" type="line"/>
      <point x="511" y="239" type="line"/>
      <point x="645" y="239" type="line"/>
      <point x="645" y="785" type="line"/>
      <point x="717" y="785" type="line"/>
    </contour>
    <contour>
      <point x="611" y="295" type="line"/>
      <point x="393" y="283" type="line"/>
      <point x="393" y="-32" type="line"/>
      <point x="322" y="-32" type="line"/>
      <point x="322" y="278" type="line"/>
      <point x="100" y="266" type="line"/>
      <point x="73" y="334" type="line"/>
      <point x="601" y="360" type="line"/>
    </contour>
  </outline>
</glyph>
<glyph name="uni118E" format="2">
  <advance width="1024" height="1024"/>
  <unicode hex="118E"/>
  <outline>
    <contour>
      <point x="896" y="324" type="line"/>
      <point x="732" y="324" type="line"/>
      <point x="732" y="-72" type="line"/>
      <point x="660" y="-72" type="line"/>
      <point x="660" y="795" type="line"/>
      <point x="732" y="795" type="line"/>
      <point x="732" y="390" type="line"/>
      <point x="896" y="390" type="line"/>
    </contour>
    <contour>
      <point x="611" y="295" type="line"/>
      <point x="460" y="288" type="line"/>
      <point x="460" y="-27" type="line"/>
      <point x="388" y="-27" type="line"/>
      <point x="388" y="283" type="line"/>
      <point x="289" y="276" type="line"/>
      <point x="289" y="-23" type="line"/>
      <point x="217" y="-23" type="line"/>
      <point x="217" y="271" type="line"/>
      <point x="100" y="266" type="line"/>
      <point x="73" y="334" type="line"/>
      <point x="601" y="360" type="line"/>
    </contour>
  </outline>
</glyph>
<glyph name="uni1199" format="2">
  <advance width="1024" height="1024"/>
  <unicode hex="1199"/>
  <outline>
    <contour>
      <point x="855" y="191" type="line"/>
      <point x="695" y="191" type="line"/>
      <point x="695" y="-76" type="line"/>
      <point x="624" y="-76" type="line"/>
      <point x="624" y="791" type="line"/>
      <point x="695" y="791" type="line"/>
      <point x="695" y="510" type="line"/>
      <point x="855" y="510" type="line"/>
      <point x="855" y="444" type="line"/>
      <point x="695" y="444" type="line"/>
      <point x="695" y="257" type="line"/>
      <point x="855" y="257" type="line"/>
    </contour>
    <contour>
      <point x="526" y="0" type="line"/>
      <point x="454" y="0" type="line"/>
      <point x="454" y="769" type="line"/>
      <point x="526" y="769" type="line"/>
    </contour>
  </outline>
</glyph>
<glyph name="uni119B" format="2">
  <advance width="1024" height="1024"/>
  <unicode hex="119B"/>
  <outline>
    <contour>
      <point x="806" y="266" type="line"/>
      <point x="735" y="266" type="line"/>
      <point x="735" y="797" type="line"/>
      <point x="806" y="797" type="line"/>
    </contour>
    <contour>
      <point x="920" y="157" type="line"/>
      <point x="549" y="157" type="line"/>
      <point x="549" y="-72" type="line"/>
      <point x="478" y="-72" type="line"/>
      <point x="478" y="157" type="line"/>
      <point x="114" y="157" type="line"/>
      <point x="114" y="222" type="line"/>
      <point x="920" y="222" type="line"/>
    </contour>
  </outline>
</glyph>
<glyph name="uni11A0" format="2">
  <advance width="1024" height="1024"/>
  <unicode hex="11A0"/>
  <outline>
    <contour>
      <point x="919" y="206" type="line"/>
      <point x="549" y="206" type="line"/>
      <point x="549" y="-72" type="line"/>
      <point x="477" y="-72" type="line"/>
      <point x="477" y="206" type="line"/>
      <point x="113" y="206" type="line"/>
      <point x="113" y="271" type="line"/>
      <point x="919" y="271" type="line"/>
    </contour>
    <contour>
      <point x="508" y="469" type="qcurve" smooth="yes"/>
      <point x="542" y="469"/>
      <point x="555" y="438" type="qcurve" smooth="yes"/>
      <point x="559" y="429"/>
      <point x="559" y="418" type="qcurve" smooth="yes"/>
      <point x="559" y="367"/>
      <point x="457" y="367"/>
      <point x="457" y="469"/>
    </contour>
  </outline>
</glyph>
